# Blender 4.3.2
# www.blender.org
mtllib Chair.mtl
o chair
v -0.220000 0.189565 0.832887
v -0.220000 0.215567 0.817873
v -0.220000 0.115475 0.644539
v -0.109770 0.152958 0.622899
v -0.109770 0.277972 0.839391
v -0.220000 0.089476 0.659548
v 0.000000 0.283753 0.836054
v 0.000000 0.158739 0.619562
v 0.220000 0.189565 0.832887
v -0.109788 0.152955 0.622901
v 0.220000 0.215567 0.817873
v 0.220000 0.115475 0.644539
v 0.109770 0.277972 0.839391
v 0.109770 0.152958 0.622899
v 0.220000 0.089476 0.659548
v -0.165076 0.244196 0.858891
v -0.098800 0.256817 0.851605
v 0.109788 0.152955 0.622901
v -0.098766 0.256818 0.851604
v 0.198030 0.208641 0.865923
v 0.198030 0.218260 0.860368
v -0.000010 0.261856 0.848696
v 0.198030 0.089476 0.659548
v 0.165076 0.244196 0.858891
v 0.098800 0.256817 0.851605
v 0.198030 0.099086 0.654000
v 0.000010 0.261856 0.848696
v 0.098766 0.256818 0.851604
v 0.205945 0.205044 0.859693
v 0.212670 0.233367 0.836289
v 0.212670 0.201989 0.854404
v -0.165068 0.267110 0.845662
v 0.215827 0.225703 0.828358
v 0.215509 0.226474 0.829156
v 0.165068 0.267110 0.845662
v 0.217588 0.193654 0.839968
v 0.218000 0.209430 0.000000
v 0.218000 0.226810 0.004660
v 0.218000 -0.283750 0.009000
v 0.218000 -0.268160 0.000000
v -0.200000 0.209430 0.000000
v -0.200000 0.226810 0.004660
v -0.200000 -0.154250 0.233300
v -0.200000 -0.283750 0.009000
v -0.200000 -0.268160 0.000000
v -0.200000 -0.138660 0.224300
v -0.198030 0.208641 0.865923
v -0.218000 0.226810 0.004660
v -0.218000 0.209430 0.000000
v -0.198030 0.218260 0.860368
v -0.218000 -0.268160 0.000000
v -0.218000 -0.283750 0.009000
v -0.198030 0.089476 0.659548
v -0.198030 0.099086 0.654000
v -0.205945 0.205044 0.859693
v -0.215000 -0.154250 0.233300
v 0.200000 0.226810 0.004660
v 0.200000 0.209430 0.000000
v -0.212670 0.233367 0.836289
v 0.200000 -0.268160 0.000000
v 0.200000 -0.283750 0.009000
v 0.200000 -0.154250 0.233300
v 0.200000 -0.138660 0.224300
v -0.212670 0.201989 0.854404
v -0.215509 0.226474 0.829156
v -0.215827 0.225703 0.828358
v -0.217588 0.193654 0.839968
v -0.195000 0.146840 0.303130
v -0.200000 0.146836 0.303129
v -0.200000 0.129451 0.298470
v 0.200000 0.129450 0.298470
v 0.200000 0.129451 0.298470
v 0.200000 0.146836 0.303129
v -0.200000 0.151495 0.285739
v -0.200000 0.134111 0.281080
v -0.200000 0.071520 0.584210
v -0.200000 0.068700 0.583456
v -0.200000 0.058036 0.564985
v -0.200000 0.090750 0.657650
v -0.200000 -0.145249 0.248889
v -0.200000 -0.129660 0.239890
v -0.200000 0.106340 0.648650
v -0.218000 0.071520 0.584210
v -0.218000 0.058036 0.564985
v -0.218000 0.068700 0.583456
v -0.218000 0.106340 0.648650
v -0.218000 0.090750 0.657650
v -0.215000 0.151495 0.285739
v -0.215000 0.134111 0.281080
v -0.215000 0.151500 0.285740
v -0.215000 0.134110 0.281080
v -0.215000 0.146836 0.303129
v -0.215000 0.129451 0.298470
v -0.215000 0.146840 0.303130
v -0.215000 0.129450 0.298470
v -0.215000 -0.145249 0.248889
v 0.200000 0.151495 0.285739
v 0.200000 0.134111 0.281080
v 0.200000 0.058036 0.564985
v 0.200000 0.068700 0.583456
v 0.200000 0.071520 0.584210
v 0.200000 -0.145249 0.248889
v 0.200000 0.090750 0.657650
v 0.200000 0.106340 0.648650
v 0.200000 -0.129660 0.239890
v 0.218000 0.106340 0.648650
v 0.218000 0.090750 0.657650
v 0.215000 0.151495 0.285739
v 0.215000 0.134111 0.281080
v 0.215000 0.151500 0.285740
v 0.215000 0.134110 0.281080
v 0.218000 0.071520 0.584210
v 0.218000 0.068700 0.583456
v 0.215000 0.146836 0.303129
v 0.218000 0.058036 0.564985
v 0.215000 0.129451 0.298470
v 0.215000 0.146840 0.303130
v 0.215000 0.129450 0.298470
v 0.215000 -0.145249 0.248889
v -0.195000 -0.145250 0.248890
v -0.215000 -0.145250 0.248890
v 0.215000 -0.145250 0.248890
v 0.215000 -0.154250 0.233300
v 0.215000 -0.154250 0.233300
v -0.215000 -0.154250 0.233300
v -0.171480 0.117962 0.643103
v -0.171489 0.117956 0.643107
v -0.098800 0.131802 0.635113
v -0.190838 0.136861 0.632193
v 0.000000 0.136845 0.632202
v 0.000000 0.136861 0.632193
v 0.171489 0.117956 0.643107
v 0.171480 0.117962 0.643103
v 0.098800 0.131802 0.635113
v 0.190838 0.136861 0.632193
v -0.190836 0.136863 0.632192
v -0.190507 0.137104 0.632052
v -0.190500 0.137109 0.632050
v 0.190500 0.137109 0.632050
v 0.190507 0.137104 0.632052
v 0.190836 0.136863 0.632192
v -0.190838 0.138264 0.634624
v -0.190838 0.152692 0.659610
v -0.192510 0.224693 0.862448
v -0.196935 0.219537 0.860781
v -0.171480 0.242198 0.858247
v -0.176769 0.237796 0.859304
v -0.192510 0.257303 0.843616
v -0.197741 0.251092 0.841713
v 0.190838 0.152692 0.659610
v 0.190838 0.138264 0.634624
v 0.000000 0.137398 0.633160
v 0.192510 0.257303 0.843616
v 0.000000 0.258143 0.842264
v 0.196935 0.219537 0.860781
v 0.192510 0.224693 0.862448
v 0.176769 0.237796 0.859304
v 0.171480 0.242198 0.858247
v 0.197741 0.251092 0.841713
v -0.190836 0.138255 0.634604
v 0.190836 0.138255 0.634604
v -0.169617 0.265664 0.845220
v -0.188633 0.259615 0.843371
v -0.190500 0.259021 0.843189
v -0.195000 0.104291 0.460000
v -0.195000 0.104291 0.430000
v -0.195000 -0.216041 0.430000
v -0.195000 -0.216041 0.460000
v 0.188633 0.259615 0.843371
v 0.169617 0.265664 0.845220
v 0.190500 0.259021 0.843189
v 0.195000 0.104291 0.430000
v 0.195000 0.104291 0.460000
v 0.195000 -0.216041 0.460000
v 0.195000 -0.216041 0.430000
v -0.146412 0.154120 0.460000
v -0.170640 0.147460 0.460000
v -0.188510 0.129140 0.460000
v -0.188510 -0.240890 0.460000
v -0.170640 -0.259220 0.460000
v -0.146412 -0.265880 0.460000
v 0.188510 0.129140 0.460000
v 0.170640 0.147460 0.460000
v 0.146412 0.154120 0.460000
v 0.146412 -0.265880 0.460000
v 0.170640 -0.259220 0.460000
v 0.188510 -0.240890 0.460000
v -0.188510 0.129140 0.430000
v -0.170640 0.147460 0.430000
v -0.146412 0.154120 0.430000
v -0.146412 -0.265880 0.430000
v -0.170640 -0.259220 0.430000
v -0.188510 -0.240890 0.430000
v 0.146412 0.154120 0.430000
v 0.170640 0.147460 0.430000
v 0.188510 0.129140 0.430000
v 0.188510 -0.240890 0.430000
v 0.170640 -0.259220 0.430000
v 0.146412 -0.265880 0.430000
vn 1.0000 -0.0000 -0.0000
vn -0.0000 -0.5000 -0.8660
vn -0.0000 0.2590 -0.9659
vn -0.0000 -0.8660 0.5000
vn -0.0018 -0.8660 0.5001
vn -1.0000 -0.0000 -0.0000
vn -0.0000 -0.2453 0.9694
vn -0.0000 -0.2498 0.9683
vn -0.0000 -0.2588 0.9659
vn -0.0000 -0.0869 0.9962
vn 0.0047 -0.0038 1.0000
vn -0.0000 -0.2508 0.9680
vn 0.0033 -0.0844 0.9964
vn -0.0000 0.9659 0.2588
vn 0.9995 -0.0317 -0.0000
vn -0.0000 0.5000 0.8660
vn -0.0000 -0.9659 -0.2588
vn -0.0001 -0.9659 -0.2588
vn -0.0000 0.1942 -0.9810
vn -0.0000 0.2142 -0.9768
vn -0.0000 -0.0000 -1.0000
vn -0.0000 0.0870 -0.9962
vn -0.0000 -0.2583 0.9661
vn -0.0024 0.9659 0.2588
vn -0.0006 -0.9659 -0.2588
vn -0.0000 -0.0000 1.0000
vn -1.0000 0.0063 -0.0000
vn -0.0000 0.8660 -0.5000
vn 0.0001 -0.8660 0.5000
vn -0.9995 -0.0317 -0.0000
vn -0.0022 0.9659 0.2588
vn 0.0001 -0.9659 -0.2588
vn -0.0000 0.2157 -0.9765
vn 0.0001 0.9659 0.2588
vn 0.0006 -0.9659 -0.2588
vn 1.0000 0.0063 -0.0000
vn 1.0000 -0.0008 -0.0000
vn -0.0001 -0.8660 0.5000
vn -0.0000 0.6363 0.7714
vn -0.0000 0.4999 0.8661
vn -0.0000 0.6427 0.7661
vn -0.0000 0.7200 0.6940
vn 0.0018 -0.8660 0.5001
vn -0.9897 0.0715 0.1238
vn -0.9882 0.0764 0.1324
vn -0.1268 0.8590 -0.4960
vn -0.1414 0.8573 -0.4950
vn -0.0000 0.8660 -0.5001
vn -0.2070 0.8473 -0.4892
vn 0.9897 0.0715 0.1238
vn 0.9882 0.0764 0.1324
vn 0.1414 0.8573 -0.4950
vn 0.1268 0.8590 -0.4960
vn 0.2212 0.8445 -0.4877
vn 0.2070 0.8473 -0.4892
vn 0.2211 0.8446 -0.4877
vn 0.0050 0.5015 0.8651
vn 0.6724 0.3701 0.6410
vn 0.6725 0.3701 0.6409
vn 0.6727 0.3700 0.6408
vn 0.6726 0.3701 0.6408
vn 0.6723 0.3701 0.6411
vn 0.9591 0.1415 0.2452
vn 0.9591 0.1415 0.2450
vn 0.1023 0.4974 0.8615
vn -0.0078 0.5023 0.8646
vn 0.1352 0.4954 0.8581
vn 0.9591 0.1415 0.2451
vn -0.0050 0.5015 0.8651
vn -0.1352 0.4954 0.8581
vn 0.0078 0.5023 0.8646
vn -0.1023 0.4974 0.8615
vn 0.6457 0.6613 -0.3817
vn 0.6460 0.6611 -0.3817
vn 0.6462 0.6609 -0.3816
vn 0.6463 0.6608 -0.3816
vn -0.6726 0.3701 0.6408
vn -0.6727 0.3700 0.6408
vn -0.6724 0.3701 0.6410
vn -0.6725 0.3701 0.6409
vn -0.6723 0.3701 0.6411
vn -0.9591 0.1415 0.2452
vn -0.9591 0.1415 0.2450
vn -0.9591 0.1415 0.2451
vn -0.6461 0.6610 -0.3816
vn -0.6461 0.6610 -0.3817
vn -0.6460 0.6611 -0.3817
vn -0.6457 0.6613 -0.3817
vn -0.6462 0.6609 -0.3816
vn -0.6463 0.6608 -0.3816
vn -0.0171 -0.5124 -0.8586
vn -0.0000 -0.4999 -0.8661
vn -0.0141 -0.5102 -0.8599
vn -0.0000 -0.4905 -0.8714
vn -0.0000 -0.4901 -0.8716
vn 0.0141 -0.5102 -0.8599
vn -0.0482 -0.3215 -0.9457
vn -0.0002 -0.5031 -0.8642
vn -0.0060 -0.4789 -0.8779
vn 0.0006 -0.5022 -0.8647
vn -0.0006 -0.5022 -0.8647
vn -0.0002 -0.5030 -0.8643
vn 0.0060 -0.4789 -0.8779
vn -0.0025 -0.5353 -0.8447
vn 0.0482 -0.3215 -0.9457
vn -0.0034 -0.5657 -0.8246
vn 0.0171 -0.5124 -0.8586
vn -0.0002 -0.8660 0.5000
vn -0.0001 -0.8660 0.5001
vn 0.0002 -0.8660 0.5000
vn 0.0001 -0.8660 0.5001
vn 0.6345 -0.6694 0.3865
vn 0.4273 -0.7834 0.4514
vn 0.6344 -0.6694 0.3866
vn 0.6276 -0.6747 0.3885
vn 0.4081 -0.7906 0.4565
vn 0.6345 -0.6693 0.3865
vn 0.6346 -0.6692 0.3865
vn -0.3814 0.4623 0.8005
vn -0.5571 0.4153 0.7192
vn -0.2364 0.4859 0.8414
vn -0.6728 0.3699 0.6406
vn 0.1372 -0.8578 0.4953
vn 0.2148 -0.8458 0.4884
vn 0.1283 -0.8588 0.4960
vn -0.2363 0.4859 0.8415
vn -0.2365 0.4859 0.8414
vn -0.2362 0.4859 0.8415
vn 0.0495 -0.8649 0.4995
vn -0.2366 0.4858 0.8414
vn -0.6462 0.6610 -0.3815
vn -0.4176 0.7869 -0.4544
vn -0.0000 0.8661 -0.4999
vn -0.0000 -0.8661 0.4999
vn -0.1372 -0.8578 0.4953
vn -0.0495 -0.8649 0.4995
vn -0.1283 -0.8588 0.4960
vn 0.0294 -0.8657 0.4998
vn 0.2363 0.4859 0.8415
vn 0.2364 0.4859 0.8414
vn 0.2365 0.4859 0.8414
vn -0.6344 -0.6694 0.3866
vn -0.6276 -0.6743 0.3891
vn -0.6344 -0.6694 0.3865
vn -0.4264 -0.7834 0.4521
vn -0.4081 -0.7906 0.4565
vn -0.6345 -0.6694 0.3865
vn 0.6461 0.6610 -0.3817
vn 0.6461 0.6610 -0.3816
vn 0.2362 0.4859 0.8415
vn 0.6462 0.6610 -0.3815
vn -0.6346 -0.6692 0.3865
vn 0.4176 0.7869 -0.4544
vn -0.6345 -0.6693 0.3865
vn 0.5571 0.4153 0.7192
vn 0.3814 0.4623 0.8005
vn 0.6728 0.3699 0.6406
vn -0.2148 -0.8458 0.4884
vn -0.0000 -0.8661 0.4998
vn -0.0294 -0.8657 0.4998
vn 0.2366 0.4858 0.8414
vn -0.2211 0.8446 -0.4877
vn -0.2212 0.8445 -0.4877
vn -0.4289 0.7840 -0.4488
vn -0.6464 0.6607 -0.3815
vn -0.6232 0.6792 -0.3877
vn -0.6464 0.6608 -0.3814
vn -0.9919 0.1274 -0.0000
vn -0.9919 -0.1274 -0.0000
vn 0.9919 0.1274 -0.0000
vn 0.9919 -0.1274 -0.0000
vn 0.4305 0.7833 -0.4484
vn 0.6465 0.6608 -0.3814
vn 0.6248 0.6781 -0.3871
vn 0.6464 0.6607 -0.3815
vn 0.1337 0.9910 -0.0000
vn -0.1337 0.9910 -0.0000
vn -0.1337 -0.9910 -0.0000
vn 0.1337 -0.9910 -0.0000
vn -0.2651 0.9642 -0.0000
vn -0.8707 0.4919 -0.0000
vn -0.8707 0.4918 -0.0000
vn -0.7158 0.6983 -0.0000
vn -0.2651 -0.9642 -0.0000
vn -0.8707 -0.4917 -0.0000
vn -0.7160 -0.6981 -0.0000
vn 0.2651 0.9642 -0.0000
vn 0.8707 0.4919 -0.0000
vn 0.8707 0.4918 -0.0000
vn 0.7158 0.6983 -0.0000
vn 0.2651 -0.9642 -0.0000
vn 0.8707 -0.4917 -0.0000
vn 0.7160 -0.6981 -0.0000
s 1
usemtl color_2829873
f 43//1 44//1 45//1
f 78//1 46//1 45//1
f 43//1 45//1 46//1
f 44//2 52//2 51//2
f 44//2 51//2 45//2
f 41//3 49//3 48//3
f 41//3 48//3 42//3
f 52//4 44//4 56//5
f 43//4 56//5 44//4
f 61//6 62//6 60//6
f 99//6 60//6 63//6
f 63//6 60//6 62//6
f 39//2 61//2 60//2
f 39//2 60//2 40//2
f 37//3 58//3 57//3
f 37//3 57//3 38//3
f 94//7 69//8 68//9
f 69//8 70//10 68//9
f 71//11 68//9 70//10
f 73//12 68//9 72//13
f 71//11 72//13 68//9
f 110//14 90//14 68//14
f 69//1 76//1 77//1
f 69//1 77//1 78//1
f 69//1 78//1 70//1
f 81//15 78//1 80//1
f 79//1 80//1 78//1
f 79//1 78//1 77//1
f 79//1 77//1 82//1
f 83//6 48//6 85//6
f 84//6 87//6 85//6
f 86//6 85//6 87//6
f 82//16 86//16 87//16
f 82//16 87//16 79//16
f 74//14 42//14 88//14
f 84//17 49//17 89//18
f 110//19 74//20 90//19
f 88//19 90//19 74//20
f 91//21 89//21 75//22
f 76//23 83//23 85//23
f 76//23 85//23 77//23
f 76//14 69//14 92//24
f 76//14 92//24 83//14
f 78//17 84//17 93//25
f 78//17 93//25 70//17
f 94//7 92//7 69//8
f 95//26 71//11 70//10
f 95//26 70//10 93//26
f 88//14 83//14 92//24
f 89//18 93//25 84//17
f 88//6 92//27 90//6
f 94//27 90//6 92//27
f 93//6 89//6 91//6
f 93//6 91//6 95//6
f 94//14 68//14 90//14
f 95//17 91//17 71//17
f 82//28 77//28 85//28
f 82//28 85//28 86//28
f 84//28 78//28 51//28
f 80//4 79//4 96//29
f 87//4 96//29 79//4
f 101//6 73//6 100//6
f 99//6 100//6 73//6
f 72//6 99//6 73//6
f 104//6 100//6 103//6
f 100//6 99//6 103//6
f 102//6 103//6 99//6
f 102//6 99//6 105//30
f 106//16 104//16 103//16
f 106//16 103//16 107//16
f 38//14 57//14 108//31
f 98//17 58//17 109//32
f 108//19 97//33 110//19
f 98//22 109//21 111//21
f 98//22 111//21 91//21
f 112//23 101//23 100//23
f 112//23 100//23 113//23
f 73//14 101//14 114//34
f 112//14 114//34 101//14
f 72//17 116//35 99//17
f 115//17 99//17 116//35
f 73//12 114//7 117//7
f 73//12 117//7 68//9
f 71//11 118//26 116//26
f 71//11 116//26 72//13
f 112//14 38//14 114//34
f 108//31 114//34 38//14
f 109//32 115//17 116//35
f 114//36 108//37 110//37
f 114//36 110//37 117//36
f 109//1 116//1 111//1
f 118//1 111//1 116//1
f 110//14 68//14 117//14
f 91//17 111//17 71//17
f 118//17 71//17 111//17
f 106//28 113//28 100//28
f 106//28 100//28 104//28
f 103//4 102//4 119//38
f 103//4 119//38 107//4
f 120//16 81//16 80//39
f 105//40 120//16 102//41
f 122//42 102//41 120//16
f 120//16 105//40 81//16
f 80//39 96//42 121//42
f 80//39 121//42 120//16
f 122//42 119//42 102//41
f 40//1 115//1 39//1
f 115//17 109//32 37//17
f 123//43 39//4 119//38
f 107//4 119//38 39//4
f 122//26 124//26 123//26
f 122//1 123//1 119//1
f 49//6 84//6 48//6
f 84//6 85//6 48//6
f 51//6 52//6 84//6
f 87//6 84//6 52//6
f 83//14 88//14 48//14
f 41//17 89//18 49//17
f 87//4 52//4 96//29
f 56//5 96//29 52//4
f 125//26 121//26 56//26
f 96//6 56//6 121//6
f 74//1 75//1 42//1
f 41//1 42//1 75//1
f 81//15 46//1 78//1
f 48//14 88//14 42//14
f 75//17 89//18 41//17
f 78//28 45//28 51//28
f 58//6 98//6 57//6
f 97//6 57//6 98//6
f 63//6 105//30 99//6
f 97//14 108//31 57//14
f 37//17 109//32 58//17
f 40//28 99//28 115//28
f 46//28 81//28 63//28
f 81//28 105//28 63//28
f 121//4 125//4 120//4
f 125//4 124//4 120//4
f 122//4 120//4 124//4
f 40//28 60//28 99//28
f 62//4 61//4 123//43
f 61//4 39//4 123//43
f 124//26 125//26 43//21
f 46//2 63//2 43//2
f 63//2 62//2 43//2
f 124//26 43//21 62//26
f 125//26 56//26 43//21
f 124//26 62//26 123//26
f 115//1 37//1 38//1
f 112//1 113//1 38//1
f 38//1 113//1 115//1
f 107//1 39//1 115//1
f 107//1 115//1 113//1
f 107//1 113//1 106//1
f 91//21 75//22 98//22
f 98//22 74//20 97//33
f 74//20 98//22 75//22
f 110//19 97//33 74//20
usemtl color_14541540
f 6//6 1//44 3//6
f 2//45 3//6 1//44
f 4//46 5//47 8//48
f 7//48 8//48 5//47
f 5//47 4//46 10//49
f 15//1 12//1 9//50
f 11//51 9//50 12//1
f 13//52 14//53 8//48
f 13//52 8//48 7//48
f 170//54 18//55 35//56
f 13//52 18//55 14//53
f 7//16 5//16 19//57
f 26//6 20//6 21//6
f 20//6 26//6 23//6
f 29//58 159//59 21//60
f 29//58 21//60 20//61
f 159//59 29//58 30//62
f 31//62 30//62 29//58
f 34//63 36//64 33//63
f 9//50 11//51 36//64
f 35//65 25//66 24//67
f 36//64 34//63 31//68
f 30//64 31//68 34//63
f 7//16 27//16 28//69
f 16//70 17//71 32//72
f 33//73 150//74 34//74
f 5//16 32//72 17//71
f 17//71 19//57 5//16
f 7//16 19//57 22//16
f 27//16 7//16 22//16
f 33//63 36//64 11//51
f 35//65 13//16 25//66
f 7//16 28//69 13//16
f 25//66 13//16 28//69
f 12//75 151//75 11//76
f 53//1 54//1 47//1
f 50//1 47//1 54//1
f 47//77 50//78 55//79
f 149//80 59//81 55//79
f 64//81 55//79 59//81
f 65//82 66//82 67//83
f 64//84 59//83 65//82
f 64//84 65//82 67//83
f 59//85 149//86 65//87
f 149//86 148//86 143//87
f 2//45 67//83 66//82
f 1//44 67//83 2//45
f 66//88 142//89 2//90
f 127//91 54//2 129//2
f 128//92 126//93 129//2
f 126//93 127//91 129//2
f 129//2 131//94 128//92
f 130//95 128//92 131//94
f 134//92 135//2 133//96
f 130//95 131//94 134//92
f 135//2 134//92 131//94
f 138//97 10//98 137//99
f 136//100 137//99 10//98
f 141//101 18//102 140//103
f 8//2 141//101 4//104
f 4//104 141//101 10//98
f 136//100 10//98 141//101
f 141//101 8//2 18//102
f 139//105 140//103 18//102
f 14//106 18//102 8//2
f 12//2 26//2 135//2
f 133//96 135//2 132//107
f 15//2 26//2 12//2
f 132//107 135//2 26//2
f 23//2 26//2 15//2
f 3//2 129//2 54//2
f 54//2 6//2 3//2
f 53//2 6//2 54//2
f 20//4 23//4 29//4
f 31//108 29//4 36//4
f 29//4 23//4 36//4
f 15//4 9//109 23//4
f 9//109 36//4 23//4
f 64//110 67//4 55//4
f 67//4 53//4 55//4
f 67//4 1//111 53//4
f 47//4 55//4 53//4
f 53//4 1//111 6//4
f 143//48 150//48 131//28
f 145//112 126//113 144//114
f 147//114 144//114 126//113
f 127//115 126//113 145//112
f 146//116 147//114 126//113
f 54//117 127//115 50//118
f 145//112 50//118 127//115
f 148//119 144//120 147//121
f 145//122 144//120 149//80
f 148//119 149//80 144//120
f 126//113 128//123 146//116
f 16//124 146//116 128//123
f 17//125 16//124 128//123
f 162//126 163//127 147//121
f 147//121 146//128 162//126
f 16//70 162//126 146//128
f 17//125 128//123 19//129
f 152//4 19//129 128//123
f 148//119 147//121 164//130
f 55//79 50//78 149//80
f 50//78 145//122 149//80
f 149//86 143//87 65//87
f 129//131 3//89 142//89
f 3//89 2//90 142//89
f 164//132 143//87 148//86
f 142//89 66//88 143//87
f 143//48 131//28 142//28
f 151//28 131//28 150//48
f 135//133 131//28 151//28
f 129//133 142//28 131//28
f 130//134 152//4 128//123
f 130//134 134//135 152//4
f 28//136 152//4 134//135
f 28//136 134//135 25//137
f 22//138 19//129 154//4
f 19//129 152//4 154//4
f 170//139 157//140 169//141
f 157//142 132//143 156//144
f 133//145 157//142 158//146
f 155//147 156//144 132//143
f 132//143 157//142 133//145
f 159//148 150//74 153//148
f 30//149 34//74 159//148
f 157//140 170//139 158//150
f 34//74 150//74 159//148
f 12//75 135//151 151//75
f 33//73 11//76 151//75
f 155//147 132//143 21//152
f 151//75 150//74 33//73
f 171//153 153//148 150//74
f 26//154 21//152 132//143
f 150//4 143//4 161//134
f 156//155 153//156 157//140
f 21//60 159//59 155//157
f 143//4 160//134 161//134
f 24//158 134//135 158//146
f 136//159 161//134 160//134
f 133//145 158//146 134//135
f 22//138 154//4 27//160
f 25//137 134//135 24//158
f 141//134 161//134 136//159
f 153//156 171//161 157//140
f 164//130 147//121 163//127
f 169//141 157//140 171//161
f 24//67 158//150 170//139
f 16//70 32//72 162//126
f 156//155 155//157 159//59
f 153//156 156//155 159//59
f 5//47 10//49 32//162
f 162//163 32//162 10//49
f 27//160 154//4 28//136
f 152//4 28//136 154//4
f 163//163 162//163 10//49
f 66//88 65//87 143//87
f 138//164 164//132 10//49
f 163//163 10//49 164//132
f 160//165 137//166 136//167
f 137//166 160//165 138//164
f 160//165 143//87 138//164
f 164//132 138//164 143//87
f 165//168 166//168 167//169
f 165//168 167//169 168//169
f 24//67 170//139 35//65
f 172//170 173//170 174//171
f 172//170 174//171 175//171
f 169//54 18//55 170//54
f 165//26 185//26 178//26
f 179//26 181//26 168//26
f 180//26 181//26 179//26
f 13//52 35//56 18//55
f 165//26 168//26 185//26
f 181//26 185//26 168//26
f 139//172 18//55 171//153
f 169//54 171//153 18//55
f 141//173 140//174 161//175
f 139//172 171//153 150//74
f 139//172 150//74 161//175
f 139//172 161//175 140//174
f 183//26 184//26 182//26
f 173//26 182//26 184//26
f 187//26 176//26 186//26
f 174//26 176//26 187//26
f 174//26 173//26 176//26
f 184//26 176//26 173//26
f 185//26 186//26 176//26
f 177//26 185//26 176//26
f 177//26 178//26 185//26
f 188//21 190//21 166//21
f 189//21 190//21 188//21
f 167//21 194//21 193//21
f 167//21 166//21 194//21
f 190//21 194//21 166//21
f 195//21 196//21 194//21
f 196//21 172//21 194//21
f 198//21 199//21 197//21
f 175//21 197//21 199//21
f 199//21 194//21 175//21
f 175//21 194//21 172//21
f 193//21 194//21 192//21
f 199//21 191//21 194//21
f 191//21 192//21 194//21
f 184//176 194//176 190//177
f 184//176 190//177 176//177
f 181//178 191//178 199//179
f 181//178 199//179 185//179
f 190//177 189//180 177//180
f 190//177 177//180 176//177
f 188//181 178//182 177//183
f 188//181 177//183 189//183
f 166//168 165//168 178//182
f 166//168 178//182 188//181
f 181//178 180//184 192//184
f 181//178 192//184 191//178
f 179//185 193//185 192//186
f 179//185 192//186 180//186
f 168//169 167//169 193//185
f 168//169 193//185 179//185
f 184//176 183//187 195//187
f 184//176 195//187 194//176
f 182//188 196//189 195//190
f 182//188 195//190 183//190
f 173//170 172//170 196//189
f 173//170 196//189 182//188
f 199//179 198//191 186//191
f 199//179 186//191 185//179
f 197//192 187//192 186//193
f 197//192 186//193 198//193
f 175//171 174//171 187//192
f 175//171 187//192 197//192
