# Blender v3.4.1 OBJ File: ''
# www.blender.org
mtllib pedal.mtl
o obj_0.017
v 10.000000 1.255000 -2.175200
v 10.000000 9.000001 -3.000199
v 10.000000 2.175000 -1.255100
v 10.000000 0.000000 -2.510200
v 10.000000 8.999999 3.000201
v 10.000000 -9.000001 3.000199
v 10.000000 -0.000000 2.515200
v 10.000000 -1.255000 2.175200
v 10.000000 1.255000 2.175200
v 10.000000 2.175000 1.255100
v -10.000000 2.515000 0.000000
v -10.000000 8.999999 3.000201
v -10.000000 9.000001 -3.000199
v 10.000000 -8.999999 -3.000201
v 10.000000 -2.510000 -0.000000
v 10.000000 2.515000 0.000000
v -10.000000 2.175000 -1.255100
v -10.000000 1.255000 -2.175200
v -10.000000 -1.255000 -2.175200
v 10.000000 -1.255000 -2.175200
v -10.000000 0.000000 -2.510200
v -10.000000 -8.999999 -3.000201
v -10.000000 -2.175000 -1.255100
v 10.000000 -2.175000 -1.255100
v 10.000000 -2.175000 1.255100
v -10.000000 -2.510000 -0.000000
v -10.000000 -1.255000 2.175200
v -10.000000 -2.175000 1.255100
v -10.000000 -9.000001 3.000199
v -10.000000 -0.000000 2.515200
v -10.000000 0.430000 3.000200
v -10.000000 1.255000 2.175200
v -10.000000 2.175000 1.255100
v 10.000000 -10.000001 3.000198
v 10.000000 -9.999999 -3.000202
v 10.000000 10.000001 -3.000198
v 10.000000 9.999999 3.000202
v -10.000000 9.999999 3.000202
v -10.000000 10.000001 -3.000198
v -10.000000 -10.000001 3.000198
v -10.000000 -9.999999 -3.000202
vn 1.0000 0.0000 0.0000
vn -1.0000 0.0000 0.0000
vn 0.0000 0.2579 0.9662
vn 0.0000 -0.0000 1.0000
vn 0.0000 0.7071 0.7071
vn 0.0000 1.0000 0.0000
vn 0.0000 0.9662 0.2579
vn 0.0000 0.5012 -0.8653
vn 0.0000 0.7071 -0.7071
vn 0.0000 0.0000 -1.0000
vn 0.0000 0.2615 -0.9652
vn 0.0000 -0.5012 -0.8653
vn 0.0000 -0.2615 -0.9652
vn 0.0000 -0.8654 -0.5012
vn 0.0000 0.9662 -0.2579
vn 0.0000 -0.9652 -0.2615
vn 0.0000 -0.9652 0.2615
vn 0.0000 -0.8654 0.5012
vn 0.0000 -0.7071 0.7071
vn 0.0000 -0.2579 0.9662
vn 0.0000 -1.0000 -0.0000
usemtl color_2829873.012
s 1
f 1//1 2//1 3//1
f 4//1 2//1 1//1
f 5//1 6//1 7//1
f 8//1 7//1 6//1
f 9//1 5//1 7//1
f 10//1 5//1 9//1
f 11//2 12//2 13//2
f 6//1 14//1 15//1
f 16//1 5//1 10//1
f 17//2 11//2 13//2
f 18//2 17//2 13//2
f 3//1 2//1 16//1
f 19//3 20//3 4//4
f 19//3 4//4 21//4
f 20//1 14//1 4//1
f 14//1 2//1 4//1
f 5//1 16//1 2//1
f 19//2 22//2 23//2
f 23//5 24//5 20//5
f 23//5 20//5 19//5
f 20//1 24//1 14//1
f 24//1 15//1 14//1
f 6//1 15//1 25//1
f 8//1 6//1 25//1
f 13//2 22//2 21//2
f 21//2 18//2 13//2
f 19//2 21//2 22//2
f 26//6 15//6 24//7
f 26//6 24//7 23//7
f 27//8 8//8 25//9
f 27//8 25//9 28//9
f 22//2 29//2 26//2
f 26//2 23//2 22//2
f 28//2 26//2 29//2
f 13//10 2//10 22//10
f 14//10 22//10 2//10
f 30//11 7//11 8//8
f 30//11 8//8 27//8
f 5//4 31//4 6//4
f 32//12 9//12 7//13
f 32//12 7//13 30//13
f 29//2 31//2 27//2
f 29//2 27//2 28//2
f 29//4 6//4 31//4
f 33//14 10//14 9//12
f 33//14 9//12 32//12
f 31//2 32//2 30//2
f 30//2 27//2 31//2
f 28//15 25//15 15//6
f 28//15 15//6 26//6
f 11//16 16//16 10//14
f 11//16 10//14 33//14
f 33//2 32//2 12//2
f 31//2 12//2 32//2
f 5//4 12//4 31//4
f 16//17 11//17 17//18
f 16//17 17//18 3//18
f 11//2 33//2 12//2
f 3//18 17//18 18//19
f 3//18 18//19 1//19
f 1//20 18//20 21//4
f 1//20 21//4 4//4
usemtl color_16500122
f 34//1 35//1 14//1
f 34//1 14//1 6//1
f 2//1 36//1 5//1
f 36//1 37//1 5//1
f 37//4 38//4 12//4
f 37//4 12//4 5//4
f 37//6 36//6 39//6
f 37//6 39//6 38//6
f 6//4 29//4 40//4
f 6//4 40//4 34//4
f 29//2 22//2 41//2
f 29//2 41//2 40//2
f 13//2 12//2 39//2
f 38//2 39//2 12//2
f 2//10 13//10 39//10
f 2//10 39//10 36//10
f 35//10 41//10 22//10
f 35//10 22//10 14//10
f 40//21 41//21 35//21
f 40//21 35//21 34//21
