# Blender v2.91.2 OBJ File: ''
# www.blender.org
mtllib Desktop.mtl
o obj_0
v 88.750000 -25.200005 26.499996
v 88.824997 -25.180004 26.499996
v 88.879997 -25.125004 26.499996
v 88.900002 -25.050003 26.499996
v 88.879997 -24.975004 26.499996
v 88.824997 -24.920004 26.499996
v 88.750000 -24.900003 26.499996
v 88.675003 -24.920004 26.499996
v 88.620003 -24.975004 26.499996
v 88.599998 -25.050003 26.499996
v 88.620003 -25.125004 26.499996
v 88.675003 -25.180004 26.499996
v -88.824997 -24.920010 54.499996
v -88.879997 -24.975010 54.499996
v -88.879997 -24.975010 59.499996
v -88.824997 -24.920010 59.499996
v 88.675003 -25.180004 21.499996
v 88.750000 -25.200005 21.499996
v -88.900002 -25.050009 54.499996
v -88.900002 -25.050009 59.499996
v 88.620003 -25.125004 21.499996
v -88.879997 -25.125010 54.499996
v -88.879997 -25.125010 59.499996
v 88.599998 -25.050003 21.499996
v -88.824997 -25.180010 54.499996
v -88.824997 -25.180010 59.499996
v 88.620003 -24.975004 21.499996
v -88.750000 -25.200010 54.499996
v -88.750000 -25.200010 59.499996
v 88.675003 -24.920004 21.499996
v 88.750000 -24.900003 21.499996
v 88.824997 -24.920004 21.499996
v 88.879997 -24.975004 21.499996
v 88.900002 -25.050003 21.499996
v 88.879997 -25.125004 21.499996
v 88.824997 -25.180004 21.499996
v 46.500000 -26.000006 36.499996
v 45.500000 -26.000006 36.499996
v 45.500000 -25.000006 36.499996
v 46.500000 -25.000006 36.499996
v 45.500000 -26.000008 44.499996
v 46.500000 -26.000008 44.499996
v 88.675003 -24.920010 54.499996
v 88.750000 -24.900009 54.499996
v 88.620003 -24.975010 54.499996
v 88.599998 -25.050009 54.499996
v 88.824997 -24.920010 54.499996
v 88.879997 -24.975010 54.499996
v 88.900002 -25.050009 54.499996
v 88.879997 -25.125010 54.499996
v 88.824997 -25.180010 54.499996
v 88.750000 -25.200010 54.499996
v 88.675003 -25.180010 54.499996
v 88.620003 -25.125010 54.499996
v 45.500000 -25.000008 44.499996
v 46.500000 -25.000008 44.499996
v 88.750000 -25.200010 59.499996
v 88.824997 -25.180010 59.499996
v 88.879997 -25.125010 59.499996
v 88.900002 -25.050009 59.499996
v 88.879997 -24.975010 59.499996
v 88.824997 -24.920010 59.499996
v 88.750000 -24.900009 59.499996
v 88.675003 -24.920010 59.499996
v 88.620003 -24.975010 59.499996
v 88.599998 -25.050009 59.499996
v 88.620003 -25.125010 59.499996
v 88.675003 -25.180010 59.499996
v -88.750000 -24.900003 26.499996
v -88.824997 -24.920004 26.499996
v -88.879997 -24.975004 26.499996
v -88.900002 -25.050003 26.499996
v -88.879997 -25.125004 26.499996
v -88.824997 -25.180004 26.499996
v -88.750000 -25.200005 26.499996
v -88.675003 -25.180004 26.499996
v -88.620003 -25.125004 26.499996
v -88.599998 -25.050003 26.499996
v -88.620003 -24.975004 26.499996
v -88.675003 -24.920004 26.499996
v -88.750000 -25.200005 21.499996
v -88.675003 -25.180004 21.499996
v -88.620003 -25.125004 21.499996
v -88.824997 -25.180004 21.499996
v -88.879997 -25.125004 21.499996
v -88.900002 -25.050003 21.499996
v -88.879997 -24.975004 21.499996
v -88.824997 -24.920004 21.499996
v -88.750000 -24.900003 21.499996
v -88.675003 -24.920004 21.499996
v -88.620003 -24.975004 21.499996
v -88.599998 -25.050003 21.499996
v -45.500000 -26.000008 44.499996
v -45.500000 -26.000006 36.499996
v -45.500000 -25.000006 36.499996
v -45.500000 -25.000008 44.499996
v -88.750000 -24.900009 54.499996
v -88.675003 -24.920010 54.499996
v -88.620003 -24.975010 54.499996
v -88.599998 -25.050009 54.499996
v -88.620003 -25.125010 54.499996
v -88.675003 -25.180010 54.499996
v -46.500000 -26.000006 36.499996
v -46.500000 -26.000008 44.499996
v -46.500000 -25.000008 44.499996
v -46.500000 -25.000006 36.499996
v -88.750000 -24.900009 59.499996
v -88.675003 -25.180010 59.499996
v -88.620003 -25.125010 59.499996
v -88.599998 -25.050009 59.499996
v -88.620003 -24.975010 59.499996
v -88.675003 -24.920010 59.499996
v 100.000000 -35.000015 81.999992
v 100.000000 -35.000011 79.999992
v 100.000000 34.999989 80.000008
v 100.000000 34.999985 82.000008
v -100.000000 34.999985 82.000008
v -100.000000 34.999989 80.000008
v -100.000000 -35.000011 79.999992
v -100.000000 -35.000015 81.999992
v 90.000000 -25.000013 79.999992
v 90.000000 -25.000000 -0.000004
v 90.000000 35.000000 0.000006
v 90.000000 34.999989 80.000008
v 89.000000 -25.000000 -0.000004
v 89.000000 35.000000 0.000006
v -39.000000 34.000000 10.000006
v -89.000000 35.000000 10.000006
v 39.000000 34.000000 10.000006
v 89.000000 35.000000 10.000006
v 89.000000 -25.000011 69.999992
v 89.000000 -25.000002 10.999996
v 89.000000 -25.000002 9.999996
v 89.000000 -24.000011 69.999992
v 89.000000 34.000000 11.000006
v 89.000000 33.999989 80.000008
v 89.000000 -24.000013 79.999992
v -90.000000 34.999989 80.000008
v -90.000000 35.000000 0.000006
v -90.000000 -25.000000 -0.000004
v -90.000000 -25.000013 79.999992
v -89.000000 -25.000000 -0.000004
v -89.000000 35.000000 0.000006
v -89.000000 -25.000002 9.999996
v -89.000000 -25.000002 10.999996
v -89.000000 -25.000011 69.999992
v -89.000000 34.000000 11.000006
v -89.000000 -24.000011 69.999992
v -89.000000 33.999989 80.000008
v -89.000000 -24.000013 79.999992
v 39.000000 -25.000002 9.999996
v 39.000000 -25.000011 69.999992
v 39.000000 -24.000011 69.999992
v 39.000000 33.999989 80.000008
v -39.000000 -25.000002 9.999996
v 40.000000 34.000000 11.000006
v 40.000000 -24.000011 69.999992
v 40.000000 -25.000002 10.999996
v 40.000000 33.999989 80.000008
v 40.000000 -25.000011 69.999992
v 39.000000 -24.000013 79.999992
v -39.000000 -24.000013 79.999992
v -39.000000 33.999989 80.000008
v 40.000000 -24.000013 79.999992
v 40.500000 -25.000002 11.499996
v 40.500000 -25.000011 69.499992
v 40.500000 -24.000011 69.499992
v 40.500000 -24.000002 11.499996
v -40.000000 33.999989 80.000008
v -40.000000 -24.000013 79.999992
v -88.500000 -24.000002 11.499996
v -40.500000 -24.000002 11.499996
v -88.500000 -25.000002 11.499996
v -40.500000 -25.000002 11.499996
v 88.500000 -25.000011 69.499992
v 88.500000 -25.000002 11.499996
v 88.500000 -24.000002 11.499996
v 88.500000 -24.000011 69.499992
v -40.000000 -25.000011 69.999992
v -39.000000 -25.000011 69.999992
v -39.000000 -24.000011 69.999992
v -40.000000 -24.000011 69.999992
v -40.000000 -25.000002 10.999996
v -40.000000 34.000000 11.000006
v -40.500000 -25.000011 69.499992
v -40.500000 -24.000011 69.499992
v -88.500000 -25.000011 69.499992
v -88.500000 -24.000011 69.499992
vn 0.0000 0.0000 1.0000
vn -0.7070 0.7072 0.0000
vn -0.7072 0.7070 0.0000
vn -0.2577 -0.9662 0.0000
vn -0.9662 0.2576 0.0000
vn -0.9662 0.2578 0.0000
vn -0.7070 -0.7072 0.0000
vn -0.7072 -0.7070 0.0000
vn -0.9663 -0.2576 0.0000
vn -0.9662 -0.2577 0.0000
vn -0.2577 0.9662 0.0000
vn 0.2577 0.9662 0.0000
vn 0.7070 0.7072 0.0000
vn 0.7072 0.7070 0.0000
vn 0.9662 0.2576 0.0000
vn 0.9662 0.2578 0.0000
vn 0.9662 -0.2577 0.0000
vn 0.9663 -0.2576 0.0000
vn 0.7072 -0.7070 0.0000
vn 0.7070 -0.7072 0.0000
vn 0.2577 -0.9662 0.0000
vn 0.0000 0.0000 -1.0000
vn 0.0000 -1.0000 -0.0000
vn 0.0001 0.0000 -1.0000
vn -1.0000 0.0000 0.0000
vn 1.0000 0.0000 0.0000
vn -0.0002 0.0000 1.0000
vn 0.0001 0.0000 1.0000
vn -0.0001 0.0000 1.0000
vn 0.0002 0.0000 1.0000
vn -0.0001 0.0000 -1.0000
vn -0.0002 0.0000 -1.0000
vn 0.0002 0.0000 -1.0000
vn 0.0000 1.0000 0.0000
usemtl color_2829873
s off
f 1//1 2//1 3//1
f 1//1 3//1 4//1
f 1//1 4//1 5//1
f 1//1 5//1 6//1
f 1//1 6//1 7//1
f 1//1 7//1 8//1
f 1//1 8//1 9//1
f 1//1 9//1 10//1
f 1//1 10//1 11//1
f 1//1 11//1 12//1
f 13//2 14//2 15//2
f 13//3 15//3 16//3
f 12//4 17//4 18//4
f 12//4 18//4 1//4
f 14//5 19//5 20//5
f 14//6 20//6 15//6
f 11//7 21//7 17//7
f 11//8 17//8 12//8
f 20//9 19//9 22//9
f 20//10 22//10 23//10
f 10//9 24//9 21//9
f 10//10 21//10 11//10
f 22//8 25//8 26//8
f 22//7 26//7 23//7
f 9//6 27//6 24//6
f 9//5 24//5 10//5
f 28//4 29//4 26//4
f 28//4 26//4 25//4
f 8//3 30//3 27//3
f 8//2 27//2 9//2
f 7//11 31//11 30//11
f 7//11 30//11 8//11
f 6//12 32//12 31//12
f 6//12 31//12 7//12
f 6//13 5//13 33//13
f 6//14 33//14 32//14
f 5//15 4//15 34//15
f 5//16 34//16 33//16
f 3//17 35//17 34//17
f 3//18 34//18 4//18
f 3//19 2//19 36//19
f 3//20 36//20 35//20
f 2//21 1//21 18//21
f 2//21 18//21 36//21
f 37//22 38//22 39//22
f 37//22 39//22 40//22
f 41//23 38//23 37//23
f 41//23 37//23 42//23
f 30//24 31//24 27//24
f 24//22 27//22 31//22
f 24//22 31//22 32//22
f 24//22 32//22 33//22
f 24//22 33//22 34//22
f 24//22 34//22 35//22
f 24//22 35//22 36//22
f 24//22 36//22 18//22
f 17//24 21//24 18//24
f 24//22 18//22 21//22
f 43//22 44//22 45//22
f 46//22 45//22 44//22
f 46//24 44//24 47//24
f 46//22 47//22 48//22
f 46//22 48//22 49//22
f 46//22 49//22 50//22
f 46//22 50//22 51//22
f 46//24 51//24 52//24
f 53//22 54//22 52//22
f 46//22 52//22 54//22
f 38//25 41//25 55//25
f 38//25 55//25 39//25
f 42//26 37//26 40//26
f 42//26 40//26 56//26
f 57//27 58//27 59//27
f 57//1 59//1 60//1
f 57//28 60//28 61//28
f 57//1 61//1 62//1
f 57//1 62//1 63//1
f 57//1 63//1 64//1
f 57//1 64//1 65//1
f 57//29 65//29 66//29
f 57//1 66//1 67//1
f 57//30 67//30 68//30
f 56//1 55//1 41//1
f 56//1 41//1 42//1
f 69//1 70//1 71//1
f 69//1 71//1 72//1
f 69//1 72//1 73//1
f 69//1 73//1 74//1
f 69//1 74//1 75//1
f 69//1 75//1 76//1
f 69//1 76//1 77//1
f 69//1 77//1 78//1
f 69//1 78//1 79//1
f 69//1 79//1 80//1
f 68//4 53//4 52//4
f 68//4 52//4 57//4
f 75//21 81//21 82//21
f 75//21 82//21 76//21
f 67//7 54//7 53//7
f 67//8 53//8 68//8
f 82//20 83//20 77//20
f 82//19 77//19 76//19
f 81//24 84//24 85//24
f 81//22 85//22 86//22
f 81//22 86//22 87//22
f 81//22 87//22 88//22
f 81//22 88//22 89//22
f 81//22 89//22 90//22
f 81//22 90//22 91//22
f 81//22 91//22 92//22
f 81//22 92//22 83//22
f 81//31 83//31 82//31
f 66//9 46//9 54//9
f 66//10 54//10 67//10
f 83//18 92//18 78//18
f 83//17 78//17 77//17
f 65//6 45//6 46//6
f 65//5 46//5 66//5
f 92//16 91//16 79//16
f 92//15 79//15 78//15
f 64//3 43//3 45//3
f 64//2 45//2 65//2
f 91//14 90//14 80//14
f 91//13 80//13 79//13
f 93//26 94//26 95//26
f 93//26 95//26 96//26
f 63//11 44//11 43//11
f 63//11 43//11 64//11
f 28//32 25//32 22//32
f 28//22 22//22 19//22
f 28//24 19//24 14//24
f 28//22 14//22 13//22
f 28//22 13//22 97//22
f 28//22 97//22 98//22
f 28//22 98//22 99//22
f 28//31 99//31 100//31
f 28//22 100//22 101//22
f 28//33 101//33 102//33
f 103//25 104//25 105//25
f 103//25 105//25 106//25
f 90//12 89//12 69//12
f 90//12 69//12 80//12
f 62//12 47//12 44//12
f 62//12 44//12 63//12
f 96//1 105//1 104//1
f 96//1 104//1 93//1
f 89//11 88//11 70//11
f 89//11 70//11 69//11
f 94//22 103//22 106//22
f 94//22 106//22 95//22
f 62//13 61//13 48//13
f 62//14 48//14 47//14
f 104//23 103//23 94//23
f 104//23 94//23 93//23
f 88//2 87//2 71//2
f 88//3 71//3 70//3
f 61//15 60//15 49//15
f 61//16 49//16 48//16
f 107//30 16//30 15//30
f 107//1 15//1 20//1
f 107//29 20//29 23//29
f 107//1 23//1 26//1
f 107//1 26//1 29//1
f 107//1 29//1 108//1
f 107//1 108//1 109//1
f 107//28 109//28 110//28
f 107//1 110//1 111//1
f 107//27 111//27 112//27
f 87//5 86//5 72//5
f 87//6 72//6 71//6
f 59//17 50//17 49//17
f 59//18 49//18 60//18
f 29//21 28//21 102//21
f 29//21 102//21 108//21
f 72//9 86//9 85//9
f 72//10 85//10 73//10
f 59//19 58//19 51//19
f 59//20 51//20 50//20
f 102//20 101//20 109//20
f 102//19 109//19 108//19
f 85//8 84//8 74//8
f 85//7 74//7 73//7
f 58//21 57//21 52//21
f 58//21 52//21 51//21
f 81//4 75//4 74//4
f 81//4 74//4 84//4
f 101//18 100//18 110//18
f 101//17 110//17 109//17
f 100//16 99//16 111//16
f 100//15 111//15 110//15
f 99//14 98//14 112//14
f 99//13 112//13 111//13
f 98//12 97//12 107//12
f 98//12 107//12 112//12
f 97//11 13//11 16//11
f 97//11 16//11 107//11
usemtl color_14541540
f 113//26 114//26 115//26
f 113//26 115//26 116//26
f 117//25 118//25 119//25
f 117//25 119//25 120//25
f 116//1 117//1 120//1
f 116//1 120//1 113//1
f 121//26 122//26 123//26
f 121//26 123//26 124//26
f 122//22 125//22 126//22
f 122//22 126//22 123//22
f 127//22 128//22 129//22
f 128//22 130//22 129//22
f 121//23 131//23 132//23
f 133//23 122//23 132//23
f 125//23 122//23 133//23
f 121//23 132//23 122//23
f 126//34 130//34 123//34
f 124//34 123//34 130//34
f 125//25 130//25 126//25
f 133//25 130//25 125//25
f 131//25 134//25 132//25
f 135//25 132//25 134//25
f 135//25 134//25 136//25
f 137//25 136//25 134//25
f 138//25 139//25 140//25
f 138//25 140//25 141//25
f 142//22 140//22 139//22
f 142//22 139//22 143//22
f 142//23 144//23 140//23
f 144//23 145//23 140//23
f 141//23 140//23 145//23
f 141//23 145//23 146//23
f 143//34 139//34 128//34
f 139//34 138//34 128//34
f 143//26 128//26 142//26
f 144//26 142//26 128//26
f 128//34 138//34 130//34
f 124//34 130//34 138//34
f 147//26 148//26 145//26
f 149//26 148//26 147//26
f 146//26 145//26 148//26
f 149//26 150//26 148//26
f 124//22 115//22 121//22
f 114//22 121//22 115//22
f 130//22 133//22 129//22
f 138//22 141//22 118//22
f 119//22 118//22 141//22
f 151//25 152//25 153//25
f 154//25 129//25 153//25
f 151//22 129//22 133//22
f 151//25 153//25 129//25
f 155//22 144//22 127//22
f 121//22 114//22 141//22
f 119//22 141//22 114//22
f 128//22 127//22 144//22
f 156//26 157//26 158//26
f 159//26 157//26 156//26
f 160//26 158//26 157//26
f 154//22 161//22 162//22
f 154//22 162//22 163//22
f 151//23 158//23 152//23
f 160//23 152//23 158//23
f 136//22 164//22 159//22
f 137//22 164//22 136//22
f 151//23 133//23 158//23
f 165//25 166//25 167//25
f 165//25 167//25 168//25
f 169//22 170//22 150//22
f 169//22 150//22 149//22
f 158//1 132//1 156//1
f 135//1 156//1 132//1
f 171//22 172//22 173//22
f 174//22 173//22 172//22
f 120//23 119//23 114//23
f 120//23 114//23 113//23
f 116//34 115//34 124//34
f 116//34 124//34 138//34
f 118//34 117//34 138//34
f 116//34 138//34 117//34
f 132//23 158//23 133//23
f 175//26 176//26 177//26
f 175//26 177//26 178//26
f 166//23 165//23 39//23
f 166//23 39//23 55//23
f 141//23 146//23 179//23
f 141//23 179//23 180//23
f 141//23 180//23 152//23
f 160//23 121//23 152//23
f 131//23 121//23 160//23
f 141//23 152//23 121//23
f 178//1 167//1 166//1
f 178//1 166//1 175//1
f 154//25 153//25 161//25
f 175//23 56//23 40//23
f 175//23 40//23 176//23
f 164//26 157//26 159//26
f 166//23 55//23 56//23
f 166//23 56//23 175//23
f 162//26 181//26 163//26
f 169//25 182//25 170//25
f 176//23 40//23 165//23
f 39//23 165//23 40//23
f 161//34 153//34 181//34
f 161//34 181//34 162//34
f 178//34 177//34 168//34
f 178//34 168//34 167//34
f 165//22 168//22 176//22
f 176//22 168//22 177//22
f 180//26 155//26 181//26
f 163//26 181//26 127//26
f 155//26 127//26 181//26
f 157//34 164//34 134//34
f 137//34 134//34 164//34
f 183//25 179//25 182//25
f 169//25 184//25 182//25
f 183//25 182//25 184//25
f 180//23 179//23 183//23
f 183//1 184//1 147//1
f 180//23 183//23 155//23
f 185//26 174//26 172//26
f 185//26 172//26 186//26
f 150//34 170//34 148//34
f 182//34 148//34 170//34
f 129//23 154//23 163//23
f 129//23 163//23 127//23
f 95//23 174//23 96//23
f 185//23 96//23 174//23
f 106//23 105//23 173//23
f 187//23 173//23 105//23
f 96//23 185//23 105//23
f 187//23 105//23 185//23
f 173//23 174//23 106//23
f 95//23 106//23 174//23
f 186//34 172//34 171//34
f 186//34 171//34 188//34
f 152//22 180//22 181//22
f 152//22 181//22 153//22
f 183//1 147//1 145//1
f 131//22 160//22 134//22
f 155//23 183//23 144//23
f 145//23 144//23 183//23
f 134//22 160//22 157//22
f 188//25 171//25 173//25
f 188//25 173//25 187//25
f 146//22 148//22 179//22
f 187//1 185//1 188//1
f 186//1 188//1 185//1
f 182//22 179//22 148//22
f 135//23 136//23 159//23
f 135//23 159//23 156//23
f 147//23 184//23 149//23
f 169//23 149//23 184//23
