# Blender v2.91.2 OBJ File: ''
# www.blender.org
mtllib Trash Can.mtl
o obj_0.001
v 12.500000 -12.500000 1.999998
v 12.500000 -12.500000 -0.000002
v 12.500000 12.500000 0.000002
v 12.500000 12.500000 2.000002
v -12.500000 12.500000 2.000002
v -12.500000 12.500000 0.000002
v -12.500000 -12.500000 -0.000002
v -12.500000 -12.500000 1.999998
v 15.000000 -15.000007 41.999996
v 15.000000 -15.000007 41.943096
v 15.000000 14.998993 41.943104
v 15.000000 14.999993 41.963104
v 15.000000 14.999993 42.000004
v -15.000000 14.999993 42.000004
v -15.000000 14.999993 41.963104
v -15.000000 -15.000007 41.963097
v -15.000000 -15.000007 41.999996
v -14.502000 14.501993 41.943905
v -14.502000 14.501993 42.000004
v -14.502000 -14.502007 41.943897
v -14.502000 -14.503007 41.964195
v -14.502000 -14.503007 41.999996
v 14.503000 14.501993 42.000004
v 14.503000 14.501993 41.964203
v 14.503000 -14.503007 41.964195
v 14.503000 -14.503007 41.999996
v -12.997100 12.997100 2.000002
v 12.998100 12.997100 2.000002
v -12.997100 -12.998100 1.999998
v -14.999000 -15.000007 41.943096
v 12.998100 -12.998100 1.999998
v 12.566100 -12.566100 2.497998
v -12.566100 -12.566100 2.497998
v 12.566100 12.566100 2.498002
v 14.502000 14.501993 41.943905
v -12.566100 12.566100 2.498002
vn 1.0000 0.0000 0.0000
vn -1.0000 0.0000 0.0000
vn 0.0000 0.0000 -1.0000
vn 0.0000 -1.0000 0.0000
vn 0.0000 1.0000 0.0000
vn 0.0000 0.0000 1.0000
vn 0.0000 0.9987 -0.0501
vn 0.0000 0.9987 -0.0500
vn 0.0000 -0.9987 -0.0501
vn 0.0000 0.9988 0.0490
vn 0.0000 0.9988 0.0493
vn 0.0000 -0.9988 0.0490
vn 0.9988 0.0000 0.0490
vn -0.9988 0.0000 0.0492
vn -0.9988 -0.0000 0.0490
vn 0.0000 -1.0000 0.0001
vn 0.9987 0.0000 -0.0501
vn -0.9987 0.0000 -0.0501
vn -0.9988 0.0000 -0.0499
usemtl color_2829873.001
s off
f 1//1 2//1 3//1
f 1//1 3//1 4//1
f 5//2 6//2 7//2
f 5//2 7//2 8//2
f 2//3 7//3 6//3
f 2//3 6//3 3//3
f 8//4 7//4 2//4
f 8//4 2//4 1//4
f 4//5 3//5 6//5
f 4//5 6//5 5//5
usemtl color_12568524
f 9//1 10//1 11//1
f 9//1 11//1 12//1
f 9//1 12//1 13//1
f 14//2 15//2 16//2
f 14//2 16//2 17//2
f 18//1 19//1 20//1
f 21//1 20//1 19//1
f 21//1 19//1 22//1
f 23//6 13//6 19//6
f 24//2 25//2 26//2
f 24//2 26//2 23//2
f 17//6 9//6 22//6
f 14//6 17//6 19//6
f 22//6 19//6 17//6
f 14//6 19//6 13//6
f 26//6 9//6 23//6
f 26//6 22//6 9//6
f 13//6 23//6 9//6
f 27//7 15//7 28//7
f 11//7 28//7 15//7
f 12//8 11//8 15//8
f 29//3 8//3 1//3
f 5//3 27//3 4//3
f 10//4 9//4 30//4
f 17//4 16//4 9//4
f 16//4 30//4 9//4
f 14//5 13//5 12//5
f 14//5 12//5 15//5
f 30//9 29//9 31//9
f 32//10 33//10 25//10
f 20//10 25//10 33//10
f 21//11 25//11 20//11
f 34//12 35//12 18//12
f 34//12 18//12 36//12
f 36//13 18//13 20//13
f 36//13 20//13 33//13
f 24//14 35//14 25//14
f 35//15 34//15 25//15
f 32//15 25//15 34//15
f 19//4 18//4 35//4
f 19//16 35//16 24//16
f 19//4 24//4 23//4
f 26//5 25//5 21//5
f 26//5 21//5 22//5
f 34//6 36//6 33//6
f 34//6 33//6 32//6
f 31//3 1//3 28//3
f 29//3 1//3 31//3
f 1//3 4//3 28//3
f 5//3 8//3 27//3
f 28//3 4//3 27//3
f 29//3 27//3 8//3
f 11//17 31//17 28//17
f 30//9 31//9 10//9
f 10//17 31//17 11//17
f 15//18 27//18 30//18
f 29//18 30//18 27//18
f 15//19 30//19 16//19
