# Blender v3.4.0 OBJ File: ''
# www.blender.org
mtllib IR sensor.mtl
o obj_0.007
v 0.000000 -1.000000 0.500000
v -1.000000 -1.000000 0.500000
v 0.000000 -1.000000 -0.500000
v -1.000000 -1.000000 -0.500000
v 0.000000 1.000000 0.500000
v 0.000000 1.000000 -0.500000
v -1.000000 1.000000 -0.500000
v -1.000000 1.000000 0.500000
v 0.000000 -0.803000 -0.000000
v 0.000000 -0.201000 0.500000
v -0.603000 0.595000 0.288000
v -0.603000 0.678000 0.245000
v 0.000000 0.595000 0.288000
v 0.000000 0.409000 0.288000
v 0.000000 0.502000 0.302000
v 0.000000 0.258000 0.178000
v 0.000000 0.325000 0.245000
v 0.000000 0.745000 0.178000
v 0.000000 0.678000 0.245000
v -0.603000 0.745000 0.178000
v 0.000000 -0.325000 -0.245000
v -0.603000 -0.409000 -0.288000
v 0.000000 -0.409000 -0.288000
v -0.603000 -0.325000 -0.245000
v 0.000000 0.201000 0.000000
v 0.000000 0.202800 0.012000
v 0.000000 -0.202800 0.012000
v 0.000000 -0.201000 -0.000000
v 0.000000 -0.215000 -0.093000
v 0.000000 0.215000 -0.093000
v 0.000000 0.215000 0.093000
v 0.000000 -0.215000 0.093000
v 0.000000 -0.258000 0.178000
v 0.000000 0.788000 0.093000
v -0.603000 0.788000 0.093000
v 0.000000 -0.502000 0.302000
v -0.603000 -0.409000 0.288000
v 0.000000 -0.409000 0.288000
v -0.603000 -0.502000 0.302000
v -0.603000 0.802000 0.000000
v 0.000000 0.321200 -0.303000
v 0.000000 0.502000 -0.303000
v -0.603000 0.215000 0.093000
v -0.600000 0.215000 0.093000
v -0.600000 0.202800 0.012000
v 0.000000 0.802000 0.000000
v 0.000000 0.788000 -0.093000
v -0.603000 0.258000 0.178000
v 0.000000 -0.502000 -0.303000
v -0.603000 -0.502000 -0.303000
v 0.000000 -0.595000 0.288000
v 0.000000 -0.325000 0.245000
v 0.000000 -0.788000 -0.093000
v 0.000000 -0.788000 0.093000
v 0.000000 -0.745000 0.178000
v 0.000000 -0.678000 0.245000
v -0.603000 -0.595000 -0.288000
v 0.000000 -0.595000 -0.288000
v -0.603000 0.325000 0.245000
v -0.603000 -0.325000 0.245000
v -0.603000 0.409000 0.288000
v -0.603000 -0.258000 0.178000
v 0.000000 0.409000 -0.288000
v -0.603000 0.409000 -0.288000
v -0.603000 0.502000 0.302000
v -0.603000 0.502000 -0.303000
v -0.600000 -0.215000 0.093000
v -0.603000 -0.215000 0.093000
v -0.603000 0.201000 0.000000
v -0.600000 -0.202800 0.012000
v 0.000000 0.325000 -0.245000
v -0.603000 0.325000 -0.245000
v -0.603000 0.788000 -0.093000
v -0.603000 0.215000 -0.093000
v -0.603000 0.258000 -0.178000
v -0.603000 0.595000 -0.288000
v -0.603000 0.678000 -0.245000
v -0.603000 0.745000 -0.178000
v 0.000000 0.258000 -0.178000
v -0.603000 -0.788000 0.093000
v -0.600000 0.215000 -0.093000
v -0.603000 -0.201000 -0.000000
v -0.600000 -0.201000 -0.000000
v -0.603000 -0.745000 0.178000
v -0.600000 -0.215000 -0.093000
v -0.603000 -0.215000 -0.093000
v -0.600000 0.201000 0.000000
v -0.603000 -0.258000 -0.178000
v -0.603000 -0.678000 0.245000
v 0.000000 -0.258000 -0.178000
v -0.603000 -0.595000 0.288000
v 0.000000 -0.678000 -0.245000
v 0.000000 -0.745000 -0.178000
v -0.603000 -0.678000 -0.245000
v -0.603000 -0.803000 -0.000000
v -0.603000 -0.788000 -0.093000
v -0.603000 -0.745000 -0.178000
v 0.000000 0.745000 -0.178000
v 0.000000 0.595000 -0.288000
v 0.000000 0.678000 -0.245000
v 0.000000 -0.257000 0.176000
v 0.000000 -0.324000 0.243000
v 0.000000 -0.407000 0.285000
v 0.000000 -0.500000 0.300000
v 0.000000 -0.593000 0.285000
v 0.000000 -0.676000 0.243000
v 0.000000 -0.743000 0.176000
v 0.000000 -0.785000 0.093000
v -0.600000 -0.257000 0.176000
v -0.600000 -0.324000 0.243000
v -0.600000 -0.407000 0.285000
v -0.600000 -0.500000 0.300000
v -0.600000 -0.257000 -0.176000
v -0.600000 -0.324000 -0.243000
v -0.600000 -0.407000 -0.285000
v -0.600000 -0.500000 -0.300000
v -0.600000 -0.593000 -0.285000
v -0.600000 -0.676000 -0.243000
v -0.600000 -0.743000 -0.176000
v -0.600000 -0.785000 -0.093000
v -0.600000 -0.800000 -0.000000
v 0.000000 -0.800000 -0.000000
v 0.000000 -0.785000 -0.093000
v 0.000000 -0.743000 -0.176000
v 0.000000 -0.676000 -0.243000
v 0.000000 -0.593000 -0.285000
v 0.000000 -0.500000 -0.300000
v 0.000000 -0.407000 -0.285000
v 0.000000 -0.324000 -0.243000
v 0.000000 -0.257000 -0.176000
v -0.600000 0.743000 0.176000
v -0.600000 0.676000 0.243000
v -0.600000 0.785000 0.093000
v -0.600000 0.593000 0.285000
v -0.600000 0.407000 0.285000
v -0.600000 0.500000 0.300000
v -0.600000 0.257000 0.176000
v -0.600000 0.324000 0.243000
v 0.000000 0.500000 0.300000
v 0.000000 0.407000 0.285000
v 0.000000 0.324000 0.243000
v 0.000000 0.257000 0.176000
v 0.000000 0.743000 0.176000
v 0.000000 0.785000 0.093000
v 0.000000 0.800000 0.000000
v 0.000000 0.785000 -0.093000
v 0.000000 0.257000 -0.176000
v 0.000000 0.324000 -0.243000
v 0.000000 0.407000 -0.285000
v 0.000000 0.500000 -0.300000
v 0.000000 0.593000 -0.285000
v 0.000000 0.676000 -0.243000
v 0.000000 0.743000 -0.176000
v 0.000000 0.676000 0.243000
v 0.000000 0.593000 0.285000
v -0.600000 0.800000 0.000000
v -0.600000 0.785000 -0.093000
v -0.600000 0.743000 -0.176000
v -0.600000 0.676000 -0.243000
v -0.600000 0.593000 -0.285000
v -0.600000 0.500000 -0.300000
v -0.600000 0.407000 -0.285000
v -0.600000 0.324000 -0.243000
v -0.600000 0.257000 -0.176000
v -0.600000 -0.676000 0.243000
v -0.600000 -0.593000 0.285000
v -0.600000 -0.743000 0.176000
v -0.600000 -0.785000 0.093000
vn 0.0000 -1.0000 -0.0000
vn 0.0000 1.0000 0.0000
vn 1.0000 0.0000 0.0000
vn 0.0000 -0.0000 1.0000
vn 0.0000 -0.3086 -0.9512
vn 0.0000 -0.5905 -0.8070
vn 0.0000 0.0000 -1.0000
vn 0.0000 -0.8099 -0.5866
vn 0.0000 -0.5885 0.8085
vn 0.0000 -0.3113 0.9503
vn 0.0000 -0.9527 -0.3040
vn -1.0000 -0.0000 0.0000
vn 0.0000 -0.3063 -0.9519
vn 0.0000 0.9527 -0.3040
vn 0.0000 0.9350 -0.3546
vn 0.0019 0.9889 -0.1488
vn 0.0000 0.8923 -0.4514
vn 0.0000 0.8099 -0.5866
vn 0.0000 0.3136 0.9496
vn 0.0000 0.5885 -0.8085
vn 0.0000 -0.5885 -0.8085
vn 0.0000 0.3063 -0.9519
vn 0.0000 0.3113 0.9503
vn 0.0000 -0.9350 -0.3546
vn 0.0000 -0.8923 -0.4514
vn 0.0019 -0.9889 -0.1488
vn 0.0000 0.5885 0.8085
vn 0.0000 0.8099 0.5866
vn 0.0000 0.9511 -0.3090
vn 0.0000 0.9527 0.3040
vn 0.0000 0.9350 0.3546
vn 0.0002 -1.0000 0.0002
vn 0.0000 -1.0000 0.0003
vn 0.0000 0.8923 0.4514
vn 0.0000 -0.9350 0.3546
vn 0.0000 -0.9527 0.3040
vn 0.0002 1.0000 0.0002
vn 0.0000 1.0000 0.0003
vn 0.0000 -0.8099 0.5866
vn 0.0000 0.5905 -0.8070
vn 0.0000 -0.8923 0.4514
vn 0.0000 0.3086 -0.9512
vn 0.0000 0.5905 0.8070
vn 0.0000 0.9511 0.3090
vn 0.0000 -0.5905 0.8070
vn 0.0000 -0.3136 0.9496
vn 0.0000 0.8098 0.5867
vn 0.0000 0.8923 0.4515
vn 0.0000 0.5867 0.8098
vn 0.0000 0.3090 0.9510
vn 0.0000 -0.9510 0.3090
vn 0.0000 -0.9510 -0.3090
vn 0.0000 -0.8098 -0.5867
vn 0.0000 -0.5867 -0.8098
vn 0.0000 -0.3090 -0.9510
vn 0.0000 0.3090 -0.9510
vn 0.0000 0.5867 -0.8098
vn 0.0000 0.8098 -0.5867
vn 0.0000 0.8923 -0.4515
vn 0.0000 -0.3090 0.9510
vn 0.0000 -0.5867 0.8098
vn 0.0000 -0.8098 0.5867
vn 0.0000 -0.8923 0.4515
vn 0.0000 0.9510 0.3090
vn 0.0000 -0.8923 -0.4515
vn 0.0000 0.9510 -0.3090
usemtl color_65793.002
s 1
f 1//1 2//1 3//1
f 4//1 3//1 2//1
f 5//2 6//2 7//2
f 5//2 7//2 8//2
f 1//3 3//3 9//3
f 1//4 10//4 2//4
f 5//4 8//4 10//4
f 2//4 10//4 8//4
f 11//5 12//6 13//5
f 7//7 3//7 4//7
f 14//3 15//3 10//3
f 5//3 10//3 15//3
f 16//3 17//3 10//3
f 18//8 19//6 20//8
f 19//6 12//6 20//8
f 17//3 14//3 10//3
f 19//3 5//3 13//3
f 18//3 5//3 19//3
f 21//9 22//10 23//10
f 24//9 22//10 21//9
f 25//3 26//3 27//3
f 28//3 25//3 27//3
f 25//3 29//3 30//3
f 26//3 31//3 32//3
f 33//3 32//3 31//3
f 10//3 33//3 31//3
f 16//3 10//3 31//3
f 34//11 20//8 35//11
f 18//8 20//8 34//11
f 3//7 7//7 6//7
f 4//12 2//12 7//12
f 8//12 7//12 2//12
f 36//7 37//13 38//13
f 36//7 39//7 37//13
f 40//1 34//11 35//11
f 3//3 6//3 41//3
f 42//3 41//3 6//3
f 43//14 44//15 45//16
f 18//3 34//3 5//3
f 5//3 34//3 46//3
f 47//3 6//3 46//3
f 5//3 46//3 6//3
f 31//17 44//15 16//18
f 48//18 16//18 44//15
f 23//10 22//10 49//4
f 22//10 50//4 49//4
f 10//3 1//3 36//3
f 43//14 48//18 44//15
f 51//3 36//3 1//3
f 38//3 10//3 36//3
f 10//3 38//3 52//3
f 33//3 10//3 52//3
f 32//3 27//3 26//3
f 53//3 9//3 3//3
f 1//3 9//3 54//3
f 1//3 54//3 55//3
f 1//3 55//3 56//3
f 56//3 51//3 1//3
f 57//19 58//19 50//4
f 16//18 59//20 17//20
f 48//18 59//20 16//18
f 38//13 60//21 52//21
f 38//13 37//13 60//21
f 17//20 61//22 14//22
f 59//20 61//22 17//20
f 52//21 60//21 33//8
f 62//8 33//8 60//21
f 63//23 42//4 64//23
f 14//22 65//7 15//7
f 66//4 64//23 42//4
f 67//24 62//8 68//11
f 61//22 65//7 14//22
f 33//8 62//8 67//24
f 33//8 67//24 32//25
f 43//3 69//3 40//3
f 70//26 67//24 68//11
f 63//23 64//23 71//27
f 72//27 71//27 64//23
f 73//3 40//3 69//3
f 73//3 69//3 74//3
f 73//3 74//3 75//3
f 73//3 75//3 72//3
f 73//3 72//3 64//3
f 73//3 64//3 66//3
f 73//3 66//3 76//3
f 73//3 76//3 77//3
f 73//3 77//3 78//3
f 79//28 71//27 75//28
f 72//27 75//28 71//27
f 54//29 9//2 80//29
f 74//30 81//31 75//28
f 68//11 82//32 70//26
f 83//33 70//26 82//32
f 20//3 40//3 35//3
f 12//3 40//3 20//3
f 40//3 12//3 11//3
f 40//3 11//3 65//3
f 40//3 65//3 61//3
f 40//3 61//3 59//3
f 40//3 59//3 48//3
f 40//3 48//3 43//3
f 55//18 54//29 84//18
f 80//29 84//18 54//29
f 30//34 79//28 81//31
f 75//28 81//31 79//28
f 85//35 83//33 82//32
f 85//35 82//32 86//36
f 69//37 87//38 81//31
f 69//37 81//31 74//30
f 86//36 88//39 85//35
f 87//38 69//37 45//16
f 43//14 45//16 69//37
f 28//3 29//3 25//3
f 55//18 89//40 56//40
f 85//35 88//39 90//39
f 41//3 79//3 90//3
f 29//3 90//3 79//3
f 84//18 89//40 55//18
f 29//41 85//35 90//39
f 21//3 41//3 90//3
f 23//3 41//3 21//3
f 24//9 90//39 88//39
f 56//40 91//42 51//42
f 49//3 3//3 23//3
f 90//39 24//9 21//9
f 89//40 91//42 56//40
f 58//3 3//3 49//3
f 58//3 92//3 3//3
f 93//3 53//3 3//3
f 41//3 23//3 3//3
f 93//3 3//3 92//3
f 49//4 50//4 58//19
f 51//42 39//7 36//7
f 91//42 39//7 51//42
f 58//19 94//43 92//43
f 57//19 94//43 58//19
f 68//3 89//3 82//3
f 82//3 95//3 96//3
f 82//3 96//3 97//3
f 82//3 97//3 94//3
f 82//3 94//3 57//3
f 82//3 57//3 50//3
f 82//3 50//3 22//3
f 82//3 22//3 24//3
f 82//3 24//3 88//3
f 82//3 88//3 86//3
f 98//3 6//3 47//3
f 92//43 97//28 93//28
f 94//43 97//28 92//43
f 99//3 6//3 100//3
f 68//3 62//3 60//3
f 68//3 60//3 37//3
f 68//3 37//3 39//3
f 68//3 39//3 91//3
f 68//3 91//3 89//3
f 84//3 82//3 89//3
f 80//3 82//3 84//3
f 95//3 82//3 80//3
f 42//3 6//3 99//3
f 98//3 100//3 6//3
f 93//28 96//44 53//44
f 63//3 41//3 42//3
f 97//28 96//44 93//28
f 41//3 63//3 71//3
f 15//7 65//7 13//5
f 79//3 41//3 71//3
f 11//5 13//5 65//7
f 53//44 96//44 9//2
f 30//3 29//3 79//3
f 95//2 9//2 96//44
f 19//6 13//5 12//6
f 80//29 9//2 95//2
f 13//3 5//3 15//3
f 34//11 40//1 46//1
f 40//1 73//36 46//1
f 47//36 46//1 73//36
f 47//36 73//36 98//39
f 78//39 98//39 73//36
f 98//39 77//45 100//45
f 98//39 78//39 77//45
f 100//45 77//45 99//46
f 76//46 99//46 77//45
f 76//46 66//4 99//46
f 42//4 99//46 66//4
usemtl color_1650274.002
f 27//3 32//3 101//3
f 27//3 101//3 102//3
f 27//3 102//3 103//3
f 27//3 103//3 104//3
f 27//3 104//3 105//3
f 27//3 105//3 106//3
f 27//3 106//3 107//3
f 27//3 107//3 108//3
f 109//47 101//47 32//48
f 109//47 32//48 67//48
f 110//49 102//49 101//47
f 110//49 101//47 109//47
f 111//50 103//50 102//49
f 111//50 102//49 110//49
f 104//4 103//50 111//50
f 104//4 111//50 112//4
f 85//12 113//12 83//12
f 113//12 114//12 83//12
f 114//12 115//12 83//12
f 115//12 116//12 83//12
f 116//12 117//12 83//12
f 117//12 118//12 83//12
f 118//12 119//12 83//12
f 119//12 120//12 83//12
f 70//12 83//12 120//12
f 70//12 120//12 121//12
f 121//1 122//1 108//51
f 121//1 120//52 123//52
f 121//1 123//52 122//1
f 120//52 119//53 124//53
f 120//52 124//53 123//52
f 119//53 118//54 125//54
f 119//53 125//54 124//53
f 118//54 117//55 126//55
f 118//54 126//55 125//54
f 117//55 116//7 127//7
f 117//55 127//7 126//55
f 116//7 115//56 128//56
f 116//7 128//56 127//7
f 115//56 114//57 129//57
f 115//56 129//57 128//56
f 113//58 130//58 129//57
f 113//58 129//57 114//57
f 85//59 29//59 130//58
f 85//59 130//58 113//58
f 108//3 122//3 27//3
f 122//3 123//3 27//3
f 28//3 27//3 123//3
f 28//3 123//3 124//3
f 28//3 124//3 125//3
f 28//3 125//3 126//3
f 28//3 126//3 127//3
f 28//3 127//3 128//3
f 28//3 128//3 129//3
f 28//3 129//3 130//3
f 28//3 130//3 29//3
f 131//12 45//12 132//12
f 133//12 45//12 131//12
f 132//12 45//12 134//12
f 44//12 135//12 45//12
f 134//12 45//12 136//12
f 137//12 135//12 44//12
f 138//12 135//12 137//12
f 136//12 45//12 135//12
f 139//4 136//4 135//60
f 139//4 135//60 140//60
f 135//60 138//61 141//61
f 135//60 141//61 140//60
f 138//61 137//62 142//62
f 138//61 142//62 141//61
f 137//62 44//63 31//63
f 137//62 31//63 142//62
f 131//47 143//47 144//64
f 131//47 144//64 133//64
f 144//3 26//3 145//3
f 146//3 145//3 26//3
f 146//3 26//3 25//3
f 146//3 25//3 30//3
f 146//3 30//3 147//3
f 146//3 147//3 148//3
f 146//3 148//3 149//3
f 146//3 149//3 150//3
f 146//3 150//3 151//3
f 152//3 153//3 151//3
f 146//3 151//3 153//3
f 132//49 154//49 143//47
f 132//49 143//47 131//47
f 134//50 155//50 154//49
f 134//50 154//49 132//49
f 139//4 155//50 134//50
f 139//4 134//50 136//4
f 133//12 156//12 157//12
f 133//12 157//12 158//12
f 133//12 158//12 159//12
f 133//12 159//12 160//12
f 133//12 160//12 161//12
f 133//12 161//12 162//12
f 133//12 162//12 163//12
f 133//12 163//12 164//12
f 133//12 164//12 81//12
f 133//12 81//12 87//12
f 133//12 87//12 45//12
f 30//65 81//65 164//53
f 30//65 164//53 147//53
f 164//53 163//54 148//54
f 164//53 148//54 147//53
f 154//3 155//3 143//3
f 144//3 143//3 155//3
f 144//3 155//3 139//3
f 144//3 139//3 140//3
f 144//3 140//3 141//3
f 144//3 141//3 142//3
f 144//3 142//3 31//3
f 144//3 31//3 26//3
f 163//54 162//55 149//55
f 163//54 149//55 148//54
f 162//55 161//7 150//7
f 162//55 150//7 149//55
f 165//12 166//12 167//12
f 168//12 167//12 166//12
f 121//12 168//12 166//12
f 121//12 166//12 112//12
f 121//12 112//12 111//12
f 121//12 111//12 110//12
f 121//12 110//12 109//12
f 121//12 109//12 67//12
f 121//12 67//12 70//12
f 161//7 160//56 151//56
f 161//7 151//56 150//7
f 104//4 112//4 166//60
f 104//4 166//60 105//60
f 160//56 159//57 152//57
f 160//56 152//57 151//56
f 166//60 165//61 106//61
f 166//60 106//61 105//60
f 158//58 153//58 152//57
f 158//58 152//57 159//57
f 165//61 167//62 107//62
f 165//61 107//62 106//61
f 157//66 146//66 153//58
f 157//66 153//58 158//58
f 167//62 168//51 108//51
f 167//62 108//51 107//62
f 156//2 145//2 146//66
f 156//2 146//66 157//66
f 168//51 121//1 108//51
f 156//2 133//64 145//2
f 144//64 145//2 133//64
