# Blender v3.4.0 OBJ File: ''
# www.blender.org
mtllib Source.mtl
o obj_0.006
v 26.000000 -25.000000 -0.000004
v 16.003000 -25.000008 44.002995
v 16.003000 -25.000000 -0.000004
v -16.002001 -25.000000 -0.000004
v -16.002001 -25.000008 44.002995
v -26.000000 -25.000000 -0.000004
v -26.000000 -25.000010 53.999996
v 26.000000 -25.000010 53.999996
v 16.003000 15.002993 44.003002
v -16.002001 15.002993 44.003002
v -26.000000 25.000000 0.000004
v 26.000000 25.000000 0.000004
v -16.002001 15.003000 0.000002
v 16.003000 15.003000 0.000002
v 26.000000 24.999990 54.000004
v -26.000000 24.999990 54.000004
vn -0.0000 -1.0000 -0.0000
vn 0.0000 0.0000 -1.0000
vn 0.0000 1.0000 0.0000
vn -1.0000 0.0000 0.0000
vn 0.0000 -0.0000 1.0000
vn 1.0000 -0.0000 0.0000
usemtl color_6383466.005
s 1
f 1//1 2//1 3//1
f 4//1 5//1 6//1
f 7//1 6//1 5//1
f 2//1 8//1 5//1
f 1//1 8//1 2//1
f 7//1 5//1 8//1
f 9//2 2//2 5//2
f 9//2 5//2 10//2
f 11//2 12//2 13//2
f 14//2 13//2 12//2
f 15//3 12//3 11//3
f 15//3 11//3 16//3
f 16//4 6//4 7//4
f 8//5 15//5 16//5
f 8//5 16//5 7//5
f 2//4 9//4 14//4
f 2//4 14//4 3//4
f 16//4 11//4 6//4
f 10//6 5//6 4//6
f 10//6 4//6 13//6
f 12//2 1//2 14//2
f 3//2 14//2 1//2
f 6//2 11//2 13//2
f 6//2 13//2 4//2
f 15//6 1//6 12//6
f 14//1 9//1 10//1
f 14//1 10//1 13//1
f 8//6 1//6 15//6
