# Blender 4.0.1
# www.blender.org
mtllib Table.mtl
o obj_0
v -0.900000 0.330167 0.710000
v -0.900000 0.330167 0.670000
v -0.900000 -0.330167 0.670000
v -0.900000 -0.330167 0.710000
v 0.800000 0.279913 0.100000
v 0.900000 0.330167 0.670000
v 0.900000 0.330167 0.710000
v 0.900000 -0.330167 0.710000
v 0.900000 -0.330167 0.670000
v 0.800000 -0.108523 0.347250
v 0.800000 -0.108350 0.347250
v -0.800000 -0.133350 0.353848
v 0.800000 -0.279913 0.100000
v -0.850167 0.380000 0.710000
v -0.875010 0.373340 0.710000
v -0.893340 0.355010 0.710000
v -0.800000 -0.108350 0.347150
v 0.800000 0.255000 0.093152
v -0.893340 -0.355010 0.710000
v -0.875010 -0.373340 0.710000
v -0.850167 -0.380000 0.710000
v 0.800000 0.280000 0.100000
v 0.800000 0.280000 -0.000000
v 0.800000 0.255000 -0.000000
v -0.825000 0.108350 0.347150
v -0.825000 0.108523 0.347250
v 0.893340 0.355010 0.710000
v 0.875010 0.373340 0.710000
v 0.850167 0.380000 0.710000
v 0.800000 -0.255000 0.093152
v -0.825000 0.108350 0.347250
v -0.825000 0.108350 0.668950
v -0.825000 0.133350 0.668950
v 0.850167 -0.380000 0.710000
v 0.875010 -0.373340 0.710000
v 0.893340 -0.355010 0.710000
v 0.800000 -0.255000 0.000000
v 0.800000 -0.280000 0.000000
v 0.800000 -0.280000 0.100000
v -0.802500 0.180000 0.273630
v -0.802500 0.180000 0.273050
v -0.822500 0.180000 0.273050
v -0.822500 0.180000 0.273630
v 0.835000 -0.315000 0.340000
v 0.835000 0.330000 0.340000
v 0.802500 0.179665 0.273630
v 0.850000 0.330000 0.340000
v 0.802500 0.180000 0.273050
v -0.835000 0.330000 0.340000
v -0.835000 -0.315000 0.340000
v -0.850000 0.330000 0.340000
v 0.850000 0.330000 0.669000
v 0.850000 -0.330000 0.669000
v 0.850000 -0.330000 0.340000
v -0.850000 0.330000 0.669000
v 0.802500 0.162345 0.253630
v 0.802500 0.150798 0.273630
v -0.850000 -0.330000 0.340000
v -0.850000 -0.330000 0.669000
v 0.835000 0.330000 0.669000
v 0.835000 -0.315000 0.669000
v 0.802500 -0.180000 0.273050
v 0.802500 -0.179665 0.273630
v -0.835000 -0.315000 0.669000
v -0.835000 0.330000 0.669000
v -0.825000 0.133350 0.353848
v 0.802500 -0.150798 0.273630
v 0.802500 -0.162345 0.253630
v 0.825000 0.279913 0.100000
v 0.825000 -0.279913 0.100000
v 0.825000 0.255000 0.093152
v 0.825000 0.255000 -0.000000
v 0.825000 0.280000 -0.000000
v 0.825000 0.280000 0.100000
v 0.825000 -0.255000 0.093152
v 0.825000 -0.280000 0.100000
v 0.825000 -0.280000 0.000000
v 0.825000 -0.255000 0.000000
v 0.825000 0.108523 0.347250
v 0.825000 0.108350 0.347150
v 0.822500 0.180000 0.273050
v 0.822500 0.179665 0.273630
v 0.825000 0.133350 0.668950
v 0.825000 0.108350 0.668950
v 0.825000 0.108350 0.347250
v 0.822500 0.150798 0.273630
v 0.822500 0.162345 0.253630
v 0.825000 0.133350 0.353848
v 0.822500 -0.179665 0.273630
v 0.822500 -0.180000 0.273050
v 0.825000 -0.108350 0.347250
v 0.825000 -0.108350 0.668950
v 0.825000 -0.133350 0.668950
v 0.825000 -0.108523 0.347250
v 0.825000 -0.133350 0.353848
v 0.825000 -0.108350 0.347150
v 0.822500 -0.162345 0.253630
v 0.822500 -0.150798 0.273630
v 0.802500 0.180000 0.273630
v -0.825000 -0.133350 0.668950
v -0.825000 -0.108350 0.668950
v -0.825000 -0.108350 0.347250
v -0.825000 -0.108523 0.347250
v 0.802500 -0.180000 0.273630
v -0.825000 -0.133350 0.353848
v -0.825000 -0.108350 0.347150
v 0.822500 0.180000 0.273630
v 0.822500 -0.180000 0.273630
v 0.800000 -0.133350 0.668950
v 0.800000 0.133350 0.668950
v -0.822500 -0.150798 0.273630
v -0.822500 -0.162345 0.253630
v 0.800000 0.108350 0.668950
v 0.800000 0.108350 0.347250
v 0.800000 0.133350 0.353848
v -0.825000 0.280000 0.100000
v -0.825000 0.279913 0.100000
v -0.825000 -0.279913 0.100000
v -0.825000 -0.280000 0.100000
v -0.825000 0.255000 -0.000000
v -0.825000 0.280000 -0.000000
v 0.800000 -0.108350 0.668950
v -0.825000 -0.280000 0.000000
v -0.825000 -0.255000 0.000000
v 0.800000 -0.108350 0.347150
v 0.800000 -0.133350 0.353848
v -0.825000 0.255000 0.093152
v -0.825000 -0.255000 0.093152
v -0.822500 0.179665 0.273630
v -0.822500 0.150798 0.273630
v -0.822500 0.162345 0.253630
v -0.822500 -0.180000 0.273050
v -0.822500 -0.180000 0.273630
v -0.822500 -0.179665 0.273630
v -0.802500 0.179665 0.273630
v -0.802500 0.150798 0.273630
v -0.802500 -0.179665 0.273630
v -0.802500 -0.150798 0.273630
v -0.802500 -0.180000 0.273630
v -0.802500 0.162345 0.253630
v 0.800000 0.108350 0.347150
v 0.800000 0.108523 0.347250
v -0.800000 0.108523 0.347250
v -0.800000 0.108350 0.347150
v -0.802500 -0.162345 0.253630
v -0.800000 0.133350 0.668950
v -0.800000 0.108350 0.668950
v -0.800000 0.108350 0.347250
v -0.800000 0.133350 0.353848
v -0.800000 -0.108350 0.347250
v -0.800000 -0.108350 0.668950
v -0.800000 -0.133350 0.668950
v -0.800000 -0.108523 0.347250
v -0.802500 -0.180000 0.273050
v -0.800000 0.279913 0.100000
v -0.800000 -0.279913 0.100000
v -0.800000 0.255000 0.093152
v -0.800000 0.255000 -0.000000
v -0.800000 0.280000 -0.000000
v -0.800000 0.280000 0.100000
v -0.893340 0.355010 0.670000
v -0.875010 0.373340 0.670000
v -0.850167 0.380000 0.670000
v -0.800000 -0.255000 0.093152
v -0.800000 -0.280000 0.100000
v -0.800000 -0.280000 0.000000
v -0.800000 -0.255000 0.000000
v -0.850167 -0.380000 0.670000
v -0.875010 -0.373340 0.670000
v -0.893340 -0.355010 0.670000
v 0.850167 0.380000 0.670000
v 0.875010 0.373340 0.670000
v 0.893340 0.355010 0.670000
v 0.893340 -0.355010 0.670000
v 0.875010 -0.373340 0.670000
v 0.850167 -0.380000 0.670000
vn -1.0000 -0.0000 -0.0000
vn -1.0000 -0.0001 -0.0000
vn -0.0000 1.0000 -0.0000
vn -0.0000 0.8660 0.5000
vn 0.0039 0.8663 0.4995
vn 0.0003 -0.8660 -0.5000
vn -0.0000 -0.8660 -0.5000
vn -0.0001 -0.8660 -0.5000
vn -0.0000 -0.8660 0.5000
vn 0.0039 -0.8663 0.4995
vn 1.0000 -0.0000 -0.0000
vn -0.0000 0.8660 -0.5000
vn 0.0002 0.8660 -0.5000
vn -0.0001 0.8660 -0.5000
vn -0.0000 -0.0000 1.0000
vn -0.0036 0.8650 0.5017
vn -0.0003 -0.8660 -0.5000
vn 0.0001 -0.8660 -0.5000
vn -0.0036 -0.8650 0.5017
vn 0.0001 0.8660 -0.5000
vn -0.0002 0.8660 -0.5000
vn -0.0000 -0.0000 -1.0000
vn -0.0000 -1.0000 -0.0000
vn -0.0000 -0.5004 0.8658
vn -0.0000 0.5004 0.8658
vn -1.0000 0.0002 -0.0000
vn -1.0000 0.0001 -0.0000
vn 1.0000 -0.0001 -0.0000
vn -1.0000 -0.0004 -0.0000
vn 0.0039 0.8655 0.5010
vn -0.0036 0.8662 0.4997
vn 1.0000 -0.0004 -0.0000
vn -0.0039 -0.8663 0.4995
vn 0.0036 -0.8650 0.5017
vn -0.9914 0.1306 -0.0000
vn -0.9914 -0.1306 -0.0000
vn 0.9914 -0.1306 -0.0000
vn 0.9914 0.1306 -0.0000
vn 0.1306 0.9914 -0.0000
vn -0.1306 0.9914 -0.0000
vn 0.1306 -0.9914 -0.0000
vn -0.1306 -0.9914 -0.0000
vn -0.5001 0.8660 -0.0000
vn -0.8660 0.5001 -0.0000
vn -0.5001 -0.8660 -0.0000
vn -0.8660 -0.5001 -0.0000
vn 0.5001 0.8660 -0.0000
vn 0.8660 0.5001 -0.0000
vn 0.5001 -0.8660 -0.0000
vn 0.8660 -0.5001 -0.0000
s 1
usemtl color_2829873.026
f 13//1 126//1 30//1
f 126//1 10//2 30//1
f 24//1 18//1 23//1
f 18//1 5//1 23//1
f 22//1 23//1 5//1
f 117//1 127//1 66//1
f 31//1 32//1 26//1
f 37//1 38//1 30//1
f 13//1 30//1 38//1
f 39//1 13//1 38//1
f 40//3 41//3 42//3
f 40//3 42//3 43//3
f 115//4 46//5 48//4
f 115//4 48//4 5//4
f 57//6 141//7 56//8
f 90//9 62//9 13//9
f 126//9 13//9 62//9
f 126//9 62//9 63//10
f 33//1 66//1 32//1
f 69//11 88//11 71//11
f 125//12 67//13 68//14
f 125//12 68//14 30//12
f 74//15 22//15 5//15
f 72//11 73//11 71//11
f 74//11 69//11 73//11
f 71//11 73//11 69//11
f 96//11 94//11 75//11
f 78//11 75//11 77//11
f 75//11 70//11 77//11
f 76//11 77//11 70//11
f 80//11 71//11 79//11
f 82//16 88//4 81//4
f 74//3 73//3 22//3
f 85//11 79//11 84//11
f 79//11 88//11 84//11
f 80//7 86//17 87//18
f 80//7 87//18 71//7
f 83//11 84//11 88//11
f 79//11 71//11 88//11
f 89//19 90//9 95//9
f 70//9 95//9 90//9
f 13//9 70//9 90//9
f 93//11 95//11 92//11
f 91//11 92//11 94//11
f 69//4 5//4 81//4
f 94//11 92//11 95//11
f 95//11 75//11 94//11
f 70//11 75//11 95//11
f 96//12 97//20 98//21
f 46//1 99//1 48//1
f 26//1 32//1 66//1
f 68//1 57//1 56//1
f 70//15 13//15 76//15
f 102//1 103//1 101//1
f 103//1 105//1 101//1
f 62//1 104//1 63//1
f 100//1 101//1 105//1
f 77//22 37//22 78//22
f 106//1 128//1 103//1
f 68//1 67//1 57//1
f 115//4 82//16 46//5
f 89//19 126//9 63//10
f 67//13 125//12 98//21
f 107//15 99//15 46//15
f 107//15 46//15 82//15
f 148//22 31//22 26//22
f 37//3 75//3 78//3
f 89//15 63//15 104//15
f 89//15 104//15 108//15
f 81//11 107//11 82//11
f 67//15 98//15 57//15
f 86//15 57//15 98//15
f 148//23 32//23 31//23
f 89//11 108//11 90//11
f 87//18 56//8 71//7
f 86//11 98//11 97//11
f 97//11 87//11 86//11
f 48//4 81//4 5//4
f 115//1 5//1 18//1
f 71//7 56//8 18//7
f 97//20 30//12 68//14
f 96//12 75//12 97//20
f 106//12 111//13 112//14
f 106//12 112//14 128//12
f 74//15 5//15 69//15
f 39//15 76//15 13//15
f 23//22 73//22 24//22
f 72//22 24//22 73//22
f 77//22 38//22 37//22
f 77//23 76//23 38//23
f 39//23 38//23 76//23
f 23//3 22//3 73//3
f 71//23 24//23 72//23
f 122//15 93//15 92//15
f 142//24 80//24 79//24
f 129//1 43//1 42//1
f 142//22 79//22 114//22
f 85//22 114//22 79//22
f 57//6 86//17 80//7
f 132//1 133//1 134//1
f 94//22 10//22 91//22
f 111//1 130//1 112//1
f 131//1 112//1 130//1
f 10//22 11//22 91//22
f 84//23 114//23 85//23
f 88//3 115//3 83//3
f 110//3 83//3 115//3
f 84//23 113//23 114//23
f 69//4 81//4 88//4
f 82//16 115//4 88//4
f 92//3 91//3 122//3
f 40//15 43//15 129//15
f 40//15 129//15 135//15
f 96//25 10//25 94//25
f 109//23 95//23 93//23
f 137//15 134//15 133//15
f 137//15 133//15 139//15
f 122//3 91//3 11//3
f 136//15 130//15 111//15
f 136//15 111//15 138//15
f 96//25 125//25 10//25
f 109//23 126//23 95//23
f 89//19 95//9 126//9
f 96//12 98//21 125//12
f 18//1 141//26 142//27
f 18//1 142//27 115//1
f 164//12 128//12 145//20
f 112//14 145//20 128//12
f 110//1 115//1 113//1
f 114//1 113//1 142//27
f 148//11 143//11 147//11
f 143//11 149//11 147//11
f 142//27 113//1 115//1
f 160//15 116//15 117//15
f 146//11 147//11 149//11
f 144//11 157//11 143//11
f 11//1 10//2 122//1
f 10//2 126//1 122//1
f 152//11 12//11 151//11
f 150//11 151//11 153//28
f 125//29 30//1 10//2
f 109//1 122//1 126//1
f 124//22 167//22 123//22
f 166//22 123//22 167//22
f 153//28 151//11 12//11
f 12//11 164//11 153//28
f 119//23 123//23 166//23
f 83//15 110//15 113//15
f 83//15 113//15 84//15
f 33//15 32//15 146//15
f 160//3 121//3 116//3
f 122//15 109//15 93//15
f 142//24 141//24 80//24
f 143//24 26//24 144//24
f 80//7 141//7 57//6
f 18//7 56//8 141//7
f 157//23 127//23 120//23
f 148//22 26//22 143//22
f 153//22 103//22 150//22
f 24//23 71//23 18//23
f 145//22 131//22 140//22
f 75//12 30//12 97//20
f 30//3 75//3 37//3
f 131//22 145//22 112//22
f 118//9 156//9 132//9
f 87//22 68//22 56//22
f 133//23 132//23 154//23
f 133//23 154//23 139//23
f 97//22 68//22 87//22
f 147//15 146//15 32//15
f 104//23 62//23 90//23
f 104//23 90//23 108//23
f 100//15 152//15 101//15
f 151//15 101//15 152//15
f 25//24 144//24 26//24
f 107//3 81//3 48//3
f 107//3 48//3 99//3
f 129//30 149//4 135//31
f 143//11 157//11 149//11
f 155//11 149//11 157//11
f 25//7 130//6 144//7
f 12//11 156//11 164//11
f 17//32 153//28 164//11
f 102//22 150//22 103//22
f 158//11 159//11 157//11
f 159//11 155//11 157//11
f 160//11 155//11 159//11
f 167//11 164//11 166//11
f 164//11 156//11 166//11
f 165//11 166//11 156//11
f 155//4 41//4 149//4
f 135//31 149//4 41//4
f 144//7 136//17 140//18
f 140//18 131//8 127//7
f 144//7 140//18 157//7
f 12//9 137//33 154//9
f 154//9 132//9 156//9
f 12//9 154//9 156//9
f 103//25 153//25 106//25
f 17//25 106//25 153//25
f 157//7 140//18 127//7
f 164//12 145//20 17//12
f 17//12 145//20 138//21
f 32//23 148//23 147//23
f 117//15 155//15 160//15
f 66//3 33//3 149//3
f 146//3 149//3 33//3
f 119//15 165//15 118//15
f 156//15 118//15 165//15
f 121//22 159//22 120//22
f 158//22 120//22 159//22
f 102//3 101//3 150//3
f 151//3 150//3 101//3
f 152//23 100//23 105//23
f 152//23 105//23 12//23
f 119//23 166//23 165//23
f 12//9 134//34 137//33
f 134//34 12//9 105//9
f 160//3 159//3 121//3
f 17//12 138//21 106//12
f 138//21 111//13 106//12
f 158//23 157//23 120//23
f 124//3 128//3 167//3
f 164//3 167//3 128//3
f 41//11 40//11 135//11
f 136//11 145//11 140//11
f 137//11 139//11 154//11
f 136//11 138//11 145//11
f 25//1 26//1 127//1
f 26//1 66//1 127//1
f 105//1 128//1 118//1
f 103//1 128//1 105//1
f 120//1 127//1 121//1
f 117//1 121//1 127//1
f 116//1 121//1 117//1
f 123//1 118//1 128//1
f 124//1 123//1 128//1
f 119//1 118//1 123//1
f 66//4 149//4 129//30
f 66//4 129//30 42//4
f 41//4 155//4 42//4
f 66//4 42//4 117//4
f 127//7 131//8 25//7
f 131//8 130//6 25//7
f 136//17 144//7 130//6
f 118//9 132//9 105//9
f 134//34 105//9 132//9
f 117//4 42//4 155//4
usemtl color_6383466.005
f 47//22 44//22 45//22
f 49//22 50//22 51//22
f 53//11 47//11 52//11
f 47//11 53//11 54//11
f 55//1 51//1 59//1
f 54//22 44//22 47//22
f 59//1 51//1 58//1
f 52//15 60//15 61//15
f 52//15 61//15 53//15
f 64//15 65//15 55//15
f 64//15 55//15 59//15
f 64//15 59//15 61//15
f 53//15 61//15 59//15
f 50//22 44//22 54//22
f 51//22 50//22 58//22
f 58//22 50//22 54//22
f 59//23 58//23 54//23
f 59//23 54//23 53//23
f 47//3 45//3 60//3
f 47//3 60//3 52//3
f 65//3 49//3 51//3
f 65//3 51//3 55//3
f 44//3 50//3 64//3
f 60//1 45//1 44//1
f 60//1 44//1 61//1
f 64//11 50//11 49//11
f 64//11 49//11 65//11
f 64//3 61//3 44//3
usemtl color_14541540.010
f 1//35 2//35 3//36
f 1//35 3//36 4//36
f 8//37 9//37 6//38
f 8//37 6//38 7//38
f 1//15 34//15 16//15
f 19//15 20//15 4//15
f 21//15 4//15 20//15
f 1//15 4//15 34//15
f 21//15 34//15 4//15
f 29//15 7//15 28//15
f 8//15 14//15 36//15
f 27//15 28//15 7//15
f 7//15 14//15 8//15
f 35//15 36//15 14//15
f 14//15 7//15 29//15
f 15//15 34//15 14//15
f 35//15 14//15 34//15
f 15//15 16//15 34//15
f 163//22 2//22 162//22
f 170//22 3//22 169//22
f 168//22 169//22 3//22
f 2//22 163//22 3//22
f 161//22 162//22 2//22
f 6//22 172//22 173//22
f 172//22 6//22 171//22
f 9//22 174//22 175//22
f 175//22 176//22 9//22
f 9//22 163//22 6//22
f 176//22 163//22 9//22
f 168//22 3//22 163//22
f 168//22 163//22 176//22
f 171//22 6//22 163//22
f 29//39 171//39 163//40
f 29//39 163//40 14//40
f 34//41 168//42 176//41
f 21//42 168//42 34//41
f 163//40 162//43 15//43
f 163//40 15//43 14//40
f 161//44 16//44 15//43
f 161//44 15//43 162//43
f 2//35 1//35 16//44
f 2//35 16//44 161//44
f 21//42 20//45 169//45
f 21//42 169//45 168//42
f 19//46 170//46 169//45
f 19//46 169//45 20//45
f 4//36 3//36 170//46
f 4//36 170//46 19//46
f 29//39 28//47 172//47
f 29//39 172//47 171//39
f 27//48 173//48 172//47
f 27//48 172//47 28//47
f 7//38 6//38 173//48
f 7//38 173//48 27//48
f 176//41 175//49 35//49
f 176//41 35//49 34//41
f 174//50 36//50 35//49
f 174//50 35//49 175//49
f 9//37 8//37 36//50
f 9//37 36//50 174//50
