# Blender 5.0.0
# www.blender.org
mtllib boxes2.mtl
o cardboxes02
v 14.600008 19.599998 1.800000
v 14.000009 19.599998 1.800000
v 14.000009 19.000000 1.800000
v 14.600008 19.000000 1.800000
v 14.600005 19.599998 1.200000
v 15.200006 19.599998 1.800000
v 15.800003 19.600000 1.200000
v 15.800005 19.600000 1.800000
v 15.200006 19.000000 1.800000
v 15.800003 19.000000 1.200000
v 15.800005 19.000000 1.800000
v 12.200006 19.600000 0.000000
v 12.200006 19.000000 0.000000
v 12.200005 19.000000 0.600000
v 12.800004 19.000000 0.000000
v 12.800004 19.000000 0.600000
v 13.400004 19.599998 0.000000
v 13.400004 19.599998 0.600000
v 13.400004 19.000000 0.000000
v 13.400004 19.000000 0.600000
v 12.800004 19.599998 0.000000
v 12.800004 19.599998 0.600000
v 14.000004 19.599998 0.600000
v 14.000004 19.000000 0.000000
v 14.000004 19.000000 0.600000
v 14.600003 19.599998 0.000000
v 14.600002 19.599998 0.600000
v 14.000004 19.599998 0.000000
v 14.600003 19.000000 0.000000
v 14.600002 19.000000 0.600000
v 15.200002 19.000000 0.000000
v 15.200002 19.000000 0.600000
v 15.200002 19.599998 0.000000
v 15.200002 19.599998 0.600000
v 15.800001 18.999998 0.000000
v 15.800003 19.599997 0.000000
v 15.800003 19.599998 0.600000
v 12.200004 19.000000 1.200000
v 12.200005 19.599998 0.600000
v 12.200004 19.599998 1.200000
v 12.800004 19.000000 1.200000
v 12.800004 19.599998 1.200000
v 13.400003 19.600000 1.200000
v 14.000006 19.599998 1.200000
v 13.400003 19.000000 1.200000
v 14.000006 19.000000 1.200000
v 15.200005 19.599998 1.200000
v 14.600005 19.000000 1.200000
v 15.200005 19.000000 1.200000
v 15.800001 19.000000 0.600000
vn -0.0000 -1.0000 -0.0000
vn -1.0000 -0.0000 -0.0000
vn -0.0000 1.0000 -0.0000
vn -0.0000 -0.0000 1.0000
vn 1.0000 -0.0000 -0.0000
vt 0.352785 0.742752
vt 0.352785 0.415274
vt 0.664612 0.415274
vt 0.664612 0.742752
vt 0.332068 0.424195
vt -0.001100 0.424195
vt -0.001100 -0.000087
vt 0.332068 -0.000087
vt 0.352785 0.415274
vt 0.352785 0.742751
vt 0.040958 0.742751
vt 0.040958 0.415274
vt 0.682676 0.422961
vt 1.003567 0.422961
vt 1.003567 0.847243
vt 0.682676 0.847243
vt 0.643240 -0.000087
vt 0.964130 -0.000087
vt 0.964130 0.424195
vt 0.643240 0.424195
s 0
usemtl box_00.011
f 48/1/1 4/2/1 3/3/1 46/4/1
f 46/5/2 3/6/2 2/7/2 44/8/2
f 44/9/3 2/10/3 1/11/3 5/12/3
f 3/13/4 4/14/4 1/15/4 2/16/4
f 5/1/3 1/2/3 6/3/3 47/4/3
f 49/9/1 9/10/1 4/11/1 48/12/1
f 6/13/4 1/14/4 4/15/4 9/16/4
f 47/17/3 6/18/3 8/19/3 7/20/3
f 7/1/5 8/2/5 11/3/5 10/4/5
f 10/5/1 11/6/1 9/7/1 49/8/1
f 11/13/4 8/14/4 6/15/4 9/16/4
usemtl box_00.013
f 12/17/3 39/18/3 22/19/3 21/20/3
f 15/5/1 16/6/1 14/7/1 13/8/1
f 13/9/2 14/10/2 39/11/2 12/12/2
f 19/1/1 20/2/1 16/3/1 15/4/1
f 21/9/3 22/10/3 18/11/3 17/12/3
f 17/17/3 18/18/3 23/19/3 28/20/3
f 24/5/1 25/6/1 20/7/1 19/8/1
f 29/17/1 30/18/1 25/19/1 24/20/1
f 28/5/3 23/6/3 27/7/3 26/8/3
f 26/17/3 27/18/3 34/19/3 33/20/3
f 31/5/1 32/6/1 30/7/1 29/8/1
f 33/1/3 34/2/3 37/3/3 36/4/3
f 36/5/5 37/6/5 50/7/5 35/8/5
f 35/9/1 50/10/1 32/11/1 31/12/1
usemtl box_00.012
f 14/17/2 38/18/2 40/19/2 39/20/2
f 39/1/3 40/2/3 42/3/3 22/4/3
f 16/9/1 41/10/1 38/11/1 14/12/1
f 42/13/4 40/14/4 38/15/4 41/16/4
f 22/17/3 42/18/3 43/19/3 18/20/3
f 20/5/1 45/6/1 41/7/1 16/8/1
f 45/13/4 43/14/4 42/15/4 41/16/4
f 18/17/3 43/18/3 44/19/3 23/20/3
f 25/5/1 46/6/1 45/7/1 20/8/1
f 46/13/4 44/14/4 43/15/4 45/16/4
f 23/17/3 44/18/3 5/19/3 27/20/3
f 30/5/1 48/6/1 46/7/1 25/8/1
f 27/17/3 5/18/3 47/19/3 34/20/3
f 32/5/1 49/6/1 48/7/1 30/8/1
f 34/17/3 47/18/3 7/19/3 37/20/3
f 37/1/5 7/2/5 10/3/5 50/4/5
f 50/5/1 10/6/1 49/7/1 32/8/1
