# Blender 5.0.0
# www.blender.org
mtllib boxes.mtl
o cardboxes01
v -14.600001 18.999998 2.400000
v -15.200000 18.999998 2.400000
v -14.600004 19.599998 1.800000
v -14.600001 19.599998 2.400000
v -15.200000 19.599998 2.400000
v -15.800001 19.600000 0.000000
v -15.800001 19.000000 0.000000
v -15.800002 19.000000 0.600000
v -15.200003 19.000000 0.000000
v -15.200003 19.000000 0.600000
v -15.200003 19.599998 0.000000
v -15.200003 19.599998 0.600000
v -14.000002 19.599998 0.000000
v -14.000002 19.599998 0.600000
v -14.000002 19.000000 0.000000
v -14.000002 19.000000 0.600000
v -14.600002 19.599998 0.000000
v -14.600002 19.599998 0.600000
v -14.600002 19.000000 0.000000
v -13.400003 19.000000 0.000000
v -13.400003 19.000000 0.600000
v -12.800005 19.599998 0.000000
v -12.800006 19.599998 0.600000
v -13.400003 19.599998 0.000000
v -13.400003 19.599998 0.600000
v -12.200006 19.600000 0.000000
v -12.800005 19.000000 0.000000
v -12.800006 19.000000 0.600000
v -12.200006 19.000000 0.000000
v -15.200002 19.599998 1.200000
v -15.800002 19.599998 0.600000
v -15.800002 19.599998 1.200000
v -14.600002 19.000000 0.600000
v -14.600002 19.000000 1.200000
v -14.000003 19.000000 1.200000
v -13.400002 19.599998 1.200000
v -13.400002 19.000000 1.200000
v -14.000003 19.599998 1.200000
v -12.800005 19.000000 1.200000
v -12.200006 19.599998 0.600000
v -12.200006 19.599998 1.200000
v -12.200006 19.000000 0.600000
v -12.200006 19.000000 1.200000
v -12.800005 19.599998 1.200000
v -15.800001 19.600000 1.800000
v -15.200001 19.599998 1.800000
v -15.800002 19.000000 1.200000
v -15.800001 19.000000 1.800000
v -15.200003 19.000000 1.200000
v -15.200001 19.000000 1.800000
v -14.600004 19.000000 1.800000
v -14.600003 19.599998 1.200000
v -14.000004 19.000000 1.800000
v -14.000004 19.599998 1.800000
v 14.600008 19.599998 1.800000
v 14.000009 19.599998 1.800000
v 14.000009 19.000000 1.800000
v 14.600008 19.000000 1.800000
v 14.600005 19.599998 1.200000
v 15.200006 19.599998 1.800000
v 15.800003 19.600000 1.200000
v 15.800005 19.600000 1.800000
v 15.200006 19.000000 1.800000
v 15.800003 19.000000 1.200000
v 15.800005 19.000000 1.800000
v 12.200006 19.600000 0.000000
v 12.200006 19.000000 0.000000
v 12.200005 19.000000 0.600000
v 12.800004 19.000000 0.000000
v 12.800004 19.000000 0.600000
v 13.400004 19.599998 0.000000
v 13.400004 19.599998 0.600000
v 13.400004 19.000000 0.000000
v 13.400004 19.000000 0.600000
v 12.800004 19.599998 0.000000
v 12.800004 19.599998 0.600000
v 14.000004 19.599998 0.600000
v 14.000004 19.000000 0.000000
v 14.000004 19.000000 0.600000
v 14.600003 19.599998 0.000000
v 14.600002 19.599998 0.600000
v 14.000004 19.599998 0.000000
v 14.600003 19.000000 0.000000
v 14.600002 19.000000 0.600000
v 15.200002 19.000000 0.000000
v 15.200002 19.000000 0.600000
v 15.200002 19.599998 0.000000
v 15.200002 19.599998 0.600000
v 15.800001 18.999998 0.000000
v 15.800003 19.599997 0.000000
v 15.800003 19.599998 0.600000
v 12.200004 19.000000 1.200000
v 12.200005 19.599998 0.600000
v 12.200004 19.599998 1.200000
v 12.800004 19.000000 1.200000
v 12.800004 19.599998 1.200000
v 13.400003 19.600000 1.200000
v 14.000006 19.599998 1.200000
v 13.400003 19.000000 1.200000
v 14.000006 19.000000 1.200000
v 15.200005 19.599998 1.200000
v 14.600005 19.000000 1.200000
v 15.200005 19.000000 1.200000
v 15.800001 19.000000 0.600000
vn -0.0000 -1.0000 -0.0000
vn -1.0000 -0.0000 -0.0000
vn -0.0000 1.0000 -0.0000
vn 1.0000 -0.0000 -0.0000
vn -0.0000 -0.0000 1.0000
vt 0.668647 0.001274
vt 0.668647 0.331274
vt 0.338324 0.331274
vt 0.338324 0.001274
vt 0.998324 0.661274
vt 0.998324 0.991274
vt 0.668324 0.991274
vt 0.668324 0.661274
vt 0.668324 0.661274
vt 0.338324 0.661274
vt 0.338324 0.331274
vt 0.668324 0.331274
vt 0.668647 0.331274
vt 0.668647 0.661274
vt 0.338324 0.661274
vt 0.338324 0.331274
vt 0.338647 0.991274
vt 0.338647 0.661274
vt 0.668647 0.661274
vt 0.668647 0.991274
vt 0.998324 0.661274
vt 0.998324 0.991274
vt 0.668324 0.991274
vt 0.998324 0.001274
vt 0.998324 0.331274
vt 0.668324 0.331274
vt 0.668324 0.001274
vt 0.338324 0.661274
vt 0.338324 0.991274
vt 0.008324 0.991274
vt 0.008324 0.661274
vt 0.338324 0.001274
vt 0.338324 0.331274
vt 0.008324 0.331274
vt 0.008324 0.001274
vt 0.998324 0.661274
vt 0.998324 0.991274
vt 0.668647 0.991274
vt 0.668648 0.991274
vt 0.338648 0.991274
vt 0.338647 0.661274
vt 0.668324 0.661274
vt 0.668324 0.991274
vt 0.338324 0.991274
vt 0.338324 0.661274
vt 0.998324 0.001274
vt 0.998324 0.331274
vt 0.668324 0.331274
vt 0.668324 0.001274
vt 0.338647 0.661274
vt 0.338647 0.991274
vt 0.008648 0.991274
vt 0.008647 0.661274
vt 0.338324 0.001274
vt 0.338324 0.331274
vt 0.008324 0.331274
vt 0.008324 0.001274
vt 0.338324 0.331274
vt 0.338324 0.661274
vt 0.008324 0.661274
vt 0.008324 0.331274
vt 0.998324 0.331274
vt 0.668324 0.661274
vt 0.668324 0.331274
vt 0.338324 0.331274
vt 0.338324 0.661274
vt 0.008324 0.661274
vt 0.008324 0.331274
vt 0.668324 0.331274
vt 0.338324 0.661274
vt 0.338324 0.331274
vt 0.668324 0.661274
vt 0.338324 0.661274
vt 0.338324 0.331274
vt 0.668647 0.331274
vt 0.668647 0.661274
vt 0.338324 0.661274
vt 0.338324 0.331274
vt 0.668324 0.331274
vt 0.668325 0.661274
vt 0.338324 0.331274
vt 0.668324 0.001274
vt 0.338324 0.331274
vt 0.338324 0.001274
vt 0.338324 0.001274
vt 0.338324 0.331274
vt 0.008324 0.331274
vt 0.008324 0.001274
vt 0.998324 0.001274
vt 0.668647 0.001274
vt 0.668647 0.331274
vt 0.668324 0.991274
vt 0.668324 0.661274
vt 0.668324 0.331274
vt 0.668324 0.661274
vt 0.338324 0.661274
vt 0.338324 0.331274
vt 0.338324 0.661274
vt 0.338324 0.991274
vt 0.008647 0.991274
vt 0.338324 0.331274
vt 0.338324 0.661274
vt 0.008324 0.661274
vt 0.008324 0.331274
vt 0.998324 0.001274
vt 0.998324 0.331274
vt 0.668324 0.331274
vt 0.668324 0.001274
vt 0.668324 0.661274
vt 0.668324 0.991274
vt 0.338647 0.991274
vt 0.998324 0.331274
vt 0.998324 0.661274
vt 0.668647 0.331274
vt 0.338001 0.001274
vt 0.338001 0.331274
vt 0.008324 0.331274
vt 0.338324 0.001274
vt 0.338324 0.331274
vt 0.008324 0.331274
vt 0.008324 0.001274
vt 0.668324 0.661274
vt 0.668324 0.991274
vt 0.668647 0.001274
vt 0.338324 0.331274
vt 0.338324 0.001274
vt 0.338324 0.001274
vt 0.338324 0.331274
vt 0.008324 0.331274
vt 0.008324 0.001274
vt 0.338647 0.991274
vt 0.008647 0.991274
vt 0.008647 0.661274
vt 0.338324 0.991274
vt 0.008324 0.991274
vt 0.998324 0.331274
vt 0.668324 0.331274
vt 0.668324 0.001274
vt 0.338324 0.001274
vt 0.338324 0.331274
vt 0.008324 0.331274
vt 0.008324 0.001274
vt 0.338324 0.331274
vt 0.008324 0.331274
vt 0.008324 0.001274
vt 0.338324 0.661274
vt 0.998324 0.991274
vt 0.668324 0.991274
vt 0.668324 0.661274
vt 0.998324 0.661274
vt 0.668028 -0.001828
vt 0.668030 0.328172
vt 0.338030 0.328171
vt 0.338028 -0.001828
vt 0.998027 0.328172
vt 0.998027 0.658172
vt 0.668028 0.658172
vt 0.668028 0.328172
vt 0.338028 -0.001828
vt 0.338026 0.328172
vt 0.008031 0.328172
vt 0.008032 -0.001828
vt 0.338030 0.658172
vt 0.668027 0.658172
vt 0.668027 0.988172
vt 0.338030 0.988172
vt 0.998028 0.658172
vt 0.998027 0.988172
vt 0.668030 0.988172
vt 0.668031 0.658172
vt 0.338027 0.658172
vt 0.338029 0.988172
vt 0.008031 0.988172
vt 0.008029 0.658172
vt 0.668027 0.988173
vt 0.338030 0.988173
vt 0.338030 0.658172
vt 0.668027 0.658172
vt 0.338027 0.328172
vt 0.338026 0.658172
vt 0.008029 0.658172
vt 0.008031 0.328172
vt 0.338029 -0.001828
vt 0.338029 0.328172
vt 0.008029 0.328171
vt 0.008030 -0.001829
vt 0.338028 -0.001828
vt 0.338029 0.328172
vt 0.008029 0.328172
vt 0.008028 -0.001828
vt 0.338030 0.658172
vt 0.008030 0.988172
vt 0.008029 0.658172
vt 0.998030 0.328172
vt 0.998030 0.658172
vt 0.668027 0.658172
vt 0.668027 0.328171
vt 0.668028 -0.001828
vt 0.668028 0.328172
vt 0.338027 0.328172
vt 0.338028 -0.001828
vt 0.338029 0.658172
vt 0.008031 0.658172
vt 0.008029 0.328172
vt 0.668028 0.328171
vt 0.338030 0.658172
vt 0.338031 0.658172
vt 0.338031 0.988172
vt 0.008029 0.988172
vt 0.668028 0.328171
vt 0.338028 0.328171
vt 0.338028 -0.001828
vt 0.338028 0.328172
vt 0.008028 0.328172
vt 0.008028 -0.001828
vt 0.668028 0.328172
vt 0.338027 0.658172
vt 0.338027 0.328172
vt 0.998028 0.328172
vt 0.668031 0.658172
vt 0.668030 0.328172
vt 0.668027 0.328171
vt 0.668028 0.658172
vt 0.338030 0.658172
vt 0.338030 0.328171
vt 0.668028 -0.001828
vt 0.668028 0.328172
vt 0.338027 0.328172
vt 0.338028 -0.001828
vt 0.338030 -0.001828
vt 0.338030 0.328172
vt 0.008028 -0.001828
vt 0.338029 0.328172
vt 0.338030 0.658172
vt 0.008030 0.658172
vt 0.008029 0.328171
vt 0.998028 -0.001828
vt 0.998028 0.328172
vt 0.338028 0.328172
vt 0.008028 -0.001828
vt 0.998028 0.328172
vt 0.668028 0.328171
vt 0.668028 -0.001828
vt 0.008028 0.988172
vt 0.338027 0.988172
vt 0.008029 0.988172
vt 0.338026 0.658172
vt 0.008031 0.658172
vt 0.008031 0.328171
vt 0.998028 -0.001828
vt 0.998027 0.328172
vt 0.668028 0.328172
vt 0.668028 -0.001828
vt 0.668028 0.988173
vt 0.338028 -0.001828
vt 0.338029 0.328171
vt 0.008031 0.328171
vt 0.008031 -0.001828
vt 0.998028 0.658172
vt 0.998029 0.988172
vt 0.668027 0.988172
vt 0.998028 0.658172
vt 0.998028 0.988172
vt 0.998028 -0.001828
vt 0.998027 0.328171
vt 0.668030 0.328171
vt 0.668031 -0.001828
vt 0.668029 0.328172
vt 0.668028 -0.001828
vt 0.668026 0.658172
vt 0.338028 0.658172
vt 0.998030 0.988172
vt 0.668029 0.988172
vt 0.668027 0.658172
vt 0.668026 0.988172
vt 0.338030 0.988172
vt 0.998028 0.658172
vt 0.668027 0.658172
vt 0.668028 0.328172
vt 0.668028 0.988172
vt 0.338029 0.988172
s 0
usemtl box_00
f 51/1/1 1/2/1 2/3/1 50/4/1
f 50/5/2 2/6/2 5/7/2 46/8/2
f 46/9/3 5/10/3 4/11/3 3/12/3
f 3/13/4 4/14/4 1/15/4 51/16/4
f 5/17/5 2/18/5 1/19/5 4/20/5
f 6/21/3 31/22/3 12/23/3 11/9/3
f 9/24/1 10/25/1 8/26/1 7/27/1
f 7/28/2 8/29/2 31/30/2 6/31/2
f 11/32/3 12/33/3 18/34/3 17/35/3
f 19/36/1 33/37/1 10/38/1 9/19/1
f 15/14/1 16/39/1 33/40/1 19/41/1
f 17/42/3 18/43/3 14/44/3 13/45/3
f 13/46/3 14/47/3 25/48/3 24/49/3
f 20/50/1 21/51/1 16/52/1 15/53/1
f 27/54/1 28/55/1 21/56/1 20/57/1
f 24/58/3 25/59/3 23/60/3 22/61/3
f 22/62/3 23/21/3 40/63/3 26/64/3
f 26/65/4 40/66/4 42/67/4 29/68/4
f 29/69/1 42/9/1 28/70/1 27/71/1
f 10/69/1 49/72/1 47/73/1 8/74/1
f 8/75/2 47/76/2 32/77/2 31/78/2
f 31/79/3 32/80/3 30/73/3 12/81/3
f 12/82/3 30/64/3 52/83/3 18/84/3
f 33/85/1 34/86/1 49/87/1 10/88/1
f 18/89/3 52/47/3 38/64/3 14/82/3
f 16/90/1 35/91/1 34/86/1 33/85/1
f 21/5/1 37/37/1 35/92/1 16/93/1
f 14/94/3 38/95/3 36/96/3 25/97/3
f 35/53/5 37/98/5 36/99/5 38/100/5
f 25/101/3 36/102/3 44/103/3 23/104/3
f 28/105/1 39/106/1 37/107/1 21/108/1
f 39/109/5 44/110/5 36/111/5 37/18/5
f 40/112/4 41/113/4 43/14/4 42/114/4
f 42/115/1 43/116/1 39/117/1 28/88/1
f 23/118/3 44/119/3 41/120/3 40/121/3
f 39/19/5 43/36/5 41/37/5 44/38/5
f 32/44/3 45/96/3 46/122/3 30/123/3
f 49/124/1 50/114/1 48/125/1 47/126/1
f 47/127/2 48/128/2 45/129/2 32/130/2
f 50/50/5 46/131/5 45/132/5 48/133/5
f 30/10/3 46/134/3 3/135/3 52/60/3
f 34/24/1 51/136/1 50/137/1 49/138/1
f 52/139/3 3/140/3 54/141/3 38/142/3
f 38/127/4 54/143/4 53/144/4 35/145/4
f 35/107/1 53/8/1 51/146/1 34/86/1
f 54/147/5 3/148/5 51/149/5 53/150/5
f 102/151/1 58/152/1 57/153/1 100/154/1
f 100/155/2 57/156/2 56/157/2 98/158/2
f 98/159/3 56/160/3 55/161/3 59/162/3
f 57/163/5 58/164/5 55/165/5 56/166/5
f 59/167/3 55/168/3 60/169/3 101/170/3
f 103/171/1 63/172/1 58/173/1 102/174/1
f 60/175/5 55/176/5 58/177/5 63/178/5
f 101/179/3 60/180/3 62/181/3 61/182/3
f 61/183/4 62/184/4 65/185/4 64/186/4
f 64/187/1 65/188/1 63/189/1 103/190/1
f 65/191/5 62/176/5 60/192/5 63/193/5
f 66/194/3 93/195/3 76/196/3 75/197/3
f 69/198/1 70/199/1 68/200/1 67/201/1
f 67/184/2 68/202/2 93/203/2 66/204/2
f 73/205/1 74/157/1 70/206/1 69/153/1
f 75/207/3 76/208/3 72/209/3 71/174/3
f 71/151/3 72/210/3 77/211/3 82/154/3
f 78/212/1 79/213/1 74/214/1 73/215/1
f 83/216/1 84/178/1 79/217/1 78/218/1
f 82/219/3 77/167/3 81/220/3 80/221/3
f 80/222/3 81/223/3 88/224/3 87/225/3
f 85/226/1 86/227/1 84/228/1 83/229/1
f 87/230/3 88/231/3 91/214/3 90/232/3
f 90/233/4 91/234/4 104/235/4 89/236/4
f 89/237/1 104/238/1 86/227/1 85/226/1
f 68/187/2 92/239/2 94/214/2 93/240/2
f 93/237/3 94/241/3 96/242/3 76/243/3
f 70/191/1 95/166/1 92/244/1 68/181/1
f 96/245/5 94/246/5 92/181/5 95/171/5
f 76/160/3 96/247/3 97/248/3 72/249/3
f 74/250/1 99/251/1 95/252/1 70/253/1
f 99/157/5 97/254/5 96/166/5 95/177/5
f 72/255/3 97/256/3 98/257/3 77/258/3
f 79/259/1 100/260/1 99/261/1 74/157/1
f 100/262/5 98/263/5 97/254/5 99/157/5
f 77/264/3 98/265/3 59/266/3 81/267/3
f 84/250/1 102/194/1 100/268/1 79/269/1
f 81/222/3 59/270/3 101/271/3 88/153/3
f 86/262/1 103/272/1 102/273/1 84/164/1
f 88/274/3 101/275/3 61/276/3 91/206/3
f 91/155/4 61/277/4 64/278/4 104/279/4
f 104/178/1 64/280/1 103/281/1 86/217/1
