# Blender 5.0.0
# www.blender.org
mtllib boxes1.mtl
o cardboxes01
v -14.600001 18.999998 2.400000
v -15.200000 18.999998 2.400000
v -14.600004 19.599998 1.800000
v -14.600001 19.599998 2.400000
v -15.200000 19.599998 2.400000
v -15.800001 19.600000 0.000000
v -15.800001 19.000000 0.000000
v -15.800002 19.000000 0.600000
v -15.200003 19.000000 0.000000
v -15.200003 19.000000 0.600000
v -15.200003 19.599998 0.000000
v -15.200003 19.599998 0.600000
v -14.000002 19.599998 0.000000
v -14.000002 19.599998 0.600000
v -14.000002 19.000000 0.000000
v -14.000002 19.000000 0.600000
v -14.600002 19.599998 0.000000
v -14.600002 19.599998 0.600000
v -14.600002 19.000000 0.000000
v -13.400003 19.000000 0.000000
v -13.400003 19.000000 0.600000
v -12.800005 19.599998 0.000000
v -12.800006 19.599998 0.600000
v -13.400003 19.599998 0.000000
v -13.400003 19.599998 0.600000
v -12.200006 19.600000 0.000000
v -12.800005 19.000000 0.000000
v -12.800006 19.000000 0.600000
v -12.200006 19.000000 0.000000
v -15.200002 19.599998 1.200000
v -15.800002 19.599998 0.600000
v -15.800002 19.599998 1.200000
v -14.600002 19.000000 0.600000
v -14.600002 19.000000 1.200000
v -14.000003 19.000000 1.200000
v -13.400002 19.599998 1.200000
v -13.400002 19.000000 1.200000
v -14.000003 19.599998 1.200000
v -12.800005 19.000000 1.200000
v -12.200006 19.599998 0.600000
v -12.200006 19.599998 1.200000
v -12.200006 19.000000 0.600000
v -12.200006 19.000000 1.200000
v -12.800005 19.599998 1.200000
v -15.800001 19.600000 1.800000
v -15.200001 19.599998 1.800000
v -15.800002 19.000000 1.200000
v -15.800001 19.000000 1.800000
v -15.200003 19.000000 1.200000
v -15.200001 19.000000 1.800000
v -14.600004 19.000000 1.800000
v -14.600003 19.599998 1.200000
v -14.000004 19.000000 1.800000
v -14.000004 19.599998 1.800000
vn -0.0000 -1.0000 -0.0000
vn -1.0000 -0.0000 -0.0000
vn -0.0000 1.0000 -0.0000
vn 1.0000 -0.0000 -0.0000
vn -0.0000 -0.0000 1.0000
vt 0.643240 -0.000087
vt 0.964130 -0.000087
vt 0.964130 0.424195
vt 0.643240 0.424195
vt 0.352785 0.742752
vt 0.352785 0.415274
vt 0.664612 0.415274
vt 0.664612 0.742752
vt 0.332068 0.424195
vt -0.001100 0.424195
vt -0.001100 -0.000087
vt 0.332068 -0.000087
vt 0.352785 0.415274
vt 0.352785 0.742751
vt 0.040958 0.742751
vt 0.040958 0.415274
vt 0.682676 0.422961
vt 1.003567 0.422961
vt 1.003567 0.847243
vt 0.682676 0.847243
s 0
usemtl box_00.007
f 51/1/1 1/2/1 2/3/1 50/4/1
f 50/5/2 2/6/2 5/7/2 46/8/2
f 46/9/3 5/10/3 4/11/3 3/12/3
f 3/13/4 4/14/4 1/15/4 51/16/4
f 5/17/5 2/18/5 1/19/5 4/20/5
usemtl box_00.010
f 6/1/3 31/2/3 12/3/3 11/4/3
f 9/9/1 10/10/1 8/11/1 7/12/1
f 7/13/2 8/14/2 31/15/2 6/16/2
f 11/5/3 12/6/3 18/7/3 17/8/3
f 19/13/1 33/14/1 10/15/1 9/16/1
f 15/5/1 16/6/1 33/7/1 19/8/1
f 17/13/3 18/14/3 14/15/3 13/16/3
f 13/1/3 14/2/3 25/3/3 24/4/3
f 20/9/1 21/10/1 16/11/1 15/12/1
f 27/1/1 28/2/1 21/3/1 20/4/1
f 24/9/3 25/10/3 23/11/3 22/12/3
f 22/1/3 23/2/3 40/3/3 26/4/3
f 26/5/4 40/6/4 42/7/4 29/8/4
f 29/9/1 42/10/1 28/11/1 27/12/1
usemtl box_00.009
f 10/1/1 49/2/1 47/3/1 8/4/1
f 8/5/2 47/6/2 32/7/2 31/8/2
f 31/9/3 32/10/3 30/11/3 12/12/3
f 12/1/3 30/2/3 52/3/3 18/4/3
f 33/9/1 34/10/1 49/11/1 10/12/1
f 18/1/3 52/2/3 38/3/3 14/4/3
f 16/9/1 35/10/1 34/11/1 33/12/1
f 21/5/1 37/6/1 35/7/1 16/8/1
f 14/13/3 38/14/3 36/15/3 25/16/3
f 35/17/5 37/18/5 36/19/5 38/20/5
f 25/1/3 36/2/3 44/3/3 23/4/3
f 28/9/1 39/10/1 37/11/1 21/12/1
f 39/17/5 44/18/5 36/19/5 37/20/5
f 40/1/4 41/2/4 43/3/4 42/4/4
f 42/5/1 43/6/1 39/7/1 28/8/1
f 23/13/3 44/14/3 41/15/3 40/16/3
f 39/17/5 43/18/5 41/19/5 44/20/5
usemtl box_00.008
f 32/1/3 45/2/3 46/3/3 30/4/3
f 49/9/1 50/10/1 48/11/1 47/12/1
f 47/13/2 48/14/2 45/15/2 32/16/2
f 50/17/5 46/18/5 45/19/5 48/20/5
f 30/1/3 46/2/3 3/3/3 52/4/3
f 34/9/1 51/10/1 50/11/1 49/12/1
f 52/5/3 3/6/3 54/7/3 38/8/3
f 38/9/4 54/10/4 53/11/4 35/12/4
f 35/13/1 53/14/1 51/15/1 34/16/1
f 54/17/5 3/18/5 51/19/5 53/20/5
