# Blender 4.4.0
# www.blender.org
mtllib brakes.mtl
o brakes
v -0.183000 -0.081545 0.073755
v -0.183000 -0.080000 0.074000
v -0.183000 -0.084045 0.066061
v -0.183000 -0.084755 0.067455
v -0.183000 -0.085000 0.069000
v -0.183000 -0.084755 0.070545
v -0.183000 -0.084045 0.071939
v -0.183000 -0.082939 0.073045
v -0.183000 -0.081545 0.064245
v -0.183000 -0.082939 0.064955
v -0.183000 -0.080000 0.064000
v -0.177000 0.082939 0.073045
v -0.183000 0.082939 0.073045
v -0.183000 0.081545 0.073755
v -0.177000 0.081545 0.073755
v -0.177000 0.084045 0.071939
v -0.183000 0.084045 0.071939
v -0.177000 0.084755 0.070545
v -0.183000 0.084755 0.070545
v -0.183000 -0.070000 0.074000
v -0.177000 0.085000 0.069000
v -0.183000 0.085000 0.069000
v -0.177000 0.084755 0.067455
v -0.183000 0.084755 0.067455
v -0.177000 0.084045 0.066061
v -0.183000 0.084045 0.066061
v -0.183000 -0.068455 0.073755
v -0.183000 -0.067061 0.073045
v -0.183000 -0.065955 0.071939
v -0.183000 -0.065245 0.070545
v -0.183000 -0.065000 0.069000
v -0.183000 -0.065245 0.067455
v -0.183000 -0.065955 0.066061
v -0.177000 0.082939 0.064955
v -0.183000 0.082939 0.064955
v -0.177000 0.081545 0.064245
v -0.183000 0.081545 0.064245
v -0.183000 -0.067061 0.064955
v -0.183000 -0.068455 0.064245
v -0.183000 -0.070000 0.064000
v -0.177000 0.080000 0.064000
v -0.183000 0.080000 0.064000
v -0.183000 0.068455 0.073755
v -0.183000 0.070000 0.074000
v -0.183000 0.065955 0.066061
v -0.177000 -0.081545 0.064245
v -0.177000 -0.070000 0.064000
v -0.183000 0.065245 0.067455
v -0.183000 0.065000 0.069000
v -0.183000 0.065245 0.070545
v -0.177000 -0.080000 0.064000
v -0.183000 0.065955 0.071939
v -0.177000 -0.068455 0.064245
v -0.183000 0.067061 0.073045
v -0.177000 -0.082939 0.064955
v -0.177000 -0.065955 0.066061
v -0.177000 0.065245 0.070545
v -0.177000 0.065000 0.069000
v -0.183000 0.068455 0.064245
v -0.183000 0.067061 0.064955
v -0.183000 0.070000 0.064000
v -0.177000 0.065955 0.071939
v -0.177000 -0.068455 0.073755
v -0.177000 -0.070000 0.074000
v -0.177000 0.067061 0.073045
v -0.177000 -0.067061 0.073045
v -0.177000 0.068455 0.073755
v -0.177000 -0.065955 0.071939
v -0.177000 0.070000 0.074000
v -0.177000 -0.065245 0.067455
v -0.177000 -0.065245 0.070545
v -0.177000 -0.065000 0.069000
v -0.177000 0.065955 0.066061
v -0.177000 0.065245 0.067455
v -0.177000 -0.067061 0.064955
v -0.177000 0.068455 0.064245
v -0.177000 0.070000 0.064000
v -0.177000 0.067061 0.064955
v -0.177000 -0.080000 0.074000
v -0.177000 0.080000 0.074000
v -0.177000 -0.081545 0.073755
v -0.177000 -0.082939 0.073045
v -0.177000 -0.084045 0.071939
v -0.177000 -0.084755 0.070545
v -0.177000 -0.085000 0.069000
v -0.177000 -0.084755 0.067455
v -0.177000 -0.084045 0.066061
v -0.183000 0.080000 0.074000
vn -1.0000 -0.0000 -0.0000
vn -0.0000 0.5877 0.8091
vn -0.0000 0.3090 0.9511
vn -0.0000 0.8091 0.5877
vn -0.0000 0.9511 0.3090
vn -0.0000 1.0000 -0.0000
vn -0.0000 0.9511 -0.3090
vn -0.0000 0.8091 -0.5877
vn -1.0000 -0.0001 -0.0000
vn -0.0000 0.5877 -0.8091
vn -0.0000 0.3090 -0.9511
vn -0.0000 0.0786 -0.9969
vn -0.0000 -0.3090 -0.9511
vn -0.0000 -0.0786 -0.9969
vn -0.0000 -0.5877 -0.8091
vn -0.0000 -0.8091 -0.5877
vn -0.0000 -0.9511 0.3090
vn -0.0000 -1.0000 -0.0000
vn -0.0000 -0.8091 0.5877
vn -0.0000 0.0786 0.9969
vn -0.0000 -0.5877 0.8091
vn -0.0000 -0.3090 0.9511
vn -0.0000 -0.0786 0.9969
vn 1.0000 -0.0000 -0.0000
vn -0.0000 -0.9511 -0.3090
vn -1.0000 0.0001 -0.0000
vn -0.0000 0.0785 0.9969
s 1
usemtl color_15277357
f 2//1 9//1 1//1
f 1//1 3//1 4//1
f 1//1 4//1 5//1
f 1//1 5//1 6//1
f 1//1 6//1 7//1
f 1//1 7//1 8//1
f 3//1 1//1 10//1
f 10//1 1//1 9//1
f 9//1 2//1 11//1
f 12//2 13//2 14//3
f 12//2 14//3 15//3
f 12//2 16//4 17//4
f 12//2 17//4 13//2
f 16//4 18//5 19//5
f 16//4 19//5 17//4
f 18//5 21//6 22//6
f 18//5 22//6 19//5
f 21//6 23//7 24//7
f 21//6 24//7 22//6
f 23//7 25//8 26//8
f 23//7 26//8 24//7
f 28//9 29//1 27//1
f 29//1 30//1 27//1
f 20//1 27//1 30//1
f 20//1 30//1 31//1
f 20//1 31//1 32//1
f 38//1 39//1 20//1
f 32//1 33//1 20//1
f 33//1 38//1 20//1
f 34//10 35//10 26//8
f 34//10 26//8 25//8
f 36//11 37//11 35//10
f 36//11 35//10 34//10
f 39//1 40//1 20//1
f 2//1 20//1 40//1
f 11//1 2//1 40//1
f 41//12 42//12 37//11
f 41//12 37//11 36//11
f 46//13 9//13 11//14
f 46//13 11//14 51//14
f 47//12 40//12 39//11
f 47//12 39//11 53//11
f 46//13 55//15 10//15
f 46//13 10//15 9//13
f 44//1 59//1 43//1
f 43//1 45//1 48//1
f 43//1 48//1 49//1
f 43//1 49//1 50//1
f 43//1 50//1 52//1
f 43//1 52//1 54//1
f 3//16 10//15 55//15
f 57//17 50//17 49//18
f 57//17 49//18 58//18
f 45//1 43//1 60//1
f 60//1 43//1 59//1
f 59//1 44//1 61//1
f 62//19 52//19 50//17
f 62//19 50//17 57//17
f 63//3 27//3 20//20
f 63//3 20//20 64//20
f 65//21 54//21 52//19
f 65//21 52//19 62//19
f 66//2 28//2 27//3
f 66//2 27//3 63//3
f 67//22 43//22 54//21
f 67//22 54//21 65//21
f 66//2 68//4 29//4
f 66//2 29//4 28//2
f 69//23 44//23 43//22
f 69//23 43//22 67//22
f 68//4 71//5 30//5
f 68//4 30//5 29//4
f 71//24 47//24 72//24
f 70//24 72//24 47//24
f 68//24 47//24 71//24
f 66//24 47//24 68//24
f 63//24 47//24 66//24
f 64//24 47//24 63//24
f 47//24 53//24 70//24
f 71//5 72//6 31//6
f 71//5 31//6 30//5
f 74//25 48//25 45//16
f 74//25 45//16 73//16
f 49//18 48//25 74//25
f 49//18 74//25 58//18
f 72//6 70//7 32//7
f 72//6 32//7 31//6
f 75//24 56//24 53//24
f 56//24 70//24 53//24
f 76//13 59//13 61//14
f 76//13 61//14 77//14
f 76//13 78//15 60//15
f 76//13 60//15 59//13
f 45//16 60//15 78//15
f 45//16 78//15 73//16
f 70//7 56//8 33//8
f 70//7 33//8 32//7
f 77//14 42//12 41//12
f 51//14 11//14 40//12
f 51//14 40//12 47//12
f 38//10 33//8 75//10
f 56//8 75//10 33//8
f 77//14 61//14 42//12
f 53//11 39//11 38//10
f 53//11 38//10 75//10
f 61//1 88//1 42//1
f 82//24 83//24 81//24
f 83//24 84//24 81//24
f 79//24 81//24 84//24
f 79//24 84//24 85//24
f 79//24 85//24 86//24
f 79//24 86//24 87//24
f 79//24 87//24 55//24
f 51//24 79//24 46//24
f 55//24 46//24 79//24
f 47//24 79//24 51//24
f 21//24 18//24 23//24
f 25//24 23//24 18//24
f 25//24 18//24 16//24
f 25//24 16//24 12//24
f 25//24 12//24 15//24
f 80//24 36//24 15//24
f 69//24 41//24 80//24
f 25//24 15//24 34//24
f 79//24 47//24 64//24
f 34//24 15//24 36//24
f 14//1 42//1 88//1
f 13//1 42//1 14//1
f 44//1 88//1 61//1
f 17//1 42//1 13//1
f 19//1 42//1 17//1
f 22//1 42//1 19//1
f 24//1 42//1 22//1
f 26//1 37//1 24//1
f 35//26 37//1 26//1
f 80//20 88//27 44//23
f 80//20 44//23 69//23
f 65//24 62//24 67//24
f 62//24 57//24 67//24
f 69//24 67//24 57//24
f 69//24 57//24 58//24
f 69//24 58//24 74//24
f 69//24 74//24 73//24
f 73//24 78//24 69//24
f 42//1 24//1 37//1
f 76//24 69//24 78//24
f 15//3 14//3 88//27
f 15//3 88//27 80//20
f 64//20 20//20 79//23
f 36//24 80//24 41//24
f 77//24 41//24 69//24
f 76//24 77//24 69//24
f 84//17 6//17 5//18
f 84//17 5//18 85//18
f 2//23 79//23 20//20
f 83//19 7//19 6//17
f 83//19 6//17 84//17
f 82//21 8//21 7//19
f 82//21 7//19 83//19
f 81//22 1//22 8//21
f 81//22 8//21 82//21
f 79//23 2//23 1//22
f 79//23 1//22 81//22
f 87//16 3//16 55//15
f 86//25 4//25 3//16
f 86//25 3//16 87//16
f 5//18 4//25 86//25
f 5//18 86//25 85//18
