# Blender 4.4.1
# www.blender.org
mtllib labels.mtl
o labels
v -2.619227 0.483650 0.280000
v -2.619227 0.483650 0.380000
v -2.619227 0.490000 0.280000
v -2.619227 0.490000 0.380000
v -2.179227 0.483650 0.280000
v -2.179227 0.483650 0.380000
v -2.179227 0.490000 0.280000
v -2.179227 0.490000 0.380000
v -2.619227 0.510000 0.280000
v -2.619227 0.510000 0.380000
v -2.619227 0.516350 0.280000
v -2.619227 0.516350 0.380000
v -2.179227 0.510000 0.280000
v -2.179227 0.510000 0.380000
v -2.179227 0.516350 0.280000
v -2.179227 0.516350 0.380000
v -2.619227 -0.516350 0.280000
v -2.619227 -0.516350 0.380000
v -2.619227 -0.510000 0.280000
v -2.619227 -0.510000 0.380000
v -2.179227 -0.516350 0.280000
v -2.179227 -0.516350 0.380000
v -2.179227 -0.510000 0.280000
v -2.179227 -0.510000 0.380000
v -2.619227 -0.490000 0.280000
v -2.619227 -0.490000 0.380000
v -2.619227 -0.483650 0.280000
v -2.619227 -0.483650 0.380000
v -2.179227 -0.490000 0.280000
v -2.179227 -0.490000 0.380000
v -2.179227 -0.483650 0.280000
v -2.179227 -0.483650 0.380000
vn -1.0000 -0.0000 -0.0000
vn -0.0000 1.0000 -0.0000
vn 1.0000 -0.0000 -0.0000
vn -0.0000 -1.0000 -0.0000
vn -0.0000 -0.0000 -1.0000
vn -0.0000 -0.0000 1.0000
vt 0.500000 0.500000
vt 0.500000 0.544528
vt 0.000000 0.544528
vt 0.000000 0.500000
vt 0.900012 0.442604
vt 0.900012 0.589675
vt 0.100594 0.589675
vt 0.100594 0.442603
vt 1.000000 0.500000
vt 1.000000 0.544528
vt 0.938576 0.651641
vt 0.938576 0.848187
vt 0.062030 0.848187
vt 0.062030 0.651641
vt -0.000000 0.455471
vt 0.500000 0.455471
vt 0.500000 0.500000
vt -0.000000 0.500000
vt 0.500000 0.455471
vt 1.000000 0.455472
vt 0.500000 0.500000
vt 0.500000 0.544756
vt 0.000000 0.544756
vt 0.000000 0.500000
vt 0.938576 0.651641
vt 0.938576 0.848187
vt 0.062030 0.848187
vt 0.062030 0.651641
vt 1.000000 0.500000
vt 1.000000 0.544756
vt 0.000000 0.455244
vt 0.500000 0.455244
vt 0.500000 0.500000
vt 0.000000 0.500000
vt 1.000000 0.455244
vt 1.000000 0.500000
vt 0.938576 0.151100
vt 0.938576 0.349146
vt 0.062030 0.349145
vt 0.062030 0.151100
vt 0.938576 0.151100
vt 0.938576 0.349146
vt 0.062030 0.349145
vt 0.062030 0.151100
s 0
usemtl Material.011
f 1/1/1 2/2/1 4/3/1 3/4/1
f 3/5/2 4/6/2 8/7/2 7/8/2
f 7/9/3 8/10/3 6/2/3 5/1/3
f 5/11/4 6/12/4 2/13/4 1/14/4
f 3/15/5 7/16/5 5/17/5 1/18/5
f 8/19/6 4/20/6 2/9/6 6/17/6
f 9/21/1 10/22/1 12/23/1 11/24/1
f 11/25/2 12/26/2 16/27/2 15/28/2
f 15/29/3 16/30/3 14/22/3 13/21/3
f 13/5/4 14/6/4 10/7/4 9/8/4
f 11/31/5 15/32/5 13/33/5 9/34/5
f 16/32/6 12/35/6 10/36/6 14/33/6
f 17/1/1 18/2/1 20/3/1 19/4/1
f 19/5/2 20/6/2 24/7/2 23/8/2
f 23/9/3 24/10/3 22/2/3 21/1/3
f 21/37/4 22/38/4 18/39/4 17/40/4
f 19/15/5 23/16/5 21/17/5 17/18/5
f 24/19/6 20/20/6 18/9/6 22/17/6
f 25/21/1 26/22/1 28/23/1 27/24/1
f 27/41/2 28/42/2 32/43/2 31/44/2
f 31/29/3 32/30/3 30/22/3 29/21/3
f 29/5/4 30/6/4 26/7/4 25/8/4
f 27/31/5 31/32/5 29/33/5 25/34/5
f 32/32/6 28/35/6 26/36/6 30/33/6
