# Blender v3.4.0 OBJ File: ''
# www.blender.org
mtllib Gate.mtl
o obj_0.005
v 0.588000 1.500000 -0.809000
v 0.309000 1.500000 0.951000
v 0.809000 1.500000 -0.588000
v 0.588000 1.500000 0.809000
v 0.809000 1.500000 0.588000
v 0.951000 1.500000 0.309000
v 1.000000 1.500000 0.000000
v 0.951000 1.500000 -0.309000
v -0.309000 1.500000 0.951000
v -0.588000 1.500000 0.809000
v -0.809000 1.500000 0.588000
v -0.951000 1.500000 0.309000
v 0.000000 1.500000 1.000000
v 0.309000 1.500000 -0.951000
v -1.000000 1.500000 0.000000
v 0.000000 1.500000 -1.000000
v -0.951000 1.500000 -0.309000
v -0.309000 1.500000 -0.951000
v -0.588000 1.500000 -0.809000
v -0.809000 1.500000 -0.588000
v 0.809000 -1.500000 -0.588000
v 0.951000 -1.500000 -0.309000
v 0.588000 -1.500000 -0.809000
v 1.000000 -1.500000 -0.000000
v 0.951000 -1.500000 0.309000
v 0.809000 -1.500000 0.588000
v 0.588000 -1.500000 0.809000
v -0.588000 -1.500000 0.809000
v -0.809000 -1.500000 0.588000
v -0.309000 -1.500000 0.951000
v -0.951000 -1.500000 0.309000
v -1.000000 -1.500000 -0.000000
v -0.951000 -1.500000 -0.309000
v -0.809000 -1.500000 -0.588000
v -0.588000 -1.500000 -0.809000
v -0.309000 -1.500000 -0.951000
v 0.000000 -1.500000 -1.000000
v 0.309000 -1.500000 -0.951000
v 0.309000 -1.500000 0.951000
v 0.000000 -1.500000 1.000000
v 30.000000 -0.500000 -0.000000
v 30.000000 0.500000 0.000000
v 30.000000 0.476000 0.155000
v 30.000000 0.405000 0.294000
v 30.000000 0.294000 0.405000
v 30.000000 0.155000 0.476000
v 30.000000 -0.000000 0.500000
v 30.000000 -0.155000 0.476000
v 30.000000 -0.294000 0.405000
v 30.000000 -0.405000 0.294000
v 30.000000 -0.476000 0.155000
v 30.000000 -0.476000 -0.155000
v 30.000000 -0.405000 -0.294000
v 30.000000 -0.294000 -0.405000
v 30.000000 -0.155000 -0.476000
v 30.000000 0.000000 -0.500000
v 30.000000 0.155000 -0.476000
v 30.000000 0.294000 -0.405000
v 30.000000 0.405000 -0.294000
v 30.000000 0.476000 -0.155000
v 0.953400 0.405000 -0.294000
v 0.951000 0.390000 -0.309000
v 0.951000 -0.390000 0.309000
v 0.953400 -0.405000 0.294000
v 0.853800 -0.000000 0.500000
v 0.866000 -0.155000 0.476000
v 0.902100 -0.294000 0.405000
v 0.902100 0.294000 0.405000
v 0.866000 0.155000 0.476000
v 0.975400 -0.476000 0.155000
v 1.000000 -0.500000 -0.000000
v 0.975400 -0.476000 -0.155000
v 0.953400 -0.405000 -0.294000
v 0.902100 -0.294000 -0.405000
v 0.951000 -0.390000 -0.309000
v 0.853800 0.000000 -0.500000
v 0.866000 -0.155000 -0.476000
v 0.866000 0.155000 -0.476000
v 0.902100 0.294000 -0.405000
v 0.951000 0.390000 0.309000
v 1.000000 0.500000 0.000000
v 0.975400 0.476000 0.155000
v 0.953400 0.405000 0.294000
v 0.975400 0.476000 -0.155000
vn -0.0000 1.0000 0.0000
vn 0.0000 -1.0000 -0.0000
vn 1.0000 0.0000 0.0000
vn 1.0000 0.0002 0.0000
vn 1.0000 -0.0001 0.0000
vn -0.0000 0.8011 -0.5985
vn -0.0000 0.5882 -0.8087
vn -0.0000 0.7071 -0.7071
vn 0.5876 -0.0000 0.8091
vn 0.8091 0.0000 0.5876
vn -0.0000 -0.7071 0.7071
vn -0.0000 -0.8011 0.5985
vn -0.0000 -0.5882 0.8087
vn 0.9511 0.0000 0.3089
vn 0.9243 0.0000 0.3816
vn 0.8912 -0.0000 0.4536
vn 0.8914 -0.0000 0.4533
vn 0.8913 0.0000 0.4534
vn 0.0000 -0.8087 0.5882
vn 0.9877 0.0000 0.1565
vn 0.9875 -0.0000 0.1575
vn 0.0000 -0.8087 -0.5882
vn 0.0000 -0.9466 -0.3223
vn 0.0000 -0.8011 -0.5985
vn 0.0000 -0.5637 -0.8260
vn 0.0000 -0.5882 -0.8087
vn 0.0000 -0.7071 -0.7071
vn 0.9511 0.0000 -0.3089
vn 0.9243 0.0000 -0.3815
vn 0.9875 -0.0000 -0.1575
vn 0.9877 0.0000 -0.1565
vn 0.8091 -0.0000 -0.5876
vn 0.8912 0.0000 -0.4536
vn 0.8914 -0.0000 -0.4533
vn 0.8913 0.0000 -0.4534
vn 0.5876 0.0000 -0.8091
vn -1.0000 -0.0000 -0.0000
vn -0.9511 0.0000 -0.3089
vn -0.9511 -0.0000 0.3089
vn -0.3089 -0.0000 0.9511
vn -0.5876 -0.0000 0.8091
vn 0.0000 -0.0000 1.0000
vn 0.3089 -0.0000 0.9511
vn 0.9243 -0.0000 0.3815
vn 0.0000 0.5637 0.8260
vn 0.0000 0.5882 0.8087
vn 0.0000 0.7071 0.7071
vn 0.9243 -0.0000 -0.3816
vn 0.3089 0.0000 -0.9511
vn 0.0000 0.0000 -1.0000
vn -0.3089 0.0000 -0.9511
vn -0.5876 0.0000 -0.8091
vn -0.8091 0.0000 -0.5876
vn -0.8091 -0.0000 0.5876
vn 0.0000 0.8087 -0.5882
vn 0.0000 0.9466 -0.3223
vn 0.0000 0.9466 0.3223
vn 0.0000 0.9514 0.3078
vn 0.0000 0.8087 0.5882
vn 0.0000 0.8011 0.5985
vn 0.0000 0.3078 0.9514
vn 0.0000 0.2922 0.9563
vn 0.0000 -0.9514 -0.3078
vn 0.0000 0.9514 -0.3078
vn 0.0000 0.2922 -0.9563
vn 0.0000 0.5637 -0.8260
vn 0.0000 0.3078 -0.9514
vn 0.0000 -0.3078 -0.9514
vn 0.0000 -0.2922 -0.9563
vn 0.0000 -0.2922 0.9563
vn 0.0000 -0.5637 0.8260
vn 0.0000 -0.3078 0.9514
vn 0.0000 -0.9514 0.3078
vn 0.0000 -0.9466 0.3223
usemtl color_16448250.002
s 1
f 1//1 2//1 3//1
f 3//1 4//1 5//1
f 3//1 5//1 6//1
f 7//1 8//1 6//1
f 3//1 6//1 8//1
f 9//1 1//1 10//1
f 11//1 10//1 1//1
f 12//1 11//1 1//1
f 13//1 1//1 9//1
f 2//1 1//1 13//1
f 4//1 3//1 2//1
f 1//1 14//1 12//1
f 15//1 12//1 14//1
f 16//1 17//1 14//1
f 18//1 17//1 16//1
f 19//1 17//1 18//1
f 20//1 17//1 19//1
f 15//1 14//1 17//1
f 21//2 22//2 23//2
f 24//2 23//2 22//2
f 23//2 24//2 25//2
f 23//2 25//2 26//2
f 23//2 26//2 27//2
f 28//2 29//2 30//2
f 29//2 31//2 30//2
f 30//2 31//2 32//2
f 30//2 32//2 33//2
f 30//2 33//2 34//2
f 30//2 34//2 35//2
f 30//2 35//2 36//2
f 30//2 36//2 37//2
f 30//2 37//2 38//2
f 23//2 39//2 38//2
f 27//2 39//2 23//2
f 40//2 38//2 39//2
f 30//2 38//2 40//2
f 41//3 42//3 43//3
f 41//3 43//3 44//3
f 41//3 44//3 45//3
f 41//3 45//3 46//3
f 41//3 46//3 47//3
f 41//3 47//3 48//3
f 41//3 48//3 49//3
f 41//3 49//3 50//3
f 41//3 50//3 51//3
f 41//3 52//4 53//5
f 41//3 53//5 54//3
f 41//3 54//3 55//3
f 41//3 55//3 56//3
f 41//3 56//3 57//3
f 41//3 57//3 58//3
f 41//3 58//3 59//3
f 41//3 59//3 60//3
f 41//3 60//3 42//3
f 61//6 58//7 62//8
f 27//9 26//10 5//10
f 63//11 64//12 49//13
f 25//14 63//15 26//10
f 26//10 65//16 5//10
f 65//16 26//10 66//17
f 66//17 26//10 67//18
f 67//18 26//10 63//15
f 68//18 5//10 69//17
f 65//16 69//17 5//10
f 50//19 49//13 64//12
f 70//20 25//14 71//3
f 24//3 71//3 25//14
f 63//15 25//14 64//21
f 64//21 25//14 70//20
f 53//22 72//23 73//24
f 74//25 54//26 75//27
f 75//27 54//26 73//24
f 24//3 22//28 71//3
f 75//29 73//30 22//28
f 72//31 71//3 22//28
f 72//31 22//28 73//30
f 3//32 76//33 21//32
f 77//34 21//32 76//33
f 75//29 22//28 21//32
f 77//34 74//35 21//32
f 75//29 21//32 74//35
f 76//33 3//32 78//34
f 78//34 3//32 79//35
f 1//36 3//32 23//36
f 21//32 23//36 3//32
f 32//37 15//37 33//38
f 31//39 15//37 32//37
f 30//40 9//40 28//41
f 40//42 9//40 30//40
f 13//42 9//40 40//42
f 4//9 39//43 27//9
f 27//9 5//10 4//9
f 68//18 80//44 5//10
f 6//14 5//10 80//44
f 68//45 45//46 80//47
f 6//14 81//3 7//3
f 81//3 6//14 82//20
f 82//20 6//14 83//21
f 80//44 83//21 6//14
f 62//48 8//28 61//30
f 61//30 8//28 84//31
f 81//3 84//31 8//28
f 8//28 7//3 81//3
f 8//28 62//48 3//32
f 79//35 3//32 62//48
f 23//36 38//49 1//36
f 40//42 39//43 13//42
f 2//43 13//42 39//43
f 4//9 2//43 39//43
f 14//49 1//36 38//49
f 37//50 16//50 14//49
f 37//50 14//49 38//49
f 16//50 37//50 18//51
f 36//51 18//51 37//50
f 19//52 18//51 35//52
f 36//51 35//52 18//51
f 19//52 35//52 20//53
f 34//53 20//53 35//52
f 20//53 34//53 17//38
f 33//38 17//38 34//53
f 15//37 17//38 33//38
f 31//39 12//39 15//37
f 29//54 11//54 12//39
f 29//54 12//39 31//39
f 11//54 29//54 10//41
f 28//41 10//41 29//54
f 9//40 10//41 28//41
f 61//6 59//55 58//7
f 61//6 84//56 59//55
f 82//57 43//58 81//1
f 82//57 44//59 43//58
f 44//59 83//60 45//46
f 45//46 68//45 46//61
f 83//60 44//59 82//57
f 81//1 43//58 42//1
f 46//61 69//62 47//42
f 72//23 52//63 71//2
f 84//56 81//1 60//64
f 78//65 79//66 57//67
f 47//42 69//62 65//42
f 41//2 71//2 52//63
f 72//23 53//22 52//63
f 54//26 74//25 55//68
f 77//69 56//50 55//68
f 78//65 57//67 56//50
f 65//42 66//70 47//42
f 81//1 42//1 60//64
f 67//71 49//13 48//72
f 67//71 63//11 49//13
f 51//73 50//19 70//74
f 70//74 71//2 51//73
f 69//62 46//61 68//45
f 60//64 59//55 84//56
f 50//19 64//12 70//74
f 41//2 51//73 71//2
f 80//47 45//46 83//60
f 53//22 73//24 54//26
f 77//69 55//68 74//25
f 56//50 77//69 76//50
f 56//50 76//50 78//65
f 58//7 57//67 79//66
f 79//66 62//8 58//7
f 48//72 47//42 66//70
f 66//70 67//71 48//72
