# Blender 4.2.1 LTS
# www.blender.org
mtllib laptop.mtl
o laptop
v -0.150000 -0.105501 0.002000
v 0.150000 -0.105501 0.002000
v -0.150000 0.094501 0.002000
v 0.150000 0.094501 0.002000
v 0.144001 -0.111500 0.002000
v 0.144001 0.100500 0.002000
v -0.144001 0.100500 0.002000
v -0.144001 -0.111500 0.002000
v 0.144001 0.128754 0.216130
v -0.144001 0.103479 0.005642
v 0.144001 -0.105501 0.000000
v -0.144001 -0.105501 0.000000
v 0.150000 0.104194 0.011599
v 0.144001 0.094501 0.000000
v -0.144001 0.094501 0.000000
v 0.150000 0.128039 0.210174
v -0.150000 -0.105501 0.006000
v 0.150000 -0.105501 0.006000
v -0.150000 0.094501 0.006000
v 0.150000 0.094501 0.006000
v 0.144001 -0.111500 0.006000
v 0.144001 0.100500 0.006000
v -0.144001 0.100500 0.006000
v -0.144001 -0.111500 0.006000
v 0.144001 0.103479 0.005642
v -0.144001 0.128754 0.216130
v 0.144001 -0.105501 0.006000
v -0.144001 -0.105501 0.006000
v -0.150000 0.104194 0.011599
v 0.144001 0.094501 0.006000
v -0.144001 0.094501 0.006000
v -0.150000 0.128039 0.210174
v 0.144001 0.104194 0.011599
v -0.144001 0.104194 0.011599
v 0.144001 0.128039 0.210174
v -0.144001 0.128039 0.210174
v -0.150000 0.101215 0.011956
v 0.150000 0.101215 0.011956
v -0.150000 0.125060 0.210532
v 0.150000 0.125060 0.210532
v 0.144001 0.100500 0.006000
v 0.144001 0.125776 0.216488
v -0.144001 0.125776 0.216488
v -0.144001 0.100500 0.006000
v 0.144001 0.101215 0.011956
v -0.144001 0.101215 0.011956
v 0.144001 0.125060 0.210532
v -0.144001 0.125060 0.210532
vn 0.3016 0.3016 -0.9045
vn -0.0000 0.3163 -0.9487
vn -0.3016 0.3016 -0.9045
vn -0.3016 -0.3016 -0.9045
vn -0.0000 -0.3163 -0.9487
vn 0.3016 -0.3016 -0.9045
vn -0.3163 -0.0000 -0.9487
vn -0.0000 -0.0000 -1.0000
vn 0.3163 -0.0000 -0.9487
vn -0.0000 -0.0000 1.0000
vn -0.0000 0.9929 -0.1192
vn -0.7071 0.7071 -0.0000
vn -1.0000 -0.0000 -0.0000
vn 1.0000 -0.0000 -0.0000
vn -0.0000 1.0000 -0.0000
vn -0.0000 -1.0000 -0.0000
vn 0.7071 -0.7071 -0.0000
vn -0.7071 -0.7071 -0.0000
vn 0.7071 0.7071 -0.0000
vn -0.0000 -0.9929 0.1192
vn -0.7071 0.0843 0.7021
vn -0.0000 0.1192 0.9929
vn -0.0000 -0.1192 -0.9929
vn 0.7071 -0.0843 -0.7021
vn -0.7071 -0.0843 -0.7021
vn 0.7071 0.0843 0.7021
vt 0.698709 0.155730
vt 0.698709 0.158872
vt 0.694267 0.155729
vt 0.911925 0.155731
vt 0.911925 0.158873
vt 0.916366 0.155730
vt 0.916366 0.050966
vt 0.911925 0.050967
vt 0.911925 0.047824
vt 0.698708 0.050966
vt 0.698709 0.047823
vt 0.694267 0.050965
vt 0.978490 0.492240
vt 0.998363 0.492240
vt 0.978490 0.506580
vt 0.024432 0.492238
vt 0.024432 0.506578
vt 0.004559 0.492238
vt 0.004559 0.014142
vt 0.024432 -0.000198
vt 0.024432 0.014143
vt 0.978490 -0.000196
vt 0.978490 0.014145
vt 0.998363 0.014145
vt 0.917860 0.102238
vt 0.916366 0.102238
vt 0.916366 0.048934
vt 0.917860 0.048934
vt 0.924977 0.103348
vt 0.924977 0.104919
vt 0.924089 0.104919
vt 0.924089 0.103348
vt 0.924977 0.157301
vt 0.924089 0.157301
vt 0.925866 0.104919
vt 0.925866 0.157301
vt 0.917860 0.103348
vt 0.926754 0.103348
vt 0.926754 0.156652
vt 0.925866 0.156652
vt 0.925866 0.103348
vt 0.927642 0.103348
vt 0.927642 0.156652
vt 0.967682 0.103348
vt 0.967682 0.102237
vt 0.969176 0.102237
vt 0.924977 0.158873
vt 0.924089 0.158873
vt 0.925866 0.158873
vt 0.917860 0.047823
vt 0.967682 0.048933
vt 0.969176 0.048933
vt 0.967682 0.047823
vt 0.975275 0.984777
vt 0.995107 0.984777
vt 0.975275 0.999037
vt 0.023150 0.984777
vt 0.023150 0.999037
vt 0.003317 0.984777
vt 0.003315 0.509343
vt 0.023148 0.495082
vt 0.023148 0.509343
vt 0.975273 0.495082
vt 0.975273 0.509343
vt 0.995105 0.509343
vt 0.916366 0.104458
vt 0.917847 0.103348
vt 0.922607 0.104458
vt 0.930397 0.103348
vt 0.930397 0.116020
vt 0.927642 0.116387
vt 0.927642 0.103715
vt 0.927642 0.129059
vt 0.927642 0.116387
vt 0.930397 0.116754
vt 0.930397 0.129426
vt 0.916366 0.157762
vt 0.922607 0.157762
vt 0.975418 0.048933
vt 0.975418 0.102237
vt 0.973923 0.047823
vt 0.973923 0.103348
vt 0.917847 0.158873
s 0
usemtl Material
f 14/1/1 6/2/1 4/3/1
f 15/4/2 7/5/2 6/2/2 14/1/2
f 3/6/3 7/5/3 15/4/3
f 1/7/4 12/8/4 8/9/4
f 8/9/5 12/8/5 11/10/5 5/11/5
f 5/11/6 11/10/6 2/12/6
f 1/7/7 3/6/7 15/4/7 12/8/7
f 12/8/8 15/4/8 14/1/8 11/10/8
f 11/10/9 14/1/9 4/3/9 2/12/9
f 30/13/10 20/14/10 22/15/10
f 31/16/10 30/13/10 22/15/10 23/17/10
f 19/18/10 31/16/10 23/17/10
f 17/19/10 24/20/10 28/21/10
f 24/20/10 21/22/10 27/23/10 28/21/10
f 21/22/10 18/24/10 27/23/10
f 17/19/10 28/21/10 31/16/10 19/18/10
f 28/21/10 27/23/10 30/13/10 31/16/10
f 27/23/10 18/24/10 20/14/10 30/13/10
f 36/25/11 26/26/11 9/27/11 35/28/11
f 7/29/12 3/30/12 19/31/12 23/32/12
f 3/30/13 1/33/13 17/34/13 19/31/13
f 2/35/14 4/36/14 20/33/14 18/30/14
f 32/37/11 26/26/11 36/25/11
f 6/38/15 7/39/15 23/40/15 22/41/15
f 8/42/16 5/43/16 21/39/16 24/38/16
f 29/44/11 34/45/11 10/46/11
f 5/41/17 2/35/17 18/30/17 21/29/17
f 1/33/18 8/47/18 24/48/18 17/34/18
f 4/36/19 6/49/19 22/47/19 20/33/19
f 35/28/11 9/27/11 16/50/11
f 10/46/11 34/45/11 33/51/11 25/52/11
f 25/52/11 33/51/11 13/53/11
f 29/44/11 32/37/11 36/25/11 34/45/11
f 34/45/11 36/25/11 35/28/11 33/51/11
f 33/51/11 35/28/11 16/50/11 13/53/11
f 47/54/20 40/55/20 42/56/20
f 48/57/20 47/54/20 42/56/20 43/58/20
f 39/59/20 48/57/20 43/58/20
f 37/60/20 44/61/20 46/62/20
f 44/61/20 41/63/20 45/64/20 46/62/20
f 41/63/20 38/65/20 45/64/20
f 37/60/20 46/62/20 48/57/20 39/59/20
f 46/62/20 45/64/20 47/54/20 48/57/20
f 45/64/20 38/65/20 40/55/20 47/54/20
f 26/66/21 32/67/21 39/32/21 43/68/21
f 32/69/13 29/70/13 37/71/13 39/72/13
f 13/73/14 16/74/14 40/75/14 38/76/14
f 9/77/22 26/66/22 43/68/22 42/78/22
f 10/46/23 25/52/23 41/79/23 44/80/23
f 25/52/24 13/53/24 38/81/24 41/79/24
f 29/44/25 10/46/25 44/80/25 37/82/25
f 16/83/26 9/77/26 42/78/26 40/48/26
