# Blender 4.3.2
# www.blender.org
mtllib boxes1.mtl
o boxes1
v -1.800000 -0.300000 0.000000
v -1.800000 -0.300000 1.200000
v -1.800000 0.300000 0.000000
v -1.800000 0.300000 1.200000
v 1.800000 -0.300000 0.000000
v 1.800000 -0.300000 1.200000
v 1.800000 0.300000 0.000000
v 1.800000 0.300000 1.200000
v -1.800000 -0.300000 0.600000
v -1.800000 0.300000 0.600000
v 1.800000 0.300000 0.600000
v 1.800000 -0.300000 0.600000
v -0.593751 0.300000 0.000000
v -0.593751 0.300000 1.200000
v -0.593751 -0.300000 0.000000
v -0.593751 -0.300000 1.200000
v -0.593751 -0.300000 0.600000
v -0.593751 0.300000 0.600000
v -1.196876 0.300000 0.000000
v -1.196876 -0.300000 1.200000
v -1.196876 -0.300000 0.600000
v -1.196876 0.300000 1.200000
v -1.196876 -0.300000 0.000000
v -1.196876 0.300000 0.600000
v 0.003124 0.300000 1.200000
v 0.003124 -0.300000 0.000000
v 0.003124 0.300000 0.600000
v 0.003124 0.300000 0.000000
v 0.003124 -0.300000 1.200000
v 0.003124 -0.300000 0.600000
v 1.800000 -0.300000 1.800000
v 1.800000 0.300000 1.800000
v 0.003124 0.300000 1.800000
v 0.003124 -0.300000 1.800000
v 0.601562 0.300000 1.200000
v 0.601562 -0.300000 0.000000
v 0.601562 0.300000 0.600000
v 0.601562 0.300000 0.000000
v 0.601562 -0.300000 1.200000
v 0.601562 -0.300000 0.600000
v 0.601562 0.300000 1.800000
v 0.601562 -0.300000 1.800000
v 1.200781 0.300000 1.200000
v 1.200781 -0.300000 0.000000
v 1.200781 0.300000 0.600000
v 1.200781 0.300000 1.800000
v 1.200781 0.300000 0.000000
v 1.200781 -0.300000 1.200000
v 1.200781 -0.300000 0.600000
v 1.200781 -0.300000 1.800000
vn -1.0000 -0.0000 -0.0000
vn -0.0000 1.0000 -0.0000
vn 1.0000 -0.0000 -0.0000
vn -0.0000 -1.0000 -0.0000
vn -0.0000 -0.0000 -1.0000
vn -0.0000 -0.0000 1.0000
vt 0.667091 0.999421
vt 0.667092 0.669644
vt 0.335598 0.669644
vt 0.335597 0.999421
vt 0.002121 0.666584
vt 0.331898 0.666585
vt 0.331898 0.335091
vt 0.002122 0.335090
vt 0.664127 0.001027
vt 0.664126 0.330804
vt 0.332632 0.330804
vt 0.332632 0.001027
vt 0.001614 0.335090
vt 0.331391 0.335091
vt 0.331390 0.666585
vt 0.001614 0.666584
vt 0.331910 0.000817
vt 0.331910 0.332311
vt 0.002134 0.332311
vt 0.002134 0.000817
vt 0.332786 0.665726
vt 0.332787 0.335949
vt 0.664280 0.335949
vt 0.664280 0.665726
vt 0.998833 0.665726
vt 0.667339 0.665726
vt 0.667340 0.335949
vt 0.998834 0.335949
vt 0.334047 0.999018
vt 0.334047 0.669241
vt 0.665541 0.669241
vt 0.665541 0.999018
vt 0.668198 0.666584
vt 0.997975 0.666585
vt 0.997975 0.335091
vt 0.668198 0.335090
vt 0.335598 0.001675
vt 0.335597 0.331452
vt 0.667091 0.331452
vt 0.667091 0.001676
vt 0.664127 0.001027
vt 0.664280 0.335949
vt 0.664280 0.665726
vt 0.332786 0.665726
vt 0.332786 0.335949
vt 0.001275 0.331452
vt 0.332769 0.331452
vt 0.332769 0.001675
vt 0.001275 0.001676
vt 0.998833 0.665726
vt 0.667339 0.665726
vt 0.667340 0.335949
vt 0.998834 0.335949
vt 0.002134 0.000817
vt 0.001263 0.665726
vt 0.332757 0.665726
vt 0.332757 0.335949
vt 0.001263 0.335949
vt 0.334906 0.999876
vt 0.334906 0.668383
vt 0.664683 0.668383
vt 0.664683 0.999877
vt 0.664281 0.335949
vt 0.664280 0.665726
vt 0.332786 0.665726
vt 0.332787 0.335949
vt 0.333903 0.999162
vt 0.333904 0.669385
vt 0.665398 0.669385
vt 0.665397 0.999162
vt 0.664683 0.668383
vt 0.334906 0.668383
vt 0.334906 0.999877
vt 0.332757 0.665726
vt 0.332757 0.335949
vt 0.001263 0.335949
vt 0.333645 0.335090
vt 0.663422 0.335091
vt 0.663422 0.666585
vt 0.333645 0.666584
vt 0.663268 0.000169
vt 0.663268 0.331662
vt 0.333491 0.331662
vt 0.333491 0.000168
s 0
usemtl cardboard
f 9/1/1 2/2/1 4/3/1 10/4/1
f 45/5/2 43/6/2 8/7/2 11/8/2
f 11/9/3 8/10/3 6/11/3 12/12/3
f 21/13/4 20/14/4 2/15/4 9/16/4
f 47/17/5 7/18/5 5/19/5 44/20/5
f 22/21/6 4/22/6 2/23/6 20/24/6
f 23/25/4 21/26/4 9/27/4 1/28/4
f 7/29/3 11/30/3 12/31/3 5/32/3
f 47/33/2 45/34/2 11/35/2 7/36/2
f 1/37/1 9/38/1 10/39/1 3/40/1
f 19/12/2 24/11/2 18/10/2 13/41/2
f 26/9/4 30/10/4 17/11/4 15/12/4
f 25/42/6 14/43/6 16/44/6 29/45/6
f 19/46/5 13/47/5 15/48/5 23/49/5
f 30/50/4 29/51/4 16/52/4 17/53/4
f 24/5/2 22/6/2 14/7/2 18/8/2
f 10/33/2 4/34/2 22/35/2 24/36/2
f 3/18/5 19/17/5 23/54/5 1/19/5
f 3/55/2 10/56/2 24/57/2 19/58/2
f 15/59/4 17/60/4 21/61/4 23/62/4
f 14/63/6 22/64/6 20/65/6 16/66/6
f 17/50/4 16/51/4 20/52/4 21/53/4
f 40/29/4 39/30/4 29/31/4 30/32/4
f 35/8/2 25/5/2 33/6/2 41/7/2
f 36/67/4 40/68/4 30/69/4 26/70/4
f 13/62/2 18/71/2 27/72/2 28/73/2
f 13/46/5 28/47/5 26/48/5 15/49/5
f 18/55/2 14/74/2 25/75/2 27/76/2
f 41/42/6 33/43/6 34/44/6 42/45/6
f 6/32/3 8/29/3 32/30/3 31/31/3
f 48/16/4 6/13/4 31/14/4 50/15/4
f 25/29/1 29/32/1 34/31/1 33/30/1
f 29/53/4 39/50/4 42/51/4 34/52/4
f 46/77/6 41/78/6 42/79/6 50/80/6
f 44/81/4 49/82/4 40/83/4 36/84/4
f 43/41/2 35/12/2 41/11/2 46/10/2
f 49/50/4 48/51/4 39/52/4 40/53/4
f 28/12/2 27/11/2 37/10/2 38/41/2
f 28/47/5 38/46/5 36/49/5 26/48/5
f 27/12/2 25/11/2 35/10/2 37/41/2
f 12/50/4 6/51/4 48/52/4 49/53/4
f 8/36/2 43/33/2 46/34/2 32/35/2
f 5/13/4 12/14/4 49/15/4 44/16/4
f 32/21/6 46/22/6 50/23/6 31/24/6
f 39/70/4 48/67/4 50/68/4 42/69/4
f 38/62/2 37/71/2 45/72/2 47/73/2
f 38/46/5 47/47/5 44/48/5 36/49/5
f 37/55/2 35/74/2 43/75/2 45/76/2
