# Blender 5.0.0
# www.blender.org
mtllib HLR_EXT.mtl
o Ext001
v 0.050179 0.051104 -0.005000
v 0.050179 0.051104 -0.006600
v 0.046179 0.054734 -0.005000
v 0.053832 0.056608 -0.006600
v 0.046179 0.054734 -0.006600
v 0.053832 0.056608 -0.005000
v 0.057832 0.052982 -0.005000
v 0.046179 0.065157 -0.006600
v 0.046179 0.065157 -0.005000
v 0.053832 0.065157 -0.006600
v 0.053832 0.065157 -0.005000
v 0.057832 0.052982 -0.006600
v 0.050179 0.048601 -0.006600
v 0.050179 0.048601 -0.005000
v 0.057832 0.048601 -0.006600
v 0.057832 0.048601 -0.005000
v 0.053832 0.051104 -0.005000
v 0.053832 0.048601 -0.005000
v 0.053832 0.048601 -0.006600
v 0.050179 0.056608 -0.006600
v 0.050179 0.056608 -0.005000
v 0.050179 0.065157 -0.006600
v 0.050179 0.065157 -0.005000
v 0.053832 0.051104 -0.006600
v 0.050179 -0.051104 -0.005000
v 0.050179 -0.051104 -0.006600
v 0.046179 -0.054734 -0.005000
v 0.053832 -0.056608 -0.006600
v 0.046179 -0.054734 -0.006600
v 0.053832 -0.056608 -0.005000
v 0.057832 -0.052982 -0.005000
v 0.046179 -0.065157 -0.006600
v 0.046179 -0.065157 -0.005000
v 0.053832 -0.065157 -0.006600
v 0.053832 -0.065157 -0.005000
v 0.057832 -0.052982 -0.006600
v 0.050179 -0.048601 -0.006600
v 0.050179 -0.048601 -0.005000
v 0.057832 -0.048601 -0.006600
v 0.057832 -0.048601 -0.005000
v 0.053832 -0.051104 -0.005000
v 0.053832 -0.048601 -0.005000
v 0.053832 -0.048601 -0.006600
v 0.050179 -0.056608 -0.006600
v 0.050179 -0.056608 -0.005000
v 0.050179 -0.065157 -0.006600
v 0.050179 -0.065157 -0.005000
v 0.053832 -0.051104 -0.006600
vn -0.6720 -0.7406 -0.0000
vn 0.6716 0.7409 -0.0000
vn -0.0000 -0.0000 1.0000
vn -0.0000 -0.0000 -1.0000
vn -1.0000 -0.0000 -0.0000
vn 1.0000 -0.0000 -0.0000
vn -0.0000 1.0000 -0.0000
vn -0.0000 -1.0000 -0.0000
vn -0.6720 0.7406 -0.0000
vn 0.6716 -0.7409 -0.0000
vt 0.729831 0.465606
vt 0.729831 0.394628
vt 0.907279 0.394628
vt 0.907279 0.465606
vt 0.618774 0.394628
vt 0.618774 0.323651
vt 0.796222 0.323651
vt 0.796222 0.394628
vt 0.491397 0.809667
vt 0.429533 0.941721
vt 0.309718 0.809667
vt 0.309718 0.689068
vt 0.491397 0.189324
vt 0.491397 0.309923
vt 0.371703 0.441977
vt 0.309718 0.309923
vt 0.444888 0.536583
vt 0.444888 0.465606
vt 0.907279 0.536583
vt 0.528017 0.607560
vt 0.528017 0.536583
vt 0.907279 0.536583
vt 0.907279 0.607560
vt 0.773639 0.809667
vt 0.773639 0.941721
vt 0.773639 0.189324
vt 0.773639 0.309923
vt 0.745225 0.607560
vt 0.745225 0.536583
vt 0.712930 0.678537
vt 0.712930 0.607560
vt 0.907279 0.678538
vt 0.745225 0.536583
vt 0.745225 0.465606
vt 0.227071 0.809667
vt 0.227071 0.689068
vt 0.907279 0.323651
vt 0.227071 0.441977
vt 0.227071 0.309923
vt 0.309718 0.189324
vt 0.227071 0.189324
vt 0.371703 0.557014
vt 0.227071 0.557014
vt 0.567777 0.536583
vt 0.567777 0.465606
vt 0.567777 0.607560
vt 0.567777 0.536583
vt 0.773639 0.057270
vt 0.429534 0.057270
vt 0.773639 0.689068
vt 0.491397 0.689068
s 0
usemtl Material.055
f 2/1/1 1/2/1 3/3/1 5/4/1
f 4/5/2 6/6/2 7/7/2 12/8/2
f 21/9/3 3/10/3 1/11/3 17/12/3
f 20/13/4 4/14/4 12/15/4 24/16/4
f 5/17/5 3/18/5 9/4/5 8/19/5
f 10/20/6 11/21/6 6/22/6 4/23/6
f 23/24/3 9/25/3 3/10/3 21/9/3
f 22/26/4 10/27/4 4/14/4 20/13/4
f 22/28/7 23/29/7 11/22/7 10/23/7
f 12/30/6 7/31/6 16/23/6 15/32/6
f 19/33/8 18/34/8 14/4/8 13/19/8
f 17/12/3 1/11/3 14/35/3 18/36/3
f 13/8/5 14/7/5 1/37/5 2/3/5
f 24/16/4 12/15/4 15/38/4 19/39/4
f 2/40/4 24/16/4 19/39/4 13/41/4
f 7/42/3 17/12/3 18/36/3 16/43/3
f 15/44/8 16/45/8 18/34/8 19/33/8
f 8/46/7 9/47/7 23/29/7 22/28/7
f 8/48/4 22/26/4 20/13/4 5/49/4
f 11/50/3 23/24/3 21/9/3 6/51/3
f 5/49/4 20/13/4 24/16/4 2/40/4
f 6/51/3 21/9/3 17/12/3 7/42/3
f 26/1/9 29/4/9 27/3/9 25/2/9
f 28/5/10 36/8/10 31/7/10 30/6/10
f 45/9/3 41/12/3 25/11/3 27/10/3
f 44/13/4 48/16/4 36/15/4 28/14/4
f 29/17/5 32/19/5 33/4/5 27/18/5
f 34/20/6 28/23/6 30/22/6 35/21/6
f 47/24/3 45/9/3 27/10/3 33/25/3
f 46/26/4 44/13/4 28/14/4 34/27/4
f 46/28/8 34/23/8 35/22/8 47/29/8
f 36/30/6 39/32/6 40/23/6 31/31/6
f 43/33/7 37/19/7 38/4/7 42/34/7
f 41/12/3 42/36/3 38/35/3 25/11/3
f 37/8/5 26/3/5 25/37/5 38/7/5
f 48/16/4 43/39/4 39/38/4 36/15/4
f 26/40/4 37/41/4 43/39/4 48/16/4
f 31/42/3 40/43/3 42/36/3 41/12/3
f 39/44/7 43/33/7 42/34/7 40/45/7
f 32/46/8 46/28/8 47/29/8 33/47/8
f 32/48/4 29/49/4 44/13/4 46/26/4
f 35/50/3 30/51/3 45/9/3 47/24/3
f 29/49/4 26/40/4 48/16/4 44/13/4
f 30/51/3 31/42/3 41/12/3 45/9/3
