# Blender 5.0.0
# www.blender.org
mtllib HLR_PCB_V2.mtl
o HR_V2
v 0.053800 0.080281 -0.006600
v 0.053800 0.080281 -0.005000
v 0.053800 0.067581 -0.006600
v 0.053800 0.067581 -0.005000
v 0.046180 0.080281 -0.006600
v 0.046180 0.080281 -0.005000
v 0.046180 0.067581 -0.006600
v 0.046180 0.067581 -0.005000
v 0.049990 0.076798 -0.005000
v 0.049020 0.077200 -0.005000
v 0.048618 0.078170 -0.005000
v 0.049020 0.079140 -0.005000
v 0.049990 0.079542 -0.005000
v 0.050960 0.079140 -0.005000
v 0.051362 0.078170 -0.005000
v 0.050960 0.077200 -0.006574
v 0.050960 0.077200 -0.005000
v 0.053800 0.078170 -0.006600
v 0.053800 0.078170 -0.005000
v 0.046180 0.078170 -0.006600
v 0.046180 0.078170 -0.005000
v 0.053800 0.079140 -0.006600
v 0.046180 0.079140 -0.005000
v 0.053800 0.079140 -0.005000
v 0.046180 0.079140 -0.006600
v 0.053800 0.079542 -0.006600
v 0.046180 0.079542 -0.005000
v 0.053800 0.079542 -0.005000
v 0.046180 0.079542 -0.006600
v 0.053800 0.076798 -0.005000
v 0.046180 0.076798 -0.006600
v 0.053800 0.076798 -0.006600
v 0.046180 0.076798 -0.005000
v 0.053800 0.077200 -0.006600
v 0.046180 0.077200 -0.005000
v 0.053800 0.077200 -0.005000
v 0.046180 0.077200 -0.006600
v 0.049990 0.067581 -0.006600
v 0.049990 0.067581 -0.005000
v 0.049990 0.080281 -0.006600
v 0.049990 0.080281 -0.005000
v 0.051362 0.078170 -0.006574
v 0.050960 0.079140 -0.006574
v 0.049990 0.079542 -0.006583
v 0.049990 0.076798 -0.006583
v 0.048618 0.078170 -0.006574
v 0.049020 0.079140 -0.006574
v 0.049020 0.077200 -0.006574
vn 1.0000 -0.0000 -0.0000
vn -0.0000 -1.0000 -0.0000
vn -1.0000 -0.0000 -0.0000
vn -0.0000 1.0000 -0.0000
vn -0.0000 -0.0132 -0.9999
vn 0.0044 -0.0153 -0.9999
vn 0.0023 -0.0118 -0.9999
vn -0.0000 -0.0118 -0.9999
vn -0.0000 -0.0000 1.0000
vn 0.3827 0.9239 -0.0000
vn 0.9239 0.3827 -0.0000
vn 0.9239 -0.3827 -0.0000
vn 0.3827 -0.9239 -0.0000
vn -0.3827 -0.9239 -0.0000
vn -0.9239 -0.3827 -0.0000
vn -0.9239 0.3827 -0.0000
vn -0.3827 0.9239 -0.0000
vn 0.0076 0.0138 -0.9999
vn 0.0083 0.0104 -0.9999
vn 0.0099 -0.0000 -1.0000
vn 0.0083 -0.0104 -0.9999
vn 0.0076 -0.0138 -0.9999
vn -0.0000 0.0009 -1.0000
vn 0.0023 0.0009 -1.0000
vn 0.0044 0.0099 -0.9999
vn -0.0000 0.0045 -1.0000
vn -0.0044 0.0099 -0.9999
vn -0.0076 0.0138 -0.9999
vn -0.0083 0.0104 -0.9999
vn -0.0023 0.0009 -1.0000
vn -0.0083 -0.0104 -0.9999
vn -0.0076 -0.0138 -0.9999
vn -0.0044 -0.0153 -0.9999
vn -0.0099 -0.0000 -1.0000
vn -0.0023 -0.0118 -0.9999
vt 0.070374 0.641144
vt -0.005034 0.641144
vt -0.005034 0.177802
vt 0.070374 0.177802
vt 0.261919 0.892784
vt 0.261919 0.816255
vt 0.453445 0.816255
vt 0.453445 0.892784
vt 0.528853 0.214969
vt 0.453445 0.214969
vt 0.453445 0.177802
vt 0.528853 0.177802
vt 0.261919 0.177789
vt 0.261919 0.101259
vt 0.453445 0.101259
vt 0.453445 0.177789
vt 0.261919 0.216116
vt 0.070202 0.216115
vt 0.070202 0.178913
vt 0.261919 0.178913
vt 0.738536 0.215004
vt 0.546818 0.215004
vt 0.546818 0.177802
vt 0.738536 0.177802
vt 0.213140 0.318031
vt 0.309319 0.318031
vt 0.309319 0.253834
vt 0.213140 0.253834
vt 0.213140 0.253835
vt 0.689718 0.332858
vt 0.546818 0.332858
vt 0.546818 0.284041
vt 0.669498 0.284041
vt 0.213102 0.333971
vt 0.070202 0.333969
vt 0.070202 0.285152
vt 0.192882 0.285154
vt 0.528853 0.332712
vt 0.453445 0.332712
vt 0.453445 0.283941
vt 0.528853 0.283941
vt 0.070374 0.758887
vt -0.005034 0.758887
vt -0.005034 0.710116
vt 0.070374 0.710117
vt 0.070374 0.779088
vt -0.005034 0.779088
vt 0.546818 0.235225
vt 0.689718 0.235225
vt 0.070202 0.236336
vt 0.213102 0.236338
vt 0.453445 0.235171
vt 0.528853 0.235171
vt 0.070374 0.816255
vt -0.005034 0.816255
vt 0.528853 0.816255
vt 0.453445 0.352913
vt 0.528853 0.352913
vt 0.261919 0.817969
vt 0.070202 0.817969
vt 0.070202 0.354189
vt 0.261919 0.354191
vt 0.738536 0.816859
vt 0.546818 0.816859
vt 0.546818 0.353079
vt 0.738536 0.353079
vt 0.070374 0.661346
vt -0.005034 0.661345
vt 0.453636 0.354189
vt 0.310736 0.333971
vt 0.453636 0.333969
vt 0.453636 0.817969
vt 0.453636 0.236336
vt 0.310736 0.236338
vt 0.453636 0.216115
vt 0.453636 0.285152
vt 0.330956 0.285154
vt 0.453636 0.178913
vt 0.070202 0.892784
vt 0.070202 0.816255
vt 0.070202 0.177789
vt 0.070202 0.101259
vt 0.930252 0.215004
vt 0.930252 0.177802
vt 0.930252 0.332858
vt 0.787352 0.332858
vt 0.807572 0.284041
vt 0.930252 0.284041
vt 0.787352 0.235225
vt 0.930252 0.235225
vt 0.930252 0.816859
vt 0.930252 0.353079
s 1
usemtl Material.006
f 32/1/1 30/2/1 4/3/1 3/4/1
f 38/5/2 39/6/2 8/7/2 7/8/2
f 29/9/3 27/10/3 6/11/3 5/12/3
f 40/13/4 41/14/4 2/15/4 1/16/4
f 44/17/5 29/18/6 5/19/7 40/20/8
f 13/21/9 28/22/9 2/23/9 41/24/9
f 45/25/10 48/26/10 10/27/10 9/28/10
f 48/26/11 46/25/11 11/29/11 10/27/11
f 46/25/12 47/26/12 12/27/12 11/29/12
f 47/26/13 44/25/13 13/29/13 12/27/13
f 44/25/14 43/26/14 14/27/14 13/29/14
f 43/26/15 42/25/15 15/29/15 14/27/15
f 42/25/16 16/26/16 17/27/16 15/29/16
f 16/26/17 45/25/17 9/28/17 17/27/17
f 17/30/9 36/31/9 19/32/9 15/33/9
f 48/34/18 37/35/19 20/36/20 46/37/20
f 37/38/3 35/39/3 21/40/3 20/41/3
f 22/42/1 24/43/1 19/44/1 18/45/1
f 26/46/1 28/47/1 24/43/1 22/42/1
f 15/33/9 19/32/9 24/48/9 14/49/9
f 46/37/20 20/36/20 25/50/21 47/51/22
f 20/41/3 21/40/3 23/52/3 25/53/3
f 1/54/1 2/55/1 28/47/1 26/46/1
f 14/49/9 24/48/9 28/22/9 13/21/9
f 47/51/22 25/50/21 29/18/6 44/17/5
f 25/53/3 23/52/3 27/10/3 29/9/3
f 7/56/3 8/7/3 33/57/3 31/58/3
f 38/59/23 7/60/24 31/61/25 45/62/26
f 39/63/9 4/64/9 30/65/9 9/66/9
f 34/67/1 36/68/1 30/2/1 32/1/1
f 18/45/1 19/44/1 36/68/1 34/67/1
f 31/58/3 33/57/3 35/39/3 37/38/3
f 45/62/26 31/61/25 37/35/19 48/34/18
f 9/66/9 30/65/9 36/31/9 17/30/9
f 32/69/27 45/62/26 16/70/28 34/71/29
f 3/72/30 38/59/23 45/62/26 32/69/27
f 22/73/31 43/74/32 44/17/5 26/75/33
f 18/76/34 42/77/34 43/74/32 22/73/31
f 34/71/29 16/70/28 42/77/34 18/76/34
f 26/75/33 44/17/5 40/20/8 1/78/35
f 3/79/2 4/80/2 39/6/2 38/5/2
f 5/81/4 6/82/4 41/14/4 40/13/4
f 27/83/9 13/21/9 41/24/9 6/84/9
f 35/85/9 10/86/9 11/87/9 21/88/9
f 21/88/9 11/87/9 12/89/9 23/90/9
f 23/90/9 12/89/9 13/21/9 27/83/9
f 8/91/9 39/63/9 9/66/9 33/92/9
f 33/92/9 9/66/9 10/86/9 35/85/9
o HL_V2
v 0.046180 -0.080281 -0.006600
v 0.046180 -0.080281 -0.005000
v 0.046180 -0.067581 -0.006600
v 0.046180 -0.067581 -0.005000
v 0.053800 -0.080281 -0.006600
v 0.053800 -0.080281 -0.005000
v 0.053800 -0.067581 -0.006600
v 0.053800 -0.067581 -0.005000
v 0.049990 -0.076798 -0.005000
v 0.050960 -0.077200 -0.005000
v 0.051362 -0.078170 -0.005000
v 0.050960 -0.079140 -0.005000
v 0.049990 -0.079542 -0.005000
v 0.049020 -0.079140 -0.005000
v 0.048618 -0.078170 -0.005000
v 0.049020 -0.077200 -0.006574
v 0.049020 -0.077200 -0.005000
v 0.046180 -0.078170 -0.006600
v 0.046180 -0.078170 -0.005000
v 0.053800 -0.078170 -0.006600
v 0.053800 -0.078170 -0.005000
v 0.046180 -0.079140 -0.006600
v 0.053800 -0.079140 -0.005000
v 0.046180 -0.079140 -0.005000
v 0.053800 -0.079140 -0.006600
v 0.046180 -0.079542 -0.006600
v 0.053800 -0.079542 -0.005000
v 0.046180 -0.079542 -0.005000
v 0.053800 -0.079542 -0.006600
v 0.046180 -0.076798 -0.005000
v 0.053800 -0.076798 -0.006600
v 0.046180 -0.076798 -0.006600
v 0.053800 -0.076798 -0.005000
v 0.046180 -0.077200 -0.006600
v 0.053800 -0.077200 -0.005000
v 0.046180 -0.077200 -0.005000
v 0.053800 -0.077200 -0.006600
v 0.049990 -0.067581 -0.006600
v 0.049990 -0.067581 -0.005000
v 0.049990 -0.080281 -0.006600
v 0.049990 -0.080281 -0.005000
v 0.048618 -0.078170 -0.006574
v 0.049020 -0.079140 -0.006574
v 0.049990 -0.079542 -0.006583
v 0.049990 -0.076798 -0.006583
v 0.051362 -0.078170 -0.006574
v 0.050960 -0.079140 -0.006574
v 0.050960 -0.077200 -0.006574
vn -1.0000 -0.0000 -0.0000
vn -0.0000 1.0000 -0.0000
vn 1.0000 -0.0000 -0.0000
vn -0.0000 -1.0000 -0.0000
vn -0.0000 0.0132 -0.9999
vn -0.0044 0.0153 -0.9999
vn -0.0023 0.0118 -0.9999
vn -0.0000 0.0118 -0.9999
vn -0.0000 -0.0000 1.0000
vn -0.3827 -0.9239 -0.0000
vn -0.9239 -0.3827 -0.0000
vn -0.9239 0.3827 -0.0000
vn -0.3827 0.9239 -0.0000
vn 0.3827 0.9239 -0.0000
vn 0.9239 0.3827 -0.0000
vn 0.9239 -0.3827 -0.0000
vn 0.3827 -0.9239 -0.0000
vn -0.0076 -0.0138 -0.9999
vn -0.0083 -0.0104 -0.9999
vn -0.0099 -0.0000 -1.0000
vn -0.0083 0.0104 -0.9999
vn -0.0076 0.0138 -0.9999
vn -0.0000 -0.0009 -1.0000
vn -0.0023 -0.0009 -1.0000
vn -0.0044 -0.0099 -0.9999
vn -0.0000 -0.0045 -1.0000
vn 0.0044 -0.0099 -0.9999
vn 0.0076 -0.0138 -0.9999
vn 0.0083 -0.0104 -0.9999
vn 0.0023 -0.0009 -1.0000
vn 0.0083 0.0104 -0.9999
vn 0.0076 0.0138 -0.9999
vn 0.0044 0.0153 -0.9999
vn 0.0099 -0.0000 -1.0000
vn 0.0023 0.0118 -0.9999
vt 0.070374 0.641144
vt -0.005034 0.641144
vt -0.005034 0.177802
vt 0.070374 0.177802
vt 0.261919 0.892784
vt 0.261919 0.816255
vt 0.453445 0.816255
vt 0.453445 0.892784
vt 0.528853 0.214969
vt 0.453445 0.214969
vt 0.453445 0.177802
vt 0.528853 0.177802
vt 0.261919 0.177789
vt 0.261919 0.101259
vt 0.453445 0.101259
vt 0.453445 0.177789
vt 0.261919 0.216116
vt 0.070202 0.216115
vt 0.070202 0.178913
vt 0.261919 0.178913
vt 0.738536 0.215004
vt 0.546818 0.215004
vt 0.546818 0.177802
vt 0.738536 0.177802
vt 0.213140 0.318031
vt 0.309319 0.318031
vt 0.309319 0.253834
vt 0.213140 0.253834
vt 0.213140 0.253835
vt 0.689718 0.332858
vt 0.546818 0.332858
vt 0.546818 0.284041
vt 0.669498 0.284041
vt 0.213102 0.333971
vt 0.070202 0.333969
vt 0.070202 0.285152
vt 0.192882 0.285154
vt 0.528853 0.332712
vt 0.453445 0.332712
vt 0.453445 0.283941
vt 0.528853 0.283941
vt 0.070374 0.758887
vt -0.005034 0.758887
vt -0.005034 0.710116
vt 0.070374 0.710117
vt 0.070374 0.779088
vt -0.005034 0.779088
vt 0.546818 0.235225
vt 0.689718 0.235225
vt 0.070202 0.236336
vt 0.213102 0.236338
vt 0.453445 0.235171
vt 0.528853 0.235171
vt 0.070374 0.816255
vt -0.005034 0.816255
vt 0.528853 0.816255
vt 0.453445 0.352913
vt 0.528853 0.352913
vt 0.261919 0.817969
vt 0.070202 0.817969
vt 0.070202 0.354189
vt 0.261919 0.354191
vt 0.738536 0.816859
vt 0.546818 0.816859
vt 0.546818 0.353079
vt 0.738536 0.353079
vt 0.070374 0.661346
vt -0.005034 0.661345
vt 0.453636 0.354189
vt 0.310736 0.333971
vt 0.453636 0.333969
vt 0.453636 0.817969
vt 0.453636 0.236336
vt 0.310736 0.236338
vt 0.453636 0.216115
vt 0.453636 0.285152
vt 0.330956 0.285154
vt 0.453636 0.178913
vt 0.070202 0.892784
vt 0.070202 0.816255
vt 0.070202 0.177789
vt 0.070202 0.101259
vt 0.930252 0.215004
vt 0.930252 0.177802
vt 0.930252 0.332858
vt 0.787352 0.332858
vt 0.807572 0.284041
vt 0.930252 0.284041
vt 0.787352 0.235225
vt 0.930252 0.235225
vt 0.930252 0.816859
vt 0.930252 0.353079
s 1
usemtl Material.007
f 80/93/36 78/94/36 52/95/36 51/96/36
f 86/97/37 87/98/37 56/99/37 55/100/37
f 77/101/38 75/102/38 54/103/38 53/104/38
f 88/105/39 89/106/39 50/107/39 49/108/39
f 92/109/40 77/110/41 53/111/42 88/112/43
f 61/113/44 76/114/44 50/115/44 89/116/44
f 93/117/45 96/118/45 58/119/45 57/120/45
f 96/118/46 94/117/46 59/121/46 58/119/46
f 94/117/47 95/118/47 60/119/47 59/121/47
f 95/118/48 92/117/48 61/121/48 60/119/48
f 92/117/49 91/118/49 62/119/49 61/121/49
f 91/118/50 90/117/50 63/121/50 62/119/50
f 90/117/51 64/118/51 65/119/51 63/121/51
f 64/118/52 93/117/52 57/120/52 65/119/52
f 65/122/44 84/123/44 67/124/44 63/125/44
f 96/126/53 85/127/54 68/128/55 94/129/55
f 85/130/38 83/131/38 69/132/38 68/133/38
f 70/134/36 72/135/36 67/136/36 66/137/36
f 74/138/36 76/139/36 72/135/36 70/134/36
f 63/125/44 67/124/44 72/140/44 62/141/44
f 94/129/55 68/128/55 73/142/56 95/143/57
f 68/133/38 69/132/38 71/144/38 73/145/38
f 49/146/36 50/147/36 76/139/36 74/138/36
f 62/141/44 72/140/44 76/114/44 61/113/44
f 95/143/57 73/142/56 77/110/41 92/109/40
f 73/145/38 71/144/38 75/102/38 77/101/38
f 55/148/38 56/99/38 81/149/38 79/150/38
f 86/151/58 55/152/59 79/153/60 93/154/61
f 87/155/44 52/156/44 78/157/44 57/158/44
f 82/159/36 84/160/36 78/94/36 80/93/36
f 66/137/36 67/136/36 84/160/36 82/159/36
f 79/150/38 81/149/38 83/131/38 85/130/38
f 93/154/61 79/153/60 85/127/54 96/126/53
f 57/158/44 78/157/44 84/123/44 65/122/44
f 80/161/62 93/154/61 64/162/63 82/163/64
f 51/164/65 86/151/58 93/154/61 80/161/62
f 70/165/66 91/166/67 92/109/40 74/167/68
f 66/168/69 90/169/69 91/166/67 70/165/66
f 82/163/64 64/162/63 90/169/69 66/168/69
f 74/167/68 92/109/40 88/112/43 49/170/70
f 51/171/37 52/172/37 87/98/37 86/97/37
f 53/173/39 54/174/39 89/106/39 88/105/39
f 75/175/44 61/113/44 89/116/44 54/176/44
f 83/177/44 58/178/44 59/179/44 69/180/44
f 69/180/44 59/179/44 60/181/44 71/182/44
f 71/182/44 60/181/44 61/113/44 75/175/44
f 56/183/44 87/155/44 57/158/44 81/184/44
f 81/184/44 57/158/44 58/178/44 83/177/44
