# Blender 5.0.0
# www.blender.org
mtllib Nano_PCB.mtl
o PCB_nano
v 0.029668 -0.021377 0.006203
v 0.029668 -0.021377 0.007703
v 0.029668 0.021623 0.006203
v 0.029668 0.021623 0.007703
v 0.047168 -0.021377 0.006203
v 0.047168 -0.021377 0.007703
v 0.047168 0.021623 0.006203
v 0.047168 0.021623 0.007703
v 0.043564 -0.006098 0.007703
v 0.038445 -0.000979 0.008703
v 0.043564 -0.006098 0.008703
v 0.038445 -0.000979 0.007703
v 0.038445 -0.011218 0.007703
v 0.038445 -0.011218 0.008703
v 0.033327 -0.006098 0.007703
v 0.033327 -0.006098 0.008703
vn -1.0000 -0.0000 -0.0000
vn -0.0000 1.0000 -0.0000
vn 1.0000 -0.0000 -0.0000
vn -0.0000 -1.0000 -0.0000
vn -0.0000 -0.0000 -1.0000
vn -0.0000 -0.0000 1.0000
vn -0.0000 0.8165 -0.5773
vn -0.0000 0.8165 0.5773
vn 0.8165 -0.0000 0.5774
vn 0.8165 -0.0000 -0.5774
vn -0.8165 -0.0000 -0.5774
vn -0.8165 -0.0000 0.5774
vn -0.0000 -0.8165 0.5773
vn -0.0000 -0.8165 -0.5773
vt 0.088604 0.055914
vt 0.088604 0.090798
vt 0.588604 0.090798
vt 0.588604 0.055914
vt 0.385115 0.055914
vt 0.385115 0.090798
vt 0.524324 0.402016
vt 0.524324 0.600157
vt 0.767754 0.600157
vt 0.767754 0.402015
vt 0.932453 0.147169
vt 0.932453 0.851888
vt 0.066656 0.851887
vt 0.066656 0.147169
vt 0.307932 0.451985
vt 0.299710 0.468429
vt 0.385288 0.639585
vt 0.393510 0.623141
vt 0.393510 0.623141
vt 0.385288 0.639585
vt 0.276239 0.497990
vt 0.375291 0.299980
vt 0.474323 0.497990
vt 0.375291 0.695960
s 0
usemtl Nano
f 1/1/1 2/2/1 4/3/1 3/4/1
f 3/5/2 4/6/2 8/3/2 7/4/2
f 7/4/3 8/3/3 6/2/3 5/1/3
f 5/4/4 6/3/4 2/6/4 1/5/4
f 3/7/5 7/8/5 5/9/5 1/10/5
f 8/11/6 4/12/6 2/13/6 6/14/6
s 1
f 12/15/7 10/16/8 11/17/9 9/18/10
f 15/19/11 16/20/12 10/16/8 12/15/7
f 14/21/13 11/22/9 10/23/8 16/24/12
f 13/15/14 14/16/13 16/20/12 15/19/11
f 9/22/10 13/21/14 15/24/11 12/23/7
f 9/18/10 11/17/9 14/16/13 13/15/14
