# Blender 5.0.0
# www.blender.org
mtllib QTR-8A_PCB.mtl
o QTR-8A
v 0.089626 -0.033500 -0.006600
v 0.089626 -0.033500 -0.005000
v 0.089626 0.033500 -0.006600
v 0.089626 0.033500 -0.005000
v 0.106627 -0.033500 -0.006600
v 0.106627 -0.033500 -0.005000
v 0.106627 0.033500 -0.006600
v 0.106627 0.033500 -0.005000
v 0.093209 -0.017110 -0.006600
v 0.093209 -0.017110 -0.005000
v 0.094407 -0.017606 -0.006600
v 0.094407 -0.017606 -0.005000
v 0.094904 -0.018805 -0.006600
v 0.094904 -0.018805 -0.005000
v 0.094407 -0.020004 -0.006600
v 0.094407 -0.020004 -0.005000
v 0.093209 -0.020500 -0.006600
v 0.093209 -0.020500 -0.005000
v 0.092010 -0.020004 -0.006600
v 0.092010 -0.020004 -0.005000
v 0.091514 -0.018805 -0.006600
v 0.091514 -0.018805 -0.005000
v 0.092010 -0.017606 -0.006600
v 0.092010 -0.017606 -0.005000
v 0.089626 -0.020500 -0.006600
v 0.089626 -0.020500 -0.005000
v 0.106627 -0.020500 -0.006600
v 0.106627 -0.020500 -0.005000
v 0.089626 0.020500 -0.005000
v 0.106627 0.020500 -0.006600
v 0.089626 0.020500 -0.006600
v 0.106627 0.020500 -0.005000
v 0.093209 0.020500 -0.006600
v 0.093209 0.020500 -0.005000
v 0.094407 0.020004 -0.006600
v 0.094407 0.020004 -0.005000
v 0.094904 0.018805 -0.006600
v 0.094904 0.018805 -0.005000
v 0.094407 0.017606 -0.006600
v 0.094407 0.017606 -0.005000
v 0.093209 0.017110 -0.006600
v 0.093209 0.017110 -0.005000
v 0.092010 0.017606 -0.006600
v 0.092010 0.017606 -0.005000
v 0.091514 0.018805 -0.006600
v 0.091514 0.018805 -0.005000
v 0.092010 0.020004 -0.006600
v 0.092010 0.020004 -0.005000
v 0.089626 -0.017110 -0.006600
v 0.106627 -0.017110 -0.005000
v 0.089626 -0.017110 -0.005000
v 0.106627 -0.017110 -0.006600
v 0.089626 -0.018805 -0.006600
v 0.106627 -0.018805 -0.005000
v 0.089626 -0.018805 -0.005000
v 0.106627 -0.018805 -0.006600
v 0.089626 -0.017606 -0.005000
v 0.106627 -0.017606 -0.006600
v 0.089626 -0.017606 -0.006600
v 0.106627 -0.017606 -0.005000
v 0.089626 -0.020004 -0.006600
v 0.106627 -0.020004 -0.005000
v 0.089626 -0.020004 -0.005000
v 0.106627 -0.020004 -0.006600
v 0.089626 0.017110 -0.005000
v 0.106627 0.017110 -0.006600
v 0.089626 0.017110 -0.006600
v 0.106627 0.017110 -0.005000
v 0.089626 0.018805 -0.005000
v 0.106627 0.018805 -0.006600
v 0.089626 0.018805 -0.006600
v 0.106627 0.018805 -0.005000
v 0.089626 0.020004 -0.005000
v 0.106627 0.020004 -0.006600
v 0.089626 0.020004 -0.006600
v 0.106627 0.020004 -0.005000
v 0.089626 0.017606 -0.006600
v 0.106627 0.017606 -0.005000
v 0.089626 0.017606 -0.005000
v 0.106627 0.017606 -0.006600
v 0.093209 0.033500 -0.006600
v 0.093209 0.033500 -0.005000
v 0.093209 -0.033500 -0.006600
v 0.093209 -0.033500 -0.005000
vn -1.0000 -0.0000 -0.0000
vn -0.0000 1.0000 -0.0000
vn 1.0000 -0.0000 -0.0000
vn -0.0000 -1.0000 -0.0000
vn -0.0000 -0.0000 -1.0000
vn -0.0000 -0.0000 1.0000
vn -0.3827 -0.9239 -0.0000
vn -0.9239 -0.3827 -0.0000
vn -0.9239 0.3827 -0.0000
vn -0.3827 0.9239 -0.0000
vn 0.3827 0.9239 -0.0000
vn 0.9239 0.3827 -0.0000
vn 0.9239 -0.3827 -0.0000
vn 0.3827 -0.9239 -0.0000
vt 0.755784 0.494993
vt 0.755784 0.484978
vt 0.918522 0.484978
vt 0.918522 0.494993
vt 0.750555 0.515022
vt 0.750555 0.505007
vt 0.918522 0.505007
vt 0.918522 0.515022
vt 0.755784 0.505007
vt 0.660866 0.515022
vt 0.660866 0.505007
vt 0.705711 0.505007
vt 0.705711 0.515022
vt 0.240869 0.127248
vt 0.240869 0.466682
vt 0.076435 0.466682
vt 0.076435 0.127248
vt 0.759469 0.621577
vt 0.759469 0.530953
vt 0.923903 0.530953
vt 0.923903 0.621577
vt 0.246975 0.634241
vt 0.280853 0.634241
vt 0.280853 0.611629
vt 0.246975 0.611629
vt 0.246975 0.611629
vt 0.247149 0.157568
vt 0.247149 0.466682
vt 0.753189 0.591256
vt 0.753189 0.530953
vt 0.749569 0.505007
vt 0.749569 0.494993
vt 0.079794 0.494993
vt 0.079794 0.484978
vt 0.242533 0.484978
vt 0.242533 0.494993
vt 0.079794 0.505007
vt 0.242533 0.505007
vt 0.076435 0.621577
vt 0.076435 0.530953
vt 0.240869 0.530953
vt 0.240869 0.621577
vt 0.923903 0.127248
vt 0.923903 0.466682
vt 0.759469 0.466682
vt 0.759469 0.127248
vt 0.749569 0.484978
vt 0.278755 0.494993
vt 0.278755 0.484978
vt 0.284970 0.484978
vt 0.284970 0.494993
vt 0.284970 0.505007
vt 0.713347 0.494993
vt 0.713347 0.505007
vt 0.283748 0.621577
vt 0.283748 0.530953
vt 0.716589 0.530953
vt 0.716589 0.621577
vt 0.716589 0.127248
vt 0.716589 0.466682
vt 0.283748 0.466682
vt 0.283748 0.127248
vt 0.248747 0.494993
vt 0.248747 0.484978
vt 0.263751 0.484978
vt 0.263751 0.494993
vt 0.719562 0.505007
vt 0.719562 0.494993
vt 0.734565 0.494993
vt 0.734565 0.505007
vt 0.722869 0.591256
vt 0.722869 0.530953
vt 0.738029 0.530953
vt 0.738029 0.578698
vt 0.277469 0.157568
vt 0.277469 0.466682
vt 0.262309 0.466682
vt 0.262309 0.170127
vt 0.722869 0.157569
vt 0.722869 0.466682
vt 0.277469 0.591256
vt 0.277469 0.530953
vt 0.278755 0.505007
vt 0.713347 0.484978
vt 0.248747 0.505007
vt 0.263751 0.505007
vt 0.247149 0.591256
vt 0.247149 0.530953
vt 0.262309 0.530953
vt 0.262309 0.578698
vt 0.753189 0.157569
vt 0.753189 0.466682
vt 0.738029 0.466682
vt 0.738029 0.170127
vt 0.719562 0.484978
vt 0.734565 0.484978
vt 0.262309 0.961011
vt 0.262309 0.664456
vt 0.277469 0.651897
vt 0.277469 0.961011
vt 0.240869 0.961011
vt 0.247149 0.651897
vt 0.247149 0.961011
vt 0.283748 0.961011
vt 0.738029 0.961011
vt 0.738029 0.664456
vt 0.753189 0.651897
vt 0.753189 0.961011
vt 0.716589 0.961011
vt 0.722869 0.651897
vt 0.722869 0.961011
vt 0.076435 0.961011
vt 0.759469 0.961011
vt 0.923903 0.961011
vt 0.492899 0.515022
vt 0.492899 0.505007
vt 0.705711 0.505007
vt 0.240869 0.036623
vt 0.076435 0.036623
vt 0.247149 0.036623
vt 0.247149 0.096927
vt 0.923903 0.036624
vt 0.759469 0.036624
vt 0.716589 0.036624
vt 0.283748 0.036623
vt 0.277469 0.036623
vt 0.277469 0.096927
vt 0.262309 0.084368
vt 0.262309 0.036623
vt 0.722869 0.036624
vt 0.722869 0.096927
vt 0.753189 0.036624
vt 0.753189 0.096927
vt 0.738029 0.084369
vt 0.738029 0.036624
s 1
usemtl Material.022
f 31/1/1 29/2/1 4/3/1 3/4/1
f 81/5/2 82/6/2 8/7/2 7/8/2
f 27/9/3 28/1/3 6/4/3 5/7/3
f 83/10/4 84/11/4 2/12/4 1/13/4
f 17/14/5 27/15/5 5/16/5 83/17/5
f 18/18/6 26/19/6 2/20/6 84/21/6
f 9/22/7 11/23/7 12/24/7 10/25/7
f 11/23/8 13/22/8 14/26/8 12/24/8
f 13/22/9 15/23/9 16/24/9 14/26/9
f 15/23/10 17/22/10 18/26/10 16/24/10
f 17/22/11 19/23/11 20/24/11 18/26/11
f 19/23/12 21/22/12 22/26/12 20/24/12
f 15/27/5 64/28/5 27/15/5 17/14/5
f 21/22/13 23/23/13 24/24/13 22/26/13
f 23/23/14 9/22/14 10/25/14 24/24/14
f 20/29/6 63/30/6 26/19/6 18/18/6
f 64/31/3 62/32/3 28/1/3 27/9/3
f 1/33/1 2/34/1 26/35/1 25/36/1
f 7/37/3 8/33/3 32/36/3 30/38/3
f 82/39/6 4/40/6 29/41/6 34/42/6
f 81/43/5 7/44/5 30/45/5 33/46/5
f 75/32/1 73/47/1 29/2/1 31/1/1
f 33/22/7 35/23/7 36/24/7 34/26/7
f 35/23/8 37/22/8 38/26/8 36/24/8
f 37/22/9 39/23/9 40/24/9 38/26/9
f 39/23/10 41/22/10 42/26/10 40/24/10
f 41/22/11 43/23/11 44/24/11 42/26/11
f 43/23/12 45/22/12 46/26/12 44/24/12
f 45/22/13 47/23/13 48/24/13 46/26/13
f 47/23/14 33/22/14 34/26/14 48/24/14
f 59/48/1 57/49/1 51/50/1 49/51/1
f 66/52/3 68/51/3 50/53/3 52/54/3
f 42/55/6 65/56/6 51/57/6 10/58/6
f 41/59/5 66/60/5 52/61/5 9/62/5
f 61/63/1 63/64/1 55/65/1 53/66/1
f 58/67/3 60/68/3 54/69/3 56/70/3
f 24/71/6 57/72/6 55/73/6 22/74/6
f 11/75/5 58/76/5 56/77/5 13/78/5
f 9/62/5 52/61/5 58/76/5 11/75/5
f 10/58/6 51/57/6 57/72/6 24/71/6
f 52/54/3 50/53/3 60/68/3 58/67/3
f 53/66/1 55/65/1 57/49/1 59/48/1
f 25/36/1 26/35/1 63/64/1 61/63/1
f 56/70/3 54/69/3 62/32/3 64/31/3
f 22/74/6 55/73/6 63/30/6 20/29/6
f 13/78/5 56/77/5 64/28/5 15/27/5
f 39/79/5 80/80/5 66/60/5 41/59/5
f 44/81/6 79/82/6 65/56/6 42/55/6
f 80/83/3 78/48/3 68/51/3 66/52/3
f 49/51/1 51/50/1 65/84/1 67/53/1
f 74/85/3 76/63/3 72/66/3 70/86/3
f 48/87/6 73/88/6 69/89/6 46/90/6
f 35/91/5 74/92/5 70/93/5 37/94/5
f 77/68/1 79/95/1 69/96/1 71/69/1
f 33/46/5 30/45/5 74/92/5 35/91/5
f 34/42/6 29/41/6 73/88/6 48/87/6
f 30/38/3 32/36/3 76/63/3 74/85/3
f 71/69/1 69/96/1 73/47/1 75/32/1
f 67/53/1 65/84/1 79/95/1 77/68/1
f 70/86/3 72/66/3 78/48/3 80/83/3
f 46/90/6 69/89/6 79/82/6 44/81/6
f 37/94/5 70/93/5 80/80/5 39/79/5
f 72/97/6 38/98/6 40/99/6 78/100/6
f 32/101/6 34/42/6 36/102/6 76/103/6
f 76/103/6 36/102/6 38/98/6 72/97/6
f 78/100/6 40/99/6 42/55/6 68/104/6
f 54/105/6 14/106/6 16/107/6 62/108/6
f 50/109/6 10/58/6 12/110/6 60/111/6
f 60/111/6 12/110/6 14/106/6 54/105/6
f 68/104/6 42/55/6 10/58/6 50/109/6
f 8/112/6 82/39/6 34/42/6 32/101/6
f 62/108/6 16/107/6 18/18/6 28/113/6
f 28/113/6 18/18/6 84/21/6 6/114/6
f 5/115/4 6/116/4 84/11/4 83/10/4
f 3/13/2 4/117/2 82/6/2 81/5/2
f 25/118/5 17/14/5 83/17/5 1/119/5
f 61/120/5 19/121/5 17/14/5 25/118/5
f 3/122/5 81/43/5 33/46/5 31/123/5
f 67/124/5 41/59/5 9/62/5 49/125/5
f 59/126/5 23/127/5 21/128/5 53/129/5
f 49/125/5 9/62/5 23/127/5 59/126/5
f 53/129/5 21/128/5 19/121/5 61/120/5
f 77/130/5 43/131/5 41/59/5 67/124/5
f 75/132/5 47/133/5 45/134/5 71/135/5
f 31/123/5 33/46/5 47/133/5 75/132/5
f 71/135/5 45/134/5 43/131/5 77/130/5
