# Blender v3.4.0 OBJ File: ''
# www.blender.org
mtllib Lights.mtl
o obj_0.001
v -3.699000 4.853000 2.473001
v -3.699000 5.147999 2.623001
v -3.699000 5.179999 1.683001
v -3.699000 4.407000 3.202001
v -3.699000 5.494999 1.785001
v -3.699000 3.851999 3.852001
v -3.699000 4.673999 3.396001
v 5.402000 -1.667000 -1.556000
v 5.402000 -1.667000 -2.222000
v 5.402000 1.667000 -2.222000
v -3.699000 3.201999 4.407001
v -3.699000 3.395999 4.674000
v -3.699000 2.472999 4.853001
v -3.699000 2.622999 5.148000
v -3.699000 4.085999 4.086000
v -3.699000 1.682999 5.180000
v -3.699000 0.903999 5.707000
v -3.699000 1.784999 5.495000
v -3.699000 0.851999 5.380000
v 4.804000 -1.667000 -2.222000
v -3.699000 -0.000001 5.447000
v -3.699000 -0.000001 5.778000
v 4.804000 -1.667000 -1.556000
v -3.699000 5.707000 0.904001
v -3.699000 5.380000 0.852001
v -3.699000 5.778000 0.000001
v -3.699000 5.447000 0.000001
v -3.699000 -5.380000 -0.852001
v -3.699000 -5.447000 -0.000001
v 5.901000 -5.447000 -0.000001
v 5.901000 -5.380000 -0.852001
v -3.699000 -2.473001 4.853000
v -3.699000 -2.623001 5.147999
v -3.699000 -1.683001 5.179999
v -3.699000 -3.202001 4.407000
v -3.699000 -1.785001 5.494999
v -3.699000 -3.852001 3.851999
v -3.699000 -3.396001 4.673999
v -3.699000 -5.179999 -1.683001
v 5.901000 -5.179999 -1.683001
v -3.699000 -4.407001 3.201999
v -3.699000 -4.674000 3.395999
v -3.699000 -4.853001 2.472999
v -3.699000 -5.148000 2.622999
v -3.699000 -4.086000 4.085999
v -3.699000 -5.180000 1.682999
v -3.699000 -5.380000 0.851999
v -3.699000 -5.495000 1.784999
v -3.699000 -4.853000 -2.473001
v -3.699000 -5.778000 -0.000001
v 5.901000 -4.853000 -2.473001
v 5.901000 -4.407000 -3.202001
v -3.699000 -4.407000 -3.202001
v 5.901000 -5.180000 1.682999
v 5.901000 -5.380000 0.851999
v 5.901000 -3.851999 -3.852001
v -3.699000 -3.851999 -3.852001
v 5.901000 -3.201999 -4.407001
v -3.699000 -3.201999 -4.407001
v 5.901000 5.778000 0.000001
v 5.901000 5.707000 -0.903999
v -3.699000 5.707000 -0.903999
v 5.901000 5.495000 -1.784999
v -3.699000 5.495000 -1.784999
v -3.699000 -2.472999 -4.853001
v 5.901000 -2.472999 -4.853001
v 5.901000 5.148000 -2.622999
v -3.699000 5.148000 -2.622999
v -3.699000 -1.682999 -5.180000
v 5.901000 -1.682999 -5.180000
v 5.901000 4.674000 -3.395999
v -3.699000 4.674000 -3.395999
v 5.901000 4.086000 -4.085999
v -3.699000 4.086000 -4.085999
v -3.699000 -0.851999 -5.380000
v 5.901000 -0.851999 -5.380000
v 5.901000 3.396001 -4.673999
v -3.699000 3.396001 -4.673999
v -3.699000 0.000001 -5.447000
v 5.901000 0.000001 -5.447000
v 5.901000 2.623001 -5.147999
v -3.699000 2.623001 -5.147999
v -3.699000 3.202001 -4.407000
v -3.699000 2.473001 -4.853000
v 5.901000 3.202001 -4.407000
v 5.901000 2.473001 -4.853000
v 5.901000 1.785001 -5.494999
v -3.699000 1.785001 -5.494999
v -3.699000 3.852001 -3.851999
v 5.901000 -4.674000 3.395999
v -3.699000 -5.147999 -2.623001
v -3.699000 -5.494999 -1.785001
v 5.901000 -3.396001 4.673999
v 5.901000 -4.086000 4.085999
v -3.699000 -4.673999 -3.396001
v 5.901000 0.904001 -5.707000
v -3.699000 0.904001 -5.707000
v 5.901000 -2.623001 5.147999
v 5.901000 0.000001 -5.778000
v -3.699000 0.000001 -5.778000
v -3.699000 -3.395999 -4.674000
v 5.901000 -1.785001 5.494999
v -3.699000 -2.622999 -5.148000
v -3.699000 -4.085999 -4.086000
v 5.901000 -0.904001 5.707000
v -3.699000 -0.904001 5.707000
v 5.901000 -0.000001 5.778000
v 5.402000 1.667000 -1.556000
v 4.804000 1.667000 1.556000
v 4.804000 -1.667000 1.556000
v 4.804000 -1.667000 2.222000
v -3.699000 -1.784999 -5.495000
v 5.402000 -1.667000 1.556000
v 4.804000 1.667000 -2.222000
v 4.804000 1.667000 -1.556000
v 5.402000 -1.667000 2.222000
v 5.901000 -0.000001 5.447000
v -3.699000 -0.852001 5.380000
v -3.699000 -0.903999 -5.707000
v 5.901000 -0.852001 5.380000
v 5.901000 -1.683001 5.179999
v 5.901000 -2.473001 4.853000
v 5.901000 5.447000 0.000001
v 5.901000 5.380000 0.852001
v 5.901000 -3.202001 4.407000
v 5.901000 5.494999 1.785001
v 5.901000 5.179999 1.683001
v 5.901000 -3.852001 3.851999
v 5.901000 5.147999 2.623001
v 5.901000 4.853000 2.473001
v 5.901000 -4.407001 3.201999
v 5.901000 4.407000 3.202001
v 5.901000 4.673999 3.396001
v 5.901000 3.851999 3.852001
v 5.901000 4.085999 4.086000
v 5.901000 -4.853001 2.472999
v 5.901000 3.395999 4.674000
v 5.901000 3.201999 4.407001
v 5.901000 2.622999 5.148000
v 5.901000 2.472999 4.853001
v 5.901000 1.682999 5.180000
v 5.901000 1.784999 5.495000
v 5.901000 0.851999 5.380000
v 5.901000 0.903999 5.707000
v 5.901000 5.707000 0.904001
v 5.901000 3.852001 -3.851999
v -3.699000 4.407001 -3.201999
v 5.901000 4.407001 -3.201999
v -3.699000 4.853001 -2.472999
v 5.901000 4.853001 -2.472999
v 5.901000 -5.148000 2.622999
v 5.901000 -5.495000 1.784999
v -3.699000 5.180000 -1.682999
v 5.901000 5.180000 -1.682999
v 5.901000 -5.707000 0.903999
v 5.901000 -5.778000 -0.000001
v 5.901000 0.852001 -5.380000
v 5.901000 1.683001 -5.179999
v -3.699000 5.380000 -0.851999
v 5.901000 5.380000 -0.851999
v -3.699000 0.852001 -5.380000
v 5.901000 -0.903999 -5.707000
v 5.901000 -1.784999 -5.495000
v -3.699000 1.683001 -5.179999
v 5.901000 -2.622999 -5.148000
v 5.901000 -3.395999 -4.674000
v 5.901000 -4.085999 -4.086000
v 5.901000 -4.673999 -3.396001
v 5.901000 -5.147999 -2.623001
v 5.901000 -5.494999 -1.785001
v 5.901000 -5.707000 -0.904001
v -3.699000 -5.707000 -0.904001
v -3.699000 -5.707000 0.903999
v 5.402000 1.667000 2.222000
v 5.402000 1.667000 1.556000
v 4.804000 1.667000 2.222000
vn -1.0000 0.0000 0.0000
vn 1.0000 0.0000 0.0000
vn 0.0000 0.0000 -1.0000
vn 0.0000 -1.0000 -0.0000
vn 0.0000 0.9969 0.0784
vn 0.0000 0.9722 0.2340
vn 0.0000 0.9240 0.3825
vn 0.0000 0.8530 0.5219
vn 0.0000 0.9722 -0.2340
vn 0.0000 0.9969 -0.0784
vn 0.0000 0.7605 0.6493
vn 0.0000 0.6493 0.7605
vn 0.0000 0.9969 -0.0783
vn 0.0000 0.5219 0.8530
vn 0.0000 0.9239 -0.3826
vn 0.0000 0.3825 0.9240
vn 0.0000 0.8525 -0.5227
vn 0.0000 0.7611 -0.6486
vn 0.0000 0.2340 0.9722
vn 0.0000 0.6486 -0.7611
vn 0.0000 0.0784 0.9969
vn 0.0000 0.5227 -0.8525
vn 0.0000 -0.5219 0.8530
vn 0.0000 0.3826 -0.9239
vn 0.0000 -0.6493 0.7605
vn 0.0000 -0.7611 0.6486
vn 0.0000 -0.6486 0.7611
vn 0.0000 0.2340 -0.9722
vn 0.0000 -0.5227 0.8525
vn 0.0000 0.0783 -0.9969
vn 0.0000 -0.3826 0.9239
vn 0.0000 -0.2340 0.9722
vn 0.0000 -0.0783 0.9969
vn 0.0000 -0.0000 1.0000
vn 0.0000 0.0784 -0.9969
vn 0.0000 1.0000 0.0000
vn 0.0000 0.3825 -0.9240
vn 0.0000 0.5219 -0.8530
vn 0.0000 0.6493 -0.7605
vn 0.0000 0.7605 -0.6493
vn 0.0000 0.8530 -0.5219
vn 0.0000 0.9240 -0.3825
vn 0.0000 -0.7605 0.6493
vn 0.0000 -0.8530 0.5219
vn 0.0000 -0.9240 0.3825
vn 0.0000 -0.9722 0.2340
vn 0.0000 -0.9969 0.0784
vn 0.0000 -0.0784 0.9969
vn 0.0000 -0.0783 -0.9969
vn 0.0000 -0.2340 -0.9722
vn 0.0000 -0.3826 -0.9239
vn 0.0000 -0.5227 -0.8525
vn 0.0000 -0.3825 0.9240
vn 0.0000 -0.6486 -0.7611
vn 0.0000 -0.7611 -0.6486
vn 0.0000 -0.8525 -0.5227
vn 0.0000 -0.9969 -0.0784
vn 0.0000 -0.9239 -0.3826
vn 0.0000 -0.9722 -0.2340
vn 0.0000 -0.9969 -0.0783
vn 0.0000 -0.9240 -0.3825
vn 0.0000 -0.8530 -0.5219
vn 0.0000 -0.7605 -0.6493
vn 0.0000 -0.6493 -0.7605
vn 0.0000 -0.5219 -0.8530
vn 0.0000 -0.3825 -0.9240
vn 0.0000 -0.0784 -0.9969
vn 0.0000 -0.9969 0.0783
vn 0.0000 -0.9239 0.3826
vn 0.0000 -0.8525 0.5227
vn 0.0000 0.0783 0.9969
vn 0.0000 0.3826 0.9239
vn 0.0000 0.5227 0.8525
vn 0.0000 0.6486 0.7611
vn 0.0000 0.7611 0.6486
vn 0.0000 0.8525 0.5227
vn 0.0000 0.9239 0.3826
vn 0.0000 0.9969 0.0783
usemtl color_5635840
s off
f 1//1 2//1 3//1
f 4//1 2//1 1//1
f 2//1 5//1 3//1
f 6//1 7//1 4//1
f 8//2 9//2 10//2
f 11//1 12//1 6//1
f 2//1 4//1 7//1
f 13//1 14//1 11//1
f 7//1 6//1 15//1
f 16//1 14//1 13//1
f 15//1 6//1 12//1
f 17//1 18//1 19//1
f 12//1 11//1 14//1
f 9//3 20//3 10//3
f 21//1 22//1 19//1
f 23//4 20//4 9//4
f 23//4 9//4 8//4
f 17//1 19//1 22//1
f 16//1 19//1 18//1
f 14//1 16//1 18//1
f 5//1 24//1 25//1
f 25//1 3//1 5//1
f 24//1 26//1 25//1
f 27//1 25//1 26//1
f 28//5 29//5 30//5
f 28//5 30//5 31//5
f 32//1 33//1 34//1
f 35//1 33//1 32//1
f 33//1 36//1 34//1
f 37//1 38//1 35//1
f 28//6 31//6 39//6
f 40//6 39//6 31//6
f 41//1 42//1 37//1
f 33//1 35//1 38//1
f 43//1 44//1 41//1
f 38//1 37//1 45//1
f 46//1 44//1 43//1
f 45//1 37//1 42//1
f 47//1 48//1 46//1
f 42//1 41//1 44//1
f 39//7 40//7 49//7
f 29//1 50//1 47//1
f 51//7 49//7 40//7
f 51//8 52//8 49//8
f 53//8 49//8 52//8
f 46//9 54//9 47//9
f 55//9 47//9 54//9
f 30//10 47//10 55//10
f 52//11 56//11 53//11
f 57//11 53//11 56//11
f 30//10 29//10 47//10
f 56//12 58//12 59//12
f 56//12 59//12 57//12
f 60//13 61//13 62//13
f 60//13 62//13 26//13
f 61//9 63//9 64//9
f 61//9 64//9 62//9
f 65//14 59//14 66//14
f 58//14 66//14 59//14
f 67//15 68//15 63//15
f 64//15 63//15 68//15
f 69//16 65//16 70//16
f 66//16 70//16 65//16
f 67//17 71//17 72//17
f 67//17 72//17 68//17
f 71//18 73//18 74//18
f 71//18 74//18 72//18
f 69//19 70//19 75//19
f 76//19 75//19 70//19
f 73//20 77//20 78//20
f 73//20 78//20 74//20
f 79//21 75//21 76//21
f 79//21 76//21 80//21
f 77//22 81//22 82//22
f 77//22 82//22 78//22
f 83//23 84//23 85//23
f 86//23 85//23 84//23
f 81//24 87//24 88//24
f 81//24 88//24 82//24
f 83//25 85//25 89//25
f 90//26 45//26 42//26
f 53//1 91//1 49//1
f 92//1 39//1 91//1
f 93//27 38//27 94//27
f 57//1 95//1 53//1
f 94//27 38//27 45//27
f 87//28 96//28 97//28
f 87//28 97//28 88//28
f 98//29 33//29 93//29
f 96//30 99//30 100//30
f 96//30 100//30 97//30
f 93//29 33//29 38//29
f 59//1 101//1 57//1
f 91//1 53//1 95//1
f 33//31 98//31 36//31
f 102//31 36//31 98//31
f 65//1 103//1 59//1
f 95//1 57//1 104//1
f 105//32 106//32 36//32
f 105//32 36//32 102//32
f 22//33 106//33 105//33
f 22//33 105//33 107//33
f 10//2 108//2 8//2
f 109//1 110//1 111//1
f 69//1 103//1 65//1
f 104//1 57//1 101//1
f 75//1 112//1 69//1
f 101//1 59//1 103//1
f 113//3 110//3 109//3
f 20//1 23//1 114//1
f 115//1 114//1 23//1
f 111//4 110//4 113//4
f 111//4 113//4 116//4
f 108//34 115//34 23//34
f 108//34 23//34 8//34
f 79//1 100//1 75//1
f 103//1 69//1 112//1
f 21//35 117//35 118//35
f 119//1 75//1 100//1
f 112//1 75//1 119//1
f 118//35 117//35 120//35
f 10//3 20//3 114//3
f 108//36 10//36 114//36
f 108//36 114//36 115//36
f 34//28 118//28 120//28
f 34//28 120//28 121//28
f 32//37 34//37 122//37
f 29//1 28//1 50//1
f 123//2 60//2 124//2
f 121//37 122//37 34//37
f 125//38 35//38 122//38
f 32//38 122//38 35//38
f 124//2 126//2 127//2
f 37//39 35//39 128//39
f 126//2 129//2 127//2
f 130//2 127//2 129//2
f 125//39 128//39 35//39
f 131//40 37//40 128//40
f 41//40 37//40 131//40
f 132//2 130//2 129//2
f 129//2 133//2 132//2
f 134//2 132//2 133//2
f 133//2 135//2 134//2
f 41//41 136//41 43//41
f 135//2 137//2 134//2
f 138//2 134//2 137//2
f 136//41 41//41 131//41
f 137//2 139//2 138//2
f 140//2 138//2 139//2
f 141//2 140//2 139//2
f 139//2 142//2 141//2
f 143//2 141//2 142//2
f 43//42 136//42 54//42
f 43//42 54//42 46//42
f 142//2 144//2 143//2
f 144//2 107//2 143//2
f 117//2 143//2 107//2
f 126//2 124//2 145//2
f 60//2 145//2 124//2
f 146//25 89//25 85//25
f 107//2 105//2 120//2
f 120//2 102//2 121//2
f 146//43 147//43 89//43
f 122//2 121//2 98//2
f 93//2 125//2 98//2
f 146//43 148//43 147//43
f 122//2 98//2 125//2
f 149//44 147//44 150//44
f 128//2 125//2 93//2
f 93//2 94//2 128//2
f 94//2 90//2 128//2
f 131//2 128//2 90//2
f 148//44 150//44 147//44
f 90//2 151//2 131//2
f 136//2 131//2 151//2
f 54//2 136//2 151//2
f 151//2 152//2 54//2
f 55//2 54//2 152//2
f 153//45 149//45 154//45
f 149//45 150//45 154//45
f 98//2 121//2 102//2
f 117//2 107//2 120//2
f 102//2 120//2 105//2
f 152//2 155//2 55//2
f 155//2 156//2 55//2
f 30//2 55//2 156//2
f 80//2 99//2 157//2
f 96//2 87//2 157//2
f 158//2 157//2 87//2
f 87//2 81//2 158//2
f 86//2 158//2 81//2
f 153//46 154//46 159//46
f 160//46 159//46 154//46
f 85//2 86//2 81//2
f 81//2 77//2 85//2
f 146//2 85//2 77//2
f 77//2 73//2 146//2
f 159//47 123//47 27//47
f 79//48 80//48 161//48
f 157//48 161//48 80//48
f 160//47 123//47 159//47
f 162//49 119//49 100//49
f 162//49 100//49 99//49
f 162//50 163//50 112//50
f 162//50 112//50 119//50
f 164//32 161//32 158//32
f 157//32 158//32 161//32
f 112//51 165//51 103//51
f 163//51 165//51 112//51
f 101//52 103//52 166//52
f 165//52 166//52 103//52
f 158//53 86//53 84//53
f 158//53 84//53 164//53
f 104//54 101//54 167//54
f 166//54 167//54 101//54
f 73//2 71//2 146//2
f 148//2 146//2 71//2
f 168//55 95//55 104//55
f 168//55 104//55 167//55
f 169//56 91//56 168//56
f 168//56 91//56 95//56
f 123//57 124//57 27//57
f 92//58 91//58 169//58
f 25//57 27//57 124//57
f 170//58 92//58 169//58
f 171//59 172//59 92//59
f 171//59 92//59 170//59
f 50//60 172//60 171//60
f 50//60 171//60 156//60
f 25//59 124//59 127//59
f 25//59 127//59 3//59
f 1//61 3//61 130//61
f 127//61 130//61 3//61
f 71//2 67//2 148//2
f 150//2 148//2 67//2
f 154//2 150//2 67//2
f 67//2 63//2 154//2
f 130//62 132//62 1//62
f 160//2 154//2 63//2
f 63//2 61//2 160//2
f 4//62 1//62 132//62
f 61//2 60//2 160//2
f 123//2 160//2 60//2
f 96//2 157//2 99//2
f 31//2 30//2 156//2
f 4//63 132//63 6//63
f 134//63 6//63 132//63
f 156//2 171//2 31//2
f 40//2 31//2 170//2
f 170//2 169//2 40//2
f 40//2 169//2 51//2
f 52//2 51//2 169//2
f 169//2 168//2 52//2
f 134//64 138//64 6//64
f 11//64 6//64 138//64
f 56//2 52//2 168//2
f 168//2 167//2 56//2
f 167//2 166//2 56//2
f 58//2 56//2 166//2
f 166//2 165//2 58//2
f 66//2 58//2 165//2
f 70//2 66//2 165//2
f 13//65 11//65 138//65
f 13//65 138//65 140//65
f 165//2 163//2 70//2
f 76//2 70//2 163//2
f 16//66 13//66 141//66
f 163//2 162//2 76//2
f 162//2 99//2 76//2
f 80//2 76//2 99//2
f 140//66 141//66 13//66
f 19//50 141//50 143//50
f 16//50 141//50 19//50
f 117//67 19//67 143//67
f 117//67 21//67 19//67
f 155//68 173//68 50//68
f 155//68 50//68 156//68
f 152//46 48//46 173//46
f 152//46 173//46 155//46
f 44//69 48//69 151//69
f 152//69 151//69 48//69
f 90//70 42//70 44//70
f 90//70 44//70 151//70
f 94//26 45//26 90//26
f 36//1 106//1 118//1
f 118//1 34//1 36//1
f 106//1 22//1 118//1
f 21//1 118//1 22//1
f 48//1 47//1 173//1
f 44//1 46//1 48//1
f 173//1 47//1 50//1
f 84//1 82//1 164//1
f 164//1 88//1 161//1
f 83//1 82//1 84//1
f 89//1 78//1 83//1
f 88//1 164//1 82//1
f 147//1 72//1 89//1
f 82//1 83//1 78//1
f 149//1 68//1 147//1
f 78//1 89//1 74//1
f 153//1 68//1 149//1
f 74//1 89//1 72//1
f 159//1 64//1 153//1
f 72//1 147//1 68//1
f 27//1 26//1 159//1
f 68//1 153//1 64//1
f 62//1 159//1 26//1
f 64//1 159//1 62//1
f 79//1 161//1 100//1
f 97//1 100//1 161//1
f 97//1 161//1 88//1
f 172//1 50//1 28//1
f 39//1 92//1 28//1
f 49//1 91//1 39//1
f 172//1 28//1 92//1
f 170//2 31//2 171//2
f 144//71 17//71 22//71
f 144//71 22//71 107//71
f 142//19 18//19 17//19
f 142//19 17//19 144//19
f 14//72 18//72 139//72
f 142//72 139//72 18//72
f 137//73 12//73 139//73
f 139//73 12//73 14//73
f 135//74 15//74 137//74
f 137//74 15//74 12//74
f 7//75 135//75 133//75
f 7//75 15//75 135//75
f 2//76 133//76 129//76
f 2//76 7//76 133//76
f 2//77 129//77 126//77
f 2//77 126//77 5//77
f 126//6 145//6 24//6
f 126//6 24//6 5//6
f 145//78 60//78 26//78
f 145//78 26//78 24//78
f 174//2 116//2 175//2
f 113//2 175//2 116//2
f 176//1 109//1 111//1
f 174//34 176//34 111//34
f 174//34 111//34 116//34
f 113//3 109//3 175//3
f 174//36 175//36 109//36
f 174//36 109//36 176//36
